<?xml version="1.0" standalone="no"?>
<!DOCTYPE svg PUBLIC "-//W3C//DTD SVG 1.1//EN" "http://www.w3.org/Graphics/SVG/1.1/DTD/svg11.dtd" >
<svg xmlns="http://www.w3.org/2000/svg" xmlns:xlink="http://www.w3.org/1999/xlink" version="1.1">
<metadata>
Created by FontForge 20161116 at Tue May 17 13:54:35 2016
 By Jimmy Wärting
Copyright \(c\) 2016 by Fontfabric LLC. All rights reserved.
</metadata>
<defs>
<font id="Phenomena-ExtraBold" horiz-adv-x="0" >
  <font-face 
    font-family="Phenomena ExtraBold"
    font-weight="800"
    font-stretch="normal"
    units-per-em="1000"
    panose-1="0 0 9 0 0 0 0 0 0 0"
    ascent="800"
    descent="-200"
    x-height="500"
    cap-height="700"
    bbox="-530.765 -278 806 982"
    underline-thickness="50"
    underline-position="-100"
    stemh="111"
    stemv="118"
    unicode-range="U+0020-25CA"
  />
<missing-glyph horiz-adv-x="500" 
d="M410 800v-1000h-317v1000h317zM333 733h-165v-33h65v-37h-66v-33h166v33h-66v37h66v33zM267 604h-100v-104h166v34h-66v70zM233 570v-36h-33v36h33zM333 473h-166v-33h66v-37h-66v-33h100v70h66v33zM333 413h-33v-66h-133v-34h166v100zM333 291h-100v-56h34v23h33v-47
h-100v80h-33v-113h166v113zM333 118h-166v-113h166v113zM300 85v-47h-100v47h100zM333 -18h-166v-33h70l-70 -47v-33h166v33h-102l70 47h32v33z" />
    <glyph glyph-name=".notdef" horiz-adv-x="500" 
d="M410 800v-1000h-317v1000h317zM333 733h-165v-33h65v-37h-66v-33h166v33h-66v37h66v33zM267 604h-100v-104h166v34h-66v70zM233 570v-36h-33v36h33zM333 473h-166v-33h66v-37h-66v-33h100v70h66v33zM333 413h-33v-66h-133v-34h166v100zM333 291h-100v-56h34v23h33v-47
h-100v80h-33v-113h166v113zM333 118h-166v-113h166v113zM300 85v-47h-100v47h100zM333 -18h-166v-33h70l-70 -47v-33h166v33h-102l70 47h32v33z" />
    <glyph glyph-name="A" unicode="A" horiz-adv-x="447" 
d="M62 0c-12 0 -18 6 -18 18v504c0 114 72 189 179 189c108 0 180 -75 180 -189v-504c0 -12 -7 -18 -18 -18h-90c-11 0 -18 6 -18 18v197h-108v-197c0 -12 -6 -18 -17 -18h-90zM169 330h108v201c0 39 -20 63 -54 63s-54 -24 -54 -63v-201z" />
    <glyph glyph-name="Aacute" unicode="&#xc1;" horiz-adv-x="447" 
d="M175 769c-14 0 -20 10 -12 21l61 90c5 8 13 11 21 11h70c14 0 19 -11 9 -22l-77 -90c-6 -7 -13 -10 -22 -10h-50zM62 0c-12 0 -18 6 -18 18v504c0 114 72 189 179 189c108 0 180 -75 180 -189v-504c0 -12 -7 -18 -18 -18h-90c-11 0 -18 6 -18 18v197h-108v-197
c0 -12 -6 -18 -17 -18h-90zM169 330h108v201c0 39 -20 63 -54 63s-54 -24 -54 -63v-201z" />
    <glyph glyph-name="Abreve" unicode="&#x102;" horiz-adv-x="447" 
d="M223 767c-67 0 -113 41 -121 103c-1 12 6 19 18 19h45c11 0 15 -6 19 -16c5 -16 19 -25 39 -25s34 9 39 25c4 10 8 16 18 16h46c11 0 18 -7 18 -19c-8 -62 -54 -103 -121 -103zM62 0c-12 0 -18 6 -18 18v504c0 114 72 189 179 189c108 0 180 -75 180 -189v-504
c0 -12 -7 -18 -18 -18h-90c-11 0 -18 6 -18 18v197h-108v-197c0 -12 -6 -18 -17 -18h-90zM169 330h108v201c0 39 -20 63 -54 63s-54 -24 -54 -63v-201z" />
    <glyph glyph-name="Acircumflex" unicode="&#xc2;" horiz-adv-x="447" 
d="M344 790c8 -11 3 -21 -11 -21h-49c-9 0 -16 3 -21 10l-40 49l-41 -49c-6 -7 -13 -10 -21 -10h-49c-14 0 -20 10 -11 21l62 90c5 7 13 11 22 11h75c9 0 16 -4 22 -11zM62 0c-12 0 -18 6 -18 18v504c0 114 72 189 179 189c108 0 180 -75 180 -189v-504
c0 -12 -7 -18 -18 -18h-90c-11 0 -18 6 -18 18v197h-108v-197c0 -12 -6 -18 -17 -18h-90zM169 330h108v201c0 39 -20 63 -54 63s-54 -24 -54 -63v-201z" />
    <glyph glyph-name="Adieresis" unicode="&#xc4;" horiz-adv-x="447" 
d="M154 771c-32 0 -52 21 -52 52s20 52 52 52c30 0 51 -21 51 -52s-21 -52 -51 -52zM292 771c-31 0 -52 21 -52 52s21 52 52 52s52 -21 52 -52s-21 -52 -52 -52zM62 0c-12 0 -18 6 -18 18v504c0 114 72 189 179 189c108 0 180 -75 180 -189v-504c0 -12 -7 -18 -18 -18h-90
c-11 0 -18 6 -18 18v197h-108v-197c0 -12 -6 -18 -17 -18h-90zM169 330h108v201c0 39 -20 63 -54 63s-54 -24 -54 -63v-201z" />
    <glyph glyph-name="Agrave" unicode="&#xc0;" horiz-adv-x="447" 
d="M292 769h-50c-9 0 -16 3 -22 10l-77 90c-10 11 -5 22 9 22h70c8 0 16 -3 21 -11l61 -90c8 -11 2 -21 -12 -21zM62 0c-12 0 -18 6 -18 18v504c0 114 72 189 179 189c108 0 180 -75 180 -189v-504c0 -12 -7 -18 -18 -18h-90c-11 0 -18 6 -18 18v197h-108v-197
c0 -12 -6 -18 -17 -18h-90zM169 330h108v201c0 39 -20 63 -54 63s-54 -24 -54 -63v-201z" />
    <glyph glyph-name="Amacron" unicode="&#x100;" horiz-adv-x="447" 
d="M130 840c0 11 6 17 18 17h149c11 0 17 -6 17 -17v-38c0 -11 -6 -18 -17 -18h-149c-12 0 -18 7 -18 18v38zM62 0c-12 0 -18 6 -18 18v504c0 114 72 189 179 189c108 0 180 -75 180 -189v-504c0 -12 -7 -18 -18 -18h-90c-11 0 -18 6 -18 18v197h-108v-197
c0 -12 -6 -18 -17 -18h-90zM169 330h108v201c0 39 -20 63 -54 63s-54 -24 -54 -63v-201z" />
    <glyph glyph-name="Aogonek" unicode="&#x104;" horiz-adv-x="453" 
d="M369 -208c-91 0 -135 24 -135 90c0 45 17 84 43 118v215h-105v-197c0 -12 -7 -18 -18 -18h-92c-12 0 -18 6 -18 18v504c0 114 72 189 180 189c109 0 181 -75 181 -189v-501c0 -13 -5 -23 -18 -32c-29 -21 -47 -50 -47 -72s16 -36 43 -36h9c11 0 17 -5 17 -17v-54
c0 -11 -6 -18 -16 -18h-24zM172 330h105v201c0 39 -19 63 -53 63c-33 0 -52 -24 -52 -63v-201z" />
    <glyph glyph-name="Aring" unicode="&#xc5;" horiz-adv-x="447" 
d="M142 830c0 47 32 78 81 78s82 -31 82 -78c0 -48 -33 -80 -82 -80s-81 32 -81 80zM199 829c0 -15 9 -24 24 -24s25 9 25 24s-10 25 -25 25s-24 -10 -24 -25zM62 0c-12 0 -18 6 -18 18v504c0 114 72 189 179 189c108 0 180 -75 180 -189v-504c0 -12 -7 -18 -18 -18h-90
c-11 0 -18 6 -18 18v197h-108v-197c0 -12 -6 -18 -17 -18h-90zM169 330h108v201c0 39 -20 63 -54 63s-54 -24 -54 -63v-201z" />
    <glyph glyph-name="Atilde" unicode="&#xc3;" horiz-adv-x="447" 
d="M188 795c-7 0 -11 -3 -14 -10c-5 -10 -10 -15 -19 -15h-37c-11 0 -18 7 -17 18c2 26 23 77 79 77c41 0 60 -27 78 -27c7 0 12 4 15 10c3 7 6 16 18 16h37c11 0 18 -5 17 -19c-2 -32 -28 -76 -79 -76c-38 0 -59 26 -78 26zM62 0c-12 0 -18 6 -18 18v504
c0 114 72 189 179 189c108 0 180 -75 180 -189v-504c0 -12 -7 -18 -18 -18h-90c-11 0 -18 6 -18 18v197h-108v-197c0 -12 -6 -18 -17 -18h-90zM169 330h108v201c0 39 -20 63 -54 63s-54 -24 -54 -63v-201z" />
    <glyph glyph-name="AE" unicode="&#xc6;" horiz-adv-x="596" 
d="M62 0c-12 0 -18 6 -18 18v507c0 110 71 184 177 184c48 0 89 -20 118 -50c30 28 68 46 114 46h101c11 0 17 -6 17 -17v-80c0 -12 -6 -18 -17 -18h-86c-44 0 -69 -27 -69 -74v-125h129c11 0 17 -6 17 -17v-74c0 -12 -6 -18 -17 -18h-129v-96c0 -47 25 -75 69 -75h88
c12 0 18 -6 18 -17v-81c0 -11 -6 -17 -18 -17h-103c-109 0 -181 74 -181 186v95h-102v-259c0 -12 -6 -18 -17 -18h-91zM170 392h102v142c0 37 -20 60 -51 60c-32 0 -51 -23 -51 -60v-142z" />
    <glyph glyph-name="B" unicode="B" horiz-adv-x="427" 
d="M337 362c41 -31 65 -78 65 -135v-42c0 -115 -72 -189 -178 -189h-127c-30 0 -53 22 -53 53v476c0 112 70 186 172 186c104 0 174 -74 174 -186v-40c1 -52 -19 -95 -53 -123zM169 536v-127h48c30 0 48 23 48 62v65c0 36 -19 59 -50 59c-29 0 -46 -23 -46 -59zM275 175v56
c0 42 -20 67 -54 67h-52v-188h52c34 0 54 24 54 65z" />
    <glyph glyph-name="C" unicode="C" horiz-adv-x="412" 
d="M217 -12c-108 0 -180 76 -180 188v348c0 113 72 188 180 188c102 0 170 -75 174 -199c0 -12 -6 -18 -17 -18h-91c-10 0 -17 6 -17 17c-2 56 -22 82 -52 82c-32 0 -51 -23 -51 -61v-366c0 -38 19 -61 51 -61c33 0 54 31 56 91c1 11 7 17 17 17h91c12 0 18 -7 17 -19
c-4 -129 -71 -207 -178 -207z" />
    <glyph glyph-name="Cacute" unicode="&#x106;" horiz-adv-x="412" 
d="M161 769c-14 0 -20 10 -12 21l61 90c5 8 13 11 21 11h70c14 0 19 -11 9 -22l-77 -90c-6 -7 -13 -10 -22 -10h-50zM217 -12c-108 0 -180 76 -180 188v348c0 113 72 188 180 188c102 0 170 -75 174 -199c0 -12 -6 -18 -17 -18h-91c-10 0 -17 6 -17 17c-2 56 -22 82 -52 82
c-32 0 -51 -23 -51 -61v-366c0 -38 19 -61 51 -61c33 0 54 31 56 91c1 11 7 17 17 17h91c12 0 18 -7 17 -19c-4 -129 -71 -207 -178 -207z" />
    <glyph glyph-name="Ccaron" unicode="&#x10c;" horiz-adv-x="412" 
d="M330 870l-62 -90c-6 -7 -13 -11 -22 -11h-75c-9 0 -17 4 -22 11l-62 90c-9 11 -3 21 11 21h49c8 0 15 -3 21 -10l41 -49l40 49c5 7 12 10 21 10h49c14 0 19 -10 11 -21zM217 -12c-108 0 -180 76 -180 188v348c0 113 72 188 180 188c102 0 170 -75 174 -199
c0 -12 -6 -18 -17 -18h-91c-10 0 -17 6 -17 17c-2 56 -22 82 -52 82c-32 0 -51 -23 -51 -61v-366c0 -38 19 -61 51 -61c33 0 54 31 56 91c1 11 7 17 17 17h91c12 0 18 -7 17 -19c-4 -129 -71 -207 -178 -207z" />
    <glyph glyph-name="Ccedilla" unicode="&#xc7;" horiz-adv-x="412" 
d="M378 214c12 0 18 -7 17 -19c-4 -117 -59 -192 -149 -205l-6 -34h5c40 -3 72 -33 72 -75c0 -57 -43 -90 -99 -90c-49 0 -87 27 -94 75c-3 11 5 18 16 18h27c10 0 13 -5 19 -14c5 -11 18 -17 32 -17c19 0 34 10 34 28c0 16 -14 27 -34 27c-13 0 -24 -1 -35 -3
c-4 -1 -8 0 -11 3l-5 4c-3 3 -4 6 -3 11l13 69c-85 16 -140 86 -140 184v348c0 113 72 188 180 188c102 0 170 -75 174 -199c0 -12 -6 -18 -17 -18h-91c-10 0 -17 6 -17 17c-2 56 -22 82 -52 82c-32 0 -51 -23 -51 -61v-366c0 -38 19 -61 51 -61c33 0 54 31 56 91
c1 11 7 17 17 17h91z" />
    <glyph glyph-name="Cdotaccent" unicode="&#x10a;" horiz-adv-x="412" 
d="M209 767c-39 0 -66 29 -66 66c0 38 27 66 66 66c37 0 66 -28 66 -66c0 -35 -29 -66 -66 -66zM217 -12c-108 0 -180 76 -180 188v348c0 113 72 188 180 188c102 0 170 -75 174 -199c0 -12 -6 -18 -17 -18h-91c-10 0 -17 6 -17 17c-2 56 -22 82 -52 82
c-32 0 -51 -23 -51 -61v-366c0 -38 19 -61 51 -61c33 0 54 31 56 91c1 11 7 17 17 17h91c12 0 18 -7 17 -19c-4 -129 -71 -207 -178 -207z" />
    <glyph glyph-name="D" unicode="D" horiz-adv-x="442" 
d="M102 -4c-34 0 -53 18 -53 52v604c0 34 19 52 53 52h123c109 0 180 -76 180 -188v-332c0 -112 -72 -188 -180 -188h-123zM174 111h44c40 0 61 25 61 69v340c0 45 -20 69 -61 69h-44v-478z" />
    <glyph glyph-name="Eth" unicode="&#xd0;" horiz-adv-x="471" 
d="M255 704c109 0 180 -76 180 -188v-332c0 -112 -72 -188 -180 -188h-123c-34 0 -53 18 -53 52v272h-37c-12 0 -18 6 -18 17v41c0 11 6 18 18 18h37v256c0 34 19 52 53 52h123zM309 180v340c0 45 -20 69 -61 69h-44v-193h34c11 0 17 -7 17 -18v-41c0 -11 -6 -17 -17 -17
h-34v-209h44c40 0 61 25 61 69z" />
    <glyph glyph-name="Dcaron" unicode="&#x10e;" horiz-adv-x="442" 
d="M341 870l-62 -90c-6 -7 -13 -11 -22 -11h-75c-9 0 -17 4 -22 11l-62 90c-9 11 -3 21 11 21h49c8 0 15 -3 21 -10l41 -49l40 49c5 7 12 10 21 10h49c14 0 19 -10 11 -21zM102 -4c-34 0 -53 18 -53 52v604c0 34 19 52 53 52h123c109 0 180 -76 180 -188v-332
c0 -112 -72 -188 -180 -188h-123zM174 111h44c40 0 61 25 61 69v340c0 45 -20 69 -61 69h-44v-478z" />
    <glyph glyph-name="Dcroat" unicode="&#x110;" horiz-adv-x="471" 
d="M255 704c109 0 180 -76 180 -188v-332c0 -112 -72 -188 -180 -188h-123c-34 0 -53 18 -53 52v272h-37c-12 0 -18 6 -18 17v41c0 11 6 18 18 18h37v256c0 34 19 52 53 52h123zM309 180v340c0 45 -20 69 -61 69h-44v-193h34c11 0 17 -7 17 -18v-41c0 -11 -6 -17 -17 -17
h-34v-209h44c40 0 61 25 61 69z" />
    <glyph glyph-name="E" unicode="E" horiz-adv-x="362" 
d="M217 -4c-108 0 -180 76 -180 188v333c0 111 72 187 180 187h105c11 0 18 -6 18 -17v-80c0 -12 -7 -18 -18 -18h-90c-43 0 -69 -30 -69 -76v-104h134c12 0 18 -7 18 -18v-76c0 -12 -6 -18 -18 -18h-134v-110c0 -46 26 -76 69 -76h90c11 0 18 -6 18 -17v-81
c0 -11 -7 -17 -18 -17h-105z" />
    <glyph glyph-name="Eacute" unicode="&#xc9;" horiz-adv-x="362" 
d="M154 769c-14 0 -20 10 -12 21l61 90c5 8 13 11 21 11h70c14 0 19 -11 9 -22l-77 -90c-6 -7 -13 -10 -22 -10h-50zM217 -4c-108 0 -180 76 -180 188v333c0 111 72 187 180 187h105c11 0 18 -6 18 -17v-80c0 -12 -7 -18 -18 -18h-90c-43 0 -69 -30 -69 -76v-104h134
c12 0 18 -7 18 -18v-76c0 -12 -6 -18 -18 -18h-134v-110c0 -46 26 -76 69 -76h90c11 0 18 -6 18 -17v-81c0 -11 -7 -17 -18 -17h-105z" />
    <glyph glyph-name="Ecaron" unicode="&#x11a;" horiz-adv-x="362" 
d="M323 870l-62 -90c-6 -7 -13 -11 -22 -11h-75c-9 0 -17 4 -22 11l-62 90c-9 11 -3 21 11 21h49c8 0 15 -3 21 -10l41 -49l40 49c5 7 12 10 21 10h49c14 0 19 -10 11 -21zM217 -4c-108 0 -180 76 -180 188v333c0 111 72 187 180 187h105c11 0 18 -6 18 -17v-80
c0 -12 -7 -18 -18 -18h-90c-43 0 -69 -30 -69 -76v-104h134c12 0 18 -7 18 -18v-76c0 -12 -6 -18 -18 -18h-134v-110c0 -46 26 -76 69 -76h90c11 0 18 -6 18 -17v-81c0 -11 -7 -17 -18 -17h-105z" />
    <glyph glyph-name="Ecircumflex" unicode="&#xca;" horiz-adv-x="362" 
d="M323 790c8 -11 3 -21 -11 -21h-49c-9 0 -16 3 -21 10l-40 49l-41 -49c-6 -7 -13 -10 -21 -10h-49c-14 0 -20 10 -11 21l62 90c5 7 13 11 22 11h75c9 0 16 -4 22 -11zM217 -4c-108 0 -180 76 -180 188v333c0 111 72 187 180 187h105c11 0 18 -6 18 -17v-80
c0 -12 -7 -18 -18 -18h-90c-43 0 -69 -30 -69 -76v-104h134c12 0 18 -7 18 -18v-76c0 -12 -6 -18 -18 -18h-134v-110c0 -46 26 -76 69 -76h90c11 0 18 -6 18 -17v-81c0 -11 -7 -17 -18 -17h-105z" />
    <glyph glyph-name="Edieresis" unicode="&#xcb;" horiz-adv-x="362" 
d="M133 771c-32 0 -52 21 -52 52s20 52 52 52c30 0 51 -21 51 -52s-21 -52 -51 -52zM271 771c-31 0 -52 21 -52 52s21 52 52 52s52 -21 52 -52s-21 -52 -52 -52zM217 -4c-108 0 -180 76 -180 188v333c0 111 72 187 180 187h105c11 0 18 -6 18 -17v-80c0 -12 -7 -18 -18 -18
h-90c-43 0 -69 -30 -69 -76v-104h134c12 0 18 -7 18 -18v-76c0 -12 -6 -18 -18 -18h-134v-110c0 -46 26 -76 69 -76h90c11 0 18 -6 18 -17v-81c0 -11 -7 -17 -18 -17h-105z" />
    <glyph glyph-name="Edotaccent" unicode="&#x116;" horiz-adv-x="362" 
d="M202 767c-39 0 -66 29 -66 66c0 38 27 66 66 66c37 0 66 -28 66 -66c0 -35 -29 -66 -66 -66zM217 -4c-108 0 -180 76 -180 188v333c0 111 72 187 180 187h105c11 0 18 -6 18 -17v-80c0 -12 -7 -18 -18 -18h-90c-43 0 -69 -30 -69 -76v-104h134c12 0 18 -7 18 -18v-76
c0 -12 -6 -18 -18 -18h-134v-110c0 -46 26 -76 69 -76h90c11 0 18 -6 18 -17v-81c0 -11 -7 -17 -18 -17h-105z" />
    <glyph glyph-name="Egrave" unicode="&#xc8;" horiz-adv-x="362" 
d="M271 769h-50c-9 0 -16 3 -22 10l-77 90c-10 11 -5 22 9 22h70c8 0 16 -3 21 -11l61 -90c8 -11 2 -21 -12 -21zM217 -4c-108 0 -180 76 -180 188v333c0 111 72 187 180 187h105c11 0 18 -6 18 -17v-80c0 -12 -7 -18 -18 -18h-90c-43 0 -69 -30 -69 -76v-104h134
c12 0 18 -7 18 -18v-76c0 -12 -6 -18 -18 -18h-134v-110c0 -46 26 -76 69 -76h90c11 0 18 -6 18 -17v-81c0 -11 -7 -17 -18 -17h-105z" />
    <glyph glyph-name="Emacron" unicode="&#x112;" horiz-adv-x="362" 
d="M109 840c0 11 6 17 18 17h149c11 0 17 -6 17 -17v-38c0 -11 -6 -18 -17 -18h-149c-12 0 -18 7 -18 18v38zM217 -4c-108 0 -180 76 -180 188v333c0 111 72 187 180 187h105c11 0 18 -6 18 -17v-80c0 -12 -7 -18 -18 -18h-90c-43 0 -69 -30 -69 -76v-104h134
c12 0 18 -7 18 -18v-76c0 -12 -6 -18 -18 -18h-134v-110c0 -46 26 -76 69 -76h90c11 0 18 -6 18 -17v-81c0 -11 -7 -17 -18 -17h-105z" />
    <glyph glyph-name="Eogonek" unicode="&#x118;" horiz-adv-x="364" 
d="M232 589c-43 0 -69 -30 -69 -76v-104h134c12 0 18 -7 18 -18v-76c0 -12 -6 -18 -18 -18h-134v-110c0 -46 26 -76 69 -76h90c11 0 18 -6 18 -17v-81c0 -11 -7 -17 -18 -17h-12c-29 -24 -47 -55 -47 -79c0 -22 16 -36 43 -36h8c12 0 18 -5 18 -17v-54c0 -10 -6 -17 -17 -17
c-8 -1 -16 -1 -23 -1c-91 0 -136 24 -136 90c0 43 19 81 48 114c-101 6 -167 81 -167 188v333c0 111 72 187 180 187h105c11 0 18 -6 18 -17v-80c0 -12 -7 -18 -18 -18h-90z" />
    <glyph glyph-name="F" unicode="F" horiz-adv-x="345" 
d="M62 0c-12 0 -18 6 -18 18v494c0 112 72 188 180 188h89c11 0 17 -6 17 -17v-81c0 -11 -6 -17 -17 -17h-74c-43 0 -69 -30 -69 -76v-101h124c11 0 17 -6 17 -17v-80c0 -12 -6 -18 -17 -18h-124v-275c0 -12 -6 -18 -17 -18h-91z" />
    <glyph glyph-name="G" unicode="G" horiz-adv-x="428" 
d="M218 -12c-108 0 -181 76 -181 189v347c0 112 71 188 178 188c102 0 176 -76 179 -195c0 -12 -6 -18 -17 -18h-90c-11 0 -18 6 -19 17c-2 55 -23 79 -53 79c-33 0 -52 -24 -52 -62v-365c0 -39 23 -63 58 -63c34 0 56 24 56 60v113h-40c-12 0 -18 6 -18 18v72
c0 12 6 18 18 18h112c34 0 52 -19 52 -53v-159c0 -110 -74 -186 -183 -186z" />
    <glyph glyph-name="Gbreve" unicode="&#x11e;" horiz-adv-x="428" 
d="M215 767c-67 0 -113 41 -121 103c-1 12 6 19 18 19h45c11 0 15 -6 19 -16c5 -16 19 -25 39 -25s34 9 39 25c4 10 8 16 18 16h46c11 0 18 -7 18 -19c-8 -62 -54 -103 -121 -103zM218 -12c-108 0 -181 76 -181 189v347c0 112 71 188 178 188c102 0 176 -76 179 -195
c0 -12 -6 -18 -17 -18h-90c-11 0 -18 6 -19 17c-2 55 -23 79 -53 79c-33 0 -52 -24 -52 -62v-365c0 -39 23 -63 58 -63c34 0 56 24 56 60v113h-40c-12 0 -18 6 -18 18v72c0 12 6 18 18 18h112c34 0 52 -19 52 -53v-159c0 -110 -74 -186 -183 -186z" />
    <glyph glyph-name="Gcommaaccent" unicode="&#x122;" horiz-adv-x="428" 
d="M218 -12c-108 0 -181 76 -181 189v347c0 112 71 188 178 188c102 0 176 -76 179 -195c0 -12 -6 -18 -17 -18h-90c-11 0 -18 6 -19 17c-2 55 -23 79 -53 79c-33 0 -52 -24 -52 -62v-365c0 -39 23 -63 58 -63c34 0 56 24 56 60v113h-40c-12 0 -18 6 -18 18v72
c0 12 6 18 18 18h112c34 0 52 -19 52 -53v-159c0 -110 -74 -186 -183 -186zM162 -70c1 10 7 16 18 16h70c11 0 18 -8 16 -19l-37 -189c-2 -11 -8 -16 -19 -16h-40c-12 0 -18 6 -18 18z" />
    <glyph glyph-name="Gdotaccent" unicode="&#x120;" horiz-adv-x="428" 
d="M215 767c-39 0 -66 29 -66 66c0 38 27 66 66 66c37 0 66 -28 66 -66c0 -35 -29 -66 -66 -66zM218 -12c-108 0 -181 76 -181 189v347c0 112 71 188 178 188c102 0 176 -76 179 -195c0 -12 -6 -18 -17 -18h-90c-11 0 -18 6 -19 17c-2 55 -23 79 -53 79
c-33 0 -52 -24 -52 -62v-365c0 -39 23 -63 58 -63c34 0 56 24 56 60v113h-40c-12 0 -18 6 -18 18v72c0 12 6 18 18 18h112c34 0 52 -19 52 -53v-159c0 -110 -74 -186 -183 -186z" />
    <glyph glyph-name="H" unicode="H" horiz-adv-x="448" 
d="M275 683c0 11 6 17 17 17h90c11 0 17 -6 17 -17v-665c0 -12 -6 -18 -17 -18h-90c-11 0 -17 6 -17 18v278h-101v-278c0 -12 -7 -18 -18 -18h-89c-12 0 -18 6 -18 18v665c0 11 6 17 18 17h89c11 0 18 -6 18 -17v-272h101v272z" />
    <glyph glyph-name="Hbar" unicode="&#x126;" horiz-adv-x="523" 
d="M482 581c11 0 17 -6 17 -17v-48c0 -12 -6 -18 -17 -18h-46v-480c0 -12 -6 -18 -17 -18h-90c-11 0 -17 6 -17 18v278h-101v-278c0 -12 -6 -18 -17 -18h-90c-11 0 -17 6 -17 18v480h-45c-12 0 -18 6 -18 18v48c0 11 6 17 18 17h45v102c0 11 6 17 17 17h90
c11 0 17 -6 17 -17v-102h101v102c0 11 6 17 17 17h90c11 0 17 -6 17 -17v-102h46zM312 411v87h-101v-87h101z" />
    <glyph glyph-name="I" unicode="I" horiz-adv-x="223" 
d="M49 683c0 11 6 17 18 17h89c11 0 18 -6 18 -17v-665c0 -12 -7 -18 -18 -18h-89c-12 0 -18 6 -18 18v665z" />
    <glyph glyph-name="Iacute" unicode="&#xcd;" horiz-adv-x="228" 
d="M64 769c-14 0 -20 10 -12 21l61 90c5 8 13 11 21 11h70c14 0 19 -11 9 -22l-77 -90c-6 -7 -13 -10 -22 -10h-50zM52 683c0 11 6 17 18 17h89c11 0 18 -6 18 -17v-665c0 -12 -7 -18 -18 -18h-89c-12 0 -18 6 -18 18v665z" />
    <glyph glyph-name="Icircumflex" unicode="&#xce;" horiz-adv-x="270" 
d="M257 790c8 -11 3 -21 -11 -21h-49c-9 0 -16 3 -21 10l-40 49l-41 -49c-6 -7 -13 -10 -21 -10h-49c-14 0 -20 10 -11 21l62 90c5 7 13 11 22 11h75c9 0 16 -4 22 -11zM75 683c0 11 6 17 18 17h89c11 0 18 -6 18 -17v-665c0 -12 -7 -18 -18 -18h-89c-12 0 -18 6 -18 18v665
z" />
    <glyph glyph-name="Idieresis" unicode="&#xcf;" horiz-adv-x="256" 
d="M59 771c-32 0 -52 21 -52 52s20 52 52 52c30 0 51 -21 51 -52s-21 -52 -51 -52zM197 771c-31 0 -52 21 -52 52s21 52 52 52s52 -21 52 -52s-21 -52 -52 -52zM68 683c0 11 6 17 18 17h89c11 0 18 -6 18 -17v-665c0 -12 -7 -18 -18 -18h-89c-12 0 -18 6 -18 18v665z" />
    <glyph glyph-name="Idotaccent" unicode="&#x130;" horiz-adv-x="223" 
d="M112 767c-39 0 -66 29 -66 66c0 38 27 66 66 66c37 0 66 -28 66 -66c0 -35 -29 -66 -66 -66zM49 683c0 11 6 17 18 17h89c11 0 18 -6 18 -17v-665c0 -12 -7 -18 -18 -18h-89c-12 0 -18 6 -18 18v665z" />
    <glyph glyph-name="Igrave" unicode="&#xcc;" horiz-adv-x="223" 
d="M181 769h-50c-9 0 -16 3 -22 10l-77 90c-10 11 -5 22 9 22h70c8 0 16 -3 21 -11l61 -90c8 -11 2 -21 -12 -21zM49 683c0 11 6 17 18 17h89c11 0 18 -6 18 -17v-665c0 -12 -7 -18 -18 -18h-89c-12 0 -18 6 -18 18v665z" />
    <glyph glyph-name="Imacron" unicode="&#x12a;" horiz-adv-x="223" 
d="M19 840c0 11 6 17 18 17h149c11 0 17 -6 17 -17v-38c0 -11 -6 -18 -17 -18h-149c-12 0 -18 7 -18 18v38zM49 683c0 11 6 17 18 17h89c11 0 18 -6 18 -17v-665c0 -12 -7 -18 -18 -18h-89c-12 0 -18 6 -18 18v665z" />
    <glyph glyph-name="Iogonek" unicode="&#x12e;" horiz-adv-x="217" 
d="M174 -119c11 0 17 -5 17 -17v-54c0 -10 -6 -15 -16 -17c-8 -1 -16 -1 -24 -1c-92 0 -140 28 -140 90c0 45 21 85 52 118c-11 0 -17 6 -17 18v665c0 11 6 17 18 17h89c11 0 18 -6 18 -17v-665c0 -12 -7 -18 -17 -18c-23 -25 -37 -57 -37 -82c0 -23 18 -37 48 -37h9z" />
    <glyph glyph-name="J" unicode="J" horiz-adv-x="410" 
d="M187 -12c-110 0 -174 82 -177 208c0 12 5 18 17 18h91c10 0 16 -6 17 -17c2 -59 21 -92 54 -92s52 24 52 69v509c0 12 6 18 17 18h90c12 0 18 -6 18 -18v-498c0 -121 -61 -197 -179 -197z" />
    <glyph glyph-name="K" unicode="K" horiz-adv-x="447" 
d="M67 0c-12 0 -18 6 -18 18v665c0 11 6 17 18 17h89c11 0 18 -6 18 -17v-277h53l57 279c2 11 10 15 20 15h89c13 0 19 -8 16 -19l-74 -312c46 -29 69 -85 69 -152v-199c0 -12 -7 -18 -18 -18h-91c-11 0 -17 6 -17 18v203c0 46 -21 70 -62 70h-42v-273c0 -12 -7 -18 -18 -18
h-89z" />
    <glyph glyph-name="Kcommaaccent" unicode="&#x136;" horiz-adv-x="447" 
d="M67 0c-12 0 -18 6 -18 18v665c0 11 6 17 18 17h89c11 0 18 -6 18 -17v-277h53l57 279c2 11 10 15 20 15h89c13 0 19 -8 16 -19l-74 -312c46 -29 69 -85 69 -152v-199c0 -12 -7 -18 -18 -18h-91c-11 0 -17 6 -17 18v203c0 46 -21 70 -62 70h-42v-273c0 -12 -7 -18 -18 -18
h-89zM172 -70c1 10 7 16 18 16h70c11 0 18 -8 16 -19l-37 -189c-2 -11 -8 -16 -19 -16h-40c-12 0 -18 6 -18 18z" />
    <glyph glyph-name="L" unicode="L" horiz-adv-x="357" 
d="M226 111h103c12 0 18 -6 18 -17v-81c0 -11 -6 -17 -18 -17h-114c-108 0 -171 77 -171 181v506c0 11 6 17 18 17h91c12 0 18 -6 18 -17v-500c0 -47 25 -72 55 -72z" />
    <glyph glyph-name="Lacute" unicode="&#x139;" horiz-adv-x="357" 
d="M61 769c-14 0 -20 10 -12 21l61 90c5 8 13 11 21 11h70c14 0 19 -11 9 -22l-77 -90c-6 -7 -13 -10 -22 -10h-50zM226 111h103c12 0 18 -6 18 -17v-81c0 -11 -6 -17 -18 -17h-114c-108 0 -171 77 -171 181v506c0 11 6 17 18 17h91c12 0 18 -6 18 -17v-500
c0 -47 25 -72 55 -72z" />
    <glyph glyph-name="Lcaron" unicode="&#x13d;" horiz-adv-x="356" 
d="M236 492c-11 0 -18 7 -17 19l9 173c1 11 8 17 18 17h71c11 0 17 -8 16 -19l-31 -174c-1 -10 -8 -16 -18 -16h-48zM213 -4c-108 0 -170 78 -170 181v506c0 11 6 17 17 17h92c11 0 18 -6 18 -17v-499c0 -48 25 -72 55 -72h103c11 0 18 -7 18 -18v-80c0 -11 -7 -18 -18 -18
h-115z" />
    <glyph glyph-name="Lcommaaccent" unicode="&#x13b;" horiz-adv-x="357" 
d="M226 111h103c12 0 18 -6 18 -17v-81c0 -11 -6 -17 -18 -17h-114c-108 0 -171 77 -171 181v506c0 11 6 17 18 17h91c12 0 18 -6 18 -17v-500c0 -47 25 -72 55 -72zM128 -70c1 10 7 16 18 16h70c11 0 18 -8 16 -19l-37 -189c-2 -11 -8 -16 -19 -16h-40c-12 0 -18 6 -18 18z
" />
    <glyph glyph-name="Lslash" unicode="&#x141;" horiz-adv-x="412" 
d="M387 111c12 0 18 -6 18 -17v-81c0 -11 -6 -17 -18 -17h-114c-108 0 -171 77 -171 181v111l-63 -24c-12 -5 -20 1 -20 14v68c0 10 5 17 14 20l69 26v291c0 11 6 17 18 17h91c12 0 18 -6 18 -17v-242l94 36c12 4 20 -1 20 -14v-69c0 -9 -5 -16 -14 -20l-100 -38v-153
c0 -47 25 -72 55 -72h103z" />
    <glyph glyph-name="M" unicode="M" horiz-adv-x="653" 
d="M436 712c105 0 173 -76 173 -191v-503c0 -12 -7 -18 -18 -18h-89c-11 0 -17 6 -17 18v512c0 41 -17 64 -49 64c-30 0 -48 -23 -48 -64v-512c0 -12 -6 -18 -18 -18h-88c-11 0 -17 6 -17 18v512c0 41 -19 64 -49 64c-31 0 -48 -23 -48 -64v-512c0 -12 -6 -18 -18 -18h-88
c-12 0 -18 6 -18 18v503c0 115 68 191 172 191c47 0 82 -18 110 -44c29 26 64 44 110 44z" />
    <glyph glyph-name="N" unicode="N" horiz-adv-x="447" 
d="M62 0c-12 0 -18 6 -18 18v505c0 112 71 189 179 189c109 0 180 -77 180 -189v-505c0 -12 -7 -18 -18 -18h-90c-11 0 -18 6 -18 18v514c0 38 -20 63 -54 63s-54 -25 -54 -63v-514c0 -12 -6 -18 -17 -18h-90z" />
    <glyph glyph-name="Nacute" unicode="&#x143;" horiz-adv-x="447" 
d="M176 769c-14 0 -20 10 -12 21l61 90c5 8 13 11 21 11h70c14 0 19 -11 9 -22l-77 -90c-6 -7 -13 -10 -22 -10h-50zM62 0c-12 0 -18 6 -18 18v505c0 112 71 189 179 189c109 0 180 -77 180 -189v-505c0 -12 -7 -18 -18 -18h-90c-11 0 -18 6 -18 18v514c0 38 -20 63 -54 63
s-54 -25 -54 -63v-514c0 -12 -6 -18 -17 -18h-90z" />
    <glyph glyph-name="Ncaron" unicode="&#x147;" horiz-adv-x="447" 
d="M345 870l-62 -90c-6 -7 -13 -11 -22 -11h-75c-9 0 -17 4 -22 11l-62 90c-9 11 -3 21 11 21h49c8 0 15 -3 21 -10l41 -49l40 49c5 7 12 10 21 10h49c14 0 19 -10 11 -21zM62 0c-12 0 -18 6 -18 18v505c0 112 71 189 179 189c109 0 180 -77 180 -189v-505
c0 -12 -7 -18 -18 -18h-90c-11 0 -18 6 -18 18v514c0 38 -20 63 -54 63s-54 -25 -54 -63v-514c0 -12 -6 -18 -17 -18h-90z" />
    <glyph glyph-name="Ncommaaccent" unicode="&#x145;" horiz-adv-x="447" 
d="M62 0c-12 0 -18 6 -18 18v505c0 112 71 189 179 189c109 0 180 -77 180 -189v-505c0 -12 -7 -18 -18 -18h-90c-11 0 -18 6 -18 18v514c0 38 -20 63 -54 63s-54 -25 -54 -63v-514c0 -12 -6 -18 -17 -18h-90zM172 -70c1 10 7 16 18 16h70c11 0 18 -8 16 -19l-37 -189
c-2 -11 -8 -16 -19 -16h-40c-12 0 -18 6 -18 18z" />
    <glyph glyph-name="Eng" unicode="&#x14a;" horiz-adv-x="447" 
d="M205 -205c-15 0 -21 6 -21 18v77c0 11 8 18 17 18c53 1 76 28 76 76v548c0 38 -20 63 -54 63s-54 -25 -54 -63v-514c0 -12 -6 -18 -17 -18h-90c-12 0 -18 6 -18 18v505c0 112 71 189 179 189c109 0 180 -77 180 -189v-524c0 -129 -70 -203 -198 -204z" />
    <glyph glyph-name="Ntilde" unicode="&#xd1;" horiz-adv-x="447" 
d="M189 795c-7 0 -11 -3 -14 -10c-5 -10 -10 -15 -19 -15h-37c-11 0 -18 7 -17 18c2 26 23 77 79 77c41 0 60 -27 78 -27c7 0 12 4 15 10c3 7 6 16 18 16h37c11 0 18 -5 17 -19c-2 -32 -28 -76 -79 -76c-38 0 -59 26 -78 26zM62 0c-12 0 -18 6 -18 18v505
c0 112 71 189 179 189c109 0 180 -77 180 -189v-505c0 -12 -7 -18 -18 -18h-90c-11 0 -18 6 -18 18v514c0 38 -20 63 -54 63s-54 -25 -54 -63v-514c0 -12 -6 -18 -17 -18h-90z" />
    <glyph glyph-name="O" unicode="O" horiz-adv-x="441" 
d="M221 -11c-109 0 -184 76 -184 191v340c0 115 75 191 184 191s183 -76 183 -188v-346c0 -112 -74 -188 -183 -188zM221 106c35 0 57 24 57 62v364c0 38 -22 63 -57 63s-58 -25 -58 -66v-358c0 -41 23 -65 58 -65z" />
    <glyph glyph-name="Oacute" unicode="&#xd3;" horiz-adv-x="441" 
d="M172 769c-14 0 -20 10 -12 21l61 90c5 8 13 11 21 11h70c14 0 19 -11 9 -22l-77 -90c-6 -7 -13 -10 -22 -10h-50zM221 -11c-109 0 -184 76 -184 191v340c0 115 75 191 184 191s183 -76 183 -188v-346c0 -112 -74 -188 -183 -188zM221 106c35 0 57 24 57 62v364
c0 38 -22 63 -57 63s-58 -25 -58 -66v-358c0 -41 23 -65 58 -65z" />
    <glyph glyph-name="Ocircumflex" unicode="&#xd4;" horiz-adv-x="441" 
d="M341 790c8 -11 3 -21 -11 -21h-49c-9 0 -16 3 -21 10l-40 49l-41 -49c-6 -7 -13 -10 -21 -10h-49c-14 0 -20 10 -11 21l62 90c5 7 13 11 22 11h75c9 0 16 -4 22 -11zM221 -11c-109 0 -184 76 -184 191v340c0 115 75 191 184 191s183 -76 183 -188v-346
c0 -112 -74 -188 -183 -188zM221 106c35 0 57 24 57 62v364c0 38 -22 63 -57 63s-58 -25 -58 -66v-358c0 -41 23 -65 58 -65z" />
    <glyph glyph-name="Odieresis" unicode="&#xd6;" horiz-adv-x="441" 
d="M151 771c-32 0 -52 21 -52 52s20 52 52 52c30 0 51 -21 51 -52s-21 -52 -51 -52zM289 771c-31 0 -52 21 -52 52s21 52 52 52s52 -21 52 -52s-21 -52 -52 -52zM221 -11c-109 0 -184 76 -184 191v340c0 115 75 191 184 191s183 -76 183 -188v-346
c0 -112 -74 -188 -183 -188zM221 106c35 0 57 24 57 62v364c0 38 -22 63 -57 63s-58 -25 -58 -66v-358c0 -41 23 -65 58 -65z" />
    <glyph glyph-name="Ograve" unicode="&#xd2;" horiz-adv-x="441" 
d="M289 769h-50c-9 0 -16 3 -22 10l-77 90c-10 11 -5 22 9 22h70c8 0 16 -3 21 -11l61 -90c8 -11 2 -21 -12 -21zM221 -11c-109 0 -184 76 -184 191v340c0 115 75 191 184 191s183 -76 183 -188v-346c0 -112 -74 -188 -183 -188zM221 106c35 0 57 24 57 62v364
c0 38 -22 63 -57 63s-58 -25 -58 -66v-358c0 -41 23 -65 58 -65z" />
    <glyph glyph-name="Ohungarumlaut" unicode="&#x150;" horiz-adv-x="441" 
d="M104 769c-14 0 -20 10 -11 21l60 90c6 8 13 11 22 11h69c15 0 19 -11 9 -22l-77 -90c-6 -7 -13 -10 -22 -10h-50zM249 769c-14 0 -19 10 -11 21l60 90c6 8 13 11 22 11h69c15 0 19 -11 9 -22l-77 -90c-6 -7 -13 -10 -22 -10h-50zM221 -11c-109 0 -184 76 -184 191v340
c0 115 75 191 184 191s183 -76 183 -188v-346c0 -112 -74 -188 -183 -188zM221 106c35 0 57 24 57 62v364c0 38 -22 63 -57 63s-58 -25 -58 -66v-358c0 -41 23 -65 58 -65z" />
    <glyph glyph-name="Omacron" unicode="&#x14c;" horiz-adv-x="441" 
d="M127 840c0 11 6 17 18 17h149c11 0 17 -6 17 -17v-38c0 -11 -6 -18 -17 -18h-149c-12 0 -18 7 -18 18v38zM221 -11c-109 0 -184 76 -184 191v340c0 115 75 191 184 191s183 -76 183 -188v-346c0 -112 -74 -188 -183 -188zM221 106c35 0 57 24 57 62v364
c0 38 -22 63 -57 63s-58 -25 -58 -66v-358c0 -41 23 -65 58 -65z" />
    <glyph glyph-name="Oslash" unicode="&#xd8;" horiz-adv-x="443" 
d="M344 667c38 -33 60 -83 60 -144v-346c0 -112 -74 -188 -184 -188c-26 0 -51 4 -72 13l-10 -32c-3 -11 -10 -15 -19 -15h-35c-13 0 -19 8 -15 20l19 66c-32 33 -51 81 -51 139v340c0 115 74 191 183 191c23 0 44 -3 64 -10l8 29c3 11 10 15 20 15h35c12 0 18 -8 15 -20z
M278 168v364c0 38 -23 63 -58 63s-57 -25 -57 -66v-358c0 -41 22 -65 57 -65s58 24 58 62z" />
    <glyph glyph-name="Otilde" unicode="&#xd5;" horiz-adv-x="441" 
d="M185 795c-7 0 -11 -3 -14 -10c-5 -10 -10 -15 -19 -15h-37c-11 0 -18 7 -17 18c2 26 23 77 79 77c41 0 60 -27 78 -27c7 0 12 4 15 10c3 7 6 16 18 16h37c11 0 18 -5 17 -19c-2 -32 -28 -76 -79 -76c-38 0 -59 26 -78 26zM221 -11c-109 0 -184 76 -184 191v340
c0 115 75 191 184 191s183 -76 183 -188v-346c0 -112 -74 -188 -183 -188zM221 106c35 0 57 24 57 62v364c0 38 -22 63 -57 63s-58 -25 -58 -66v-358c0 -41 23 -65 58 -65z" />
    <glyph glyph-name="OE" unicode="&#x152;" horiz-adv-x="592" 
d="M216 -11c-106 0 -179 76 -179 188v346c0 112 73 188 179 188c50 0 92 -21 120 -57c28 31 66 51 112 51h105c11 0 17 -7 17 -18v-80c0 -11 -6 -17 -17 -17h-90c-43 0 -70 -31 -70 -78v-103h132c11 0 17 -7 17 -18v-76c0 -11 -6 -18 -17 -18h-132v-109c0 -47 27 -77 70 -77
h90c11 0 17 -6 17 -18v-80c0 -11 -6 -18 -17 -18h-105c-46 0 -84 21 -112 55c-28 -39 -69 -61 -120 -61zM216 106c33 0 53 25 53 64v360c0 39 -20 64 -53 64s-54 -24 -54 -62v-364c0 -38 21 -62 54 -62z" />
    <glyph glyph-name="P" unicode="P" horiz-adv-x="422" 
d="M62 0c-12 0 -18 6 -18 18v504c0 113 70 190 176 190c109 0 182 -77 182 -190v-95c0 -111 -71 -185 -179 -185h-54v-224c0 -12 -6 -18 -17 -18h-90zM169 357h46c40 0 61 22 61 66v108c0 39 -20 63 -54 63c-32 0 -53 -24 -53 -63v-174z" />
    <glyph glyph-name="Thorn" unicode="&#xde;" horiz-adv-x="423" 
d="M67 0c-12 0 -18 6 -18 18v665c0 11 6 17 18 17h90c11 0 17 -6 17 -17v-110h52c105 0 177 -75 177 -183v-76c0 -109 -72 -184 -177 -184h-52v-112c0 -12 -6 -18 -17 -18h-90zM174 245h44c38 0 59 23 59 64v85c0 41 -21 64 -59 64h-44v-213z" />
    <glyph glyph-name="Q" unicode="Q" horiz-adv-x="446" 
d="M416 41c8 -9 8 -17 0 -25l-49 -47c-8 -8 -17 -8 -24 0l-38 38c-25 -12 -53 -18 -85 -18c-109 0 -183 76 -183 188v346c0 112 74 188 183 188c110 0 184 -76 184 -188v-346c0 -38 -9 -72 -24 -100zM163 168c0 -38 22 -62 57 -62s58 24 58 62v364c0 38 -23 63 -58 63
s-57 -25 -57 -63v-364z" />
    <glyph glyph-name="R" unicode="R" horiz-adv-x="450" 
d="M62 0c-12 0 -18 6 -18 18v504c0 113 72 190 178 190c109 0 182 -77 182 -190v-87c0 -71 -28 -125 -74 -157l97 -260c3 -11 -6 -18 -17 -18h-97c-11 0 -14 7 -18 17l-78 229h-47v-228c0 -12 -6 -18 -17 -18h-91zM170 361h46c41 0 62 25 62 70v100c0 39 -21 63 -55 63
c-32 0 -53 -24 -53 -63v-170z" />
    <glyph glyph-name="Racute" unicode="&#x154;" horiz-adv-x="450" 
d="M176 769c-14 0 -20 10 -12 21l61 90c5 8 13 11 21 11h70c14 0 19 -11 9 -22l-77 -90c-6 -7 -13 -10 -22 -10h-50zM62 0c-12 0 -18 6 -18 18v504c0 113 72 190 178 190c109 0 182 -77 182 -190v-87c0 -71 -28 -125 -74 -157l97 -260c3 -11 -6 -18 -17 -18h-97
c-11 0 -14 7 -18 17l-78 229h-47v-228c0 -12 -6 -18 -17 -18h-91zM170 361h46c41 0 62 25 62 70v100c0 39 -21 63 -55 63c-32 0 -53 -24 -53 -63v-170z" />
    <glyph glyph-name="Rcaron" unicode="&#x158;" horiz-adv-x="450" 
d="M345 870l-62 -90c-6 -7 -13 -11 -22 -11h-75c-9 0 -17 4 -22 11l-62 90c-9 11 -3 21 11 21h49c8 0 15 -3 21 -10l41 -49l40 49c5 7 12 10 21 10h49c14 0 19 -10 11 -21zM62 0c-12 0 -18 6 -18 18v504c0 113 72 190 178 190c109 0 182 -77 182 -190v-87
c0 -71 -28 -125 -74 -157l97 -260c3 -11 -6 -18 -17 -18h-97c-11 0 -14 7 -18 17l-78 229h-47v-228c0 -12 -6 -18 -17 -18h-91zM170 361h46c41 0 62 25 62 70v100c0 39 -21 63 -55 63c-32 0 -53 -24 -53 -63v-170z" />
    <glyph glyph-name="Rcommaaccent" unicode="&#x156;" horiz-adv-x="450" 
d="M62 0c-12 0 -18 6 -18 18v504c0 113 72 190 178 190c109 0 182 -77 182 -190v-87c0 -71 -28 -125 -74 -157l97 -260c3 -11 -6 -18 -17 -18h-97c-11 0 -14 7 -18 17l-78 229h-47v-228c0 -12 -6 -18 -17 -18h-91zM170 361h46c41 0 62 25 62 70v100c0 39 -21 63 -55 63
c-32 0 -53 -24 -53 -63v-170zM172 -70c1 10 7 16 18 16h70c11 0 18 -8 16 -19l-37 -189c-2 -11 -8 -16 -19 -16h-40c-12 0 -18 6 -18 18z" />
    <glyph glyph-name="S" unicode="S" horiz-adv-x="411" 
d="M206 -12c-110 0 -178 79 -182 208c0 12 6 18 17 18h90c11 0 17 -6 18 -17c2 -62 22 -92 59 -92c35 0 53 22 53 58c0 138 -231 196 -231 384c0 103 69 165 171 165c105 0 172 -75 176 -199c0 -12 -6 -18 -17 -18h-89c-11 0 -18 6 -18 18c-2 57 -19 83 -50 83
s-49 -16 -49 -49c0 -123 233 -182 233 -384c0 -108 -73 -175 -181 -175z" />
    <glyph glyph-name="Sacute" unicode="&#x15a;" horiz-adv-x="411" 
d="M155 769c-14 0 -20 10 -12 21l61 90c5 8 13 11 21 11h70c14 0 19 -11 9 -22l-77 -90c-6 -7 -13 -10 -22 -10h-50zM206 -12c-110 0 -178 79 -182 208c0 12 6 18 17 18h90c11 0 17 -6 18 -17c2 -62 22 -92 59 -92c35 0 53 22 53 58c0 138 -231 196 -231 384
c0 103 69 165 171 165c105 0 172 -75 176 -199c0 -12 -6 -18 -17 -18h-89c-11 0 -18 6 -18 18c-2 57 -19 83 -50 83s-49 -16 -49 -49c0 -123 233 -182 233 -384c0 -108 -73 -175 -181 -175z" />
    <glyph glyph-name="Scaron" unicode="&#x160;" horiz-adv-x="411" 
d="M324 870l-62 -90c-6 -7 -13 -11 -22 -11h-75c-9 0 -17 4 -22 11l-62 90c-9 11 -3 21 11 21h49c8 0 15 -3 21 -10l41 -49l40 49c5 7 12 10 21 10h49c14 0 19 -10 11 -21zM206 -12c-110 0 -178 79 -182 208c0 12 6 18 17 18h90c11 0 17 -6 18 -17c2 -62 22 -92 59 -92
c35 0 53 22 53 58c0 138 -231 196 -231 384c0 103 69 165 171 165c105 0 172 -75 176 -199c0 -12 -6 -18 -17 -18h-89c-11 0 -18 6 -18 18c-2 57 -19 83 -50 83s-49 -16 -49 -49c0 -123 233 -182 233 -384c0 -108 -73 -175 -181 -175z" />
    <glyph glyph-name="Scedilla" unicode="&#x15e;" horiz-adv-x="411" 
d="M387 163c0 -100 -63 -165 -158 -174l-6 -33h5c40 -3 72 -33 72 -75c0 -57 -43 -90 -99 -90c-49 0 -87 27 -94 75c-3 11 5 18 16 18h27c10 0 13 -5 19 -14c5 -11 18 -17 32 -17c19 0 34 10 34 28c0 16 -14 27 -34 27c-13 0 -24 -1 -35 -3c-4 -1 -8 0 -11 3l-5 4
c-3 3 -4 6 -3 11l14 70c-83 19 -134 93 -137 203c0 12 6 18 17 18h90c11 0 17 -6 18 -17c2 -62 22 -92 59 -92c35 0 53 22 53 58c0 138 -231 196 -231 384c0 103 69 165 171 165c105 0 172 -75 176 -199c0 -12 -6 -18 -17 -18h-89c-11 0 -18 6 -18 18c-2 57 -19 83 -50 83
s-49 -16 -49 -49c0 -123 233 -182 233 -384z" />
    <glyph glyph-name="Scommaaccent" unicode="&#x218;" horiz-adv-x="411" 
d="M206 -12c-110 0 -178 79 -182 208c0 12 6 18 17 18h90c11 0 17 -6 18 -17c2 -62 22 -92 59 -92c35 0 53 22 53 58c0 138 -231 196 -231 384c0 103 69 165 171 165c105 0 172 -75 176 -199c0 -12 -6 -18 -17 -18h-89c-11 0 -18 6 -18 18c-2 57 -19 83 -50 83
s-49 -16 -49 -49c0 -123 233 -182 233 -384c0 -108 -73 -175 -181 -175zM155 -70c1 10 7 16 18 16h70c11 0 18 -8 16 -19l-37 -189c-2 -11 -8 -16 -19 -16h-40c-12 0 -18 6 -18 18z" />
    <glyph glyph-name="T" unicode="T" horiz-adv-x="370" 
d="M342 700c12 0 18 -6 18 -17v-81c0 -11 -6 -17 -18 -17h-95v-567c0 -12 -6 -18 -17 -18h-90c-11 0 -17 6 -17 18v567h-96c-11 0 -17 6 -17 17v81c0 11 6 17 17 17h315z" />
    <glyph glyph-name="Tbar" unicode="&#x166;" horiz-adv-x="373" 
d="M344 700c11 0 17 -6 17 -17v-80c0 -12 -6 -18 -17 -18h-95v-162h60c11 0 17 -6 17 -18v-49c0 -11 -6 -17 -17 -17h-60v-321c0 -12 -7 -18 -18 -18h-89c-12 0 -18 6 -18 18v321h-60c-11 0 -18 6 -18 17v49c0 12 7 18 18 18h60v162h-95c-11 0 -18 6 -18 18v80
c0 11 7 17 18 17h315z" />
    <glyph glyph-name="Tcaron" unicode="&#x164;" horiz-adv-x="370" 
d="M306 870l-62 -90c-6 -7 -13 -11 -22 -11h-75c-9 0 -17 4 -22 11l-62 90c-9 11 -3 21 11 21h49c8 0 15 -3 21 -10l41 -49l40 49c5 7 12 10 21 10h49c14 0 19 -10 11 -21zM342 700c12 0 18 -6 18 -17v-81c0 -11 -6 -17 -18 -17h-95v-567c0 -12 -6 -18 -17 -18h-90
c-11 0 -17 6 -17 18v567h-96c-11 0 -17 6 -17 17v81c0 11 6 17 17 17h315z" />
    <glyph glyph-name="uni0162" unicode="&#x162;" horiz-adv-x="370" 
d="M342 700c12 0 18 -6 18 -17v-81c0 -11 -6 -17 -18 -17h-95v-567c0 -12 -6 -18 -17 -18h-90c-11 0 -17 6 -17 18v567h-96c-11 0 -17 6 -17 17v81c0 11 6 17 17 17h315zM133 -70c1 10 7 16 18 16h70c11 0 18 -8 16 -19l-37 -189c-2 -11 -8 -16 -19 -16h-40
c-12 0 -18 6 -18 18z" />
    <glyph glyph-name="uni021A" unicode="&#x21a;" horiz-adv-x="370" 
d="M342 700c12 0 18 -6 18 -17v-81c0 -11 -6 -17 -18 -17h-95v-567c0 -12 -6 -18 -17 -18h-90c-11 0 -17 6 -17 18v567h-96c-11 0 -17 6 -17 17v81c0 11 6 17 17 17h315zM137 -70c1 10 7 16 18 16h70c11 0 18 -8 16 -19l-37 -189c-2 -11 -8 -16 -19 -16h-40
c-12 0 -18 6 -18 18z" />
    <glyph glyph-name="U" unicode="U" horiz-adv-x="447" 
d="M62 700h90c11 0 17 -6 17 -18v-514c0 -38 20 -63 54 -63s54 25 54 63v514c0 12 7 18 18 18h90c11 0 18 -6 18 -18v-505c0 -112 -71 -189 -180 -189c-108 0 -179 77 -179 189v505c0 12 6 18 18 18z" />
    <glyph glyph-name="Uacute" unicode="&#xda;" horiz-adv-x="447" 
d="M174 769c-14 0 -20 10 -12 21l61 90c5 8 13 11 21 11h70c14 0 19 -11 9 -22l-77 -90c-6 -7 -13 -10 -22 -10h-50zM62 700h90c11 0 17 -6 17 -18v-514c0 -38 20 -63 54 -63s54 25 54 63v514c0 12 7 18 18 18h90c11 0 18 -6 18 -18v-505c0 -112 -71 -189 -180 -189
c-108 0 -179 77 -179 189v505c0 12 6 18 18 18z" />
    <glyph glyph-name="Ucircumflex" unicode="&#xdb;" horiz-adv-x="447" 
d="M343 790c8 -11 3 -21 -11 -21h-49c-9 0 -16 3 -21 10l-40 49l-41 -49c-6 -7 -13 -10 -21 -10h-49c-14 0 -20 10 -11 21l62 90c5 7 13 11 22 11h75c9 0 16 -4 22 -11zM62 700h90c11 0 17 -6 17 -18v-514c0 -38 20 -63 54 -63s54 25 54 63v514c0 12 7 18 18 18h90
c11 0 18 -6 18 -18v-505c0 -112 -71 -189 -180 -189c-108 0 -179 77 -179 189v505c0 12 6 18 18 18z" />
    <glyph glyph-name="Udieresis" unicode="&#xdc;" horiz-adv-x="447" 
d="M153 771c-32 0 -52 21 -52 52s20 52 52 52c30 0 51 -21 51 -52s-21 -52 -51 -52zM291 771c-31 0 -52 21 -52 52s21 52 52 52s52 -21 52 -52s-21 -52 -52 -52zM62 700h90c11 0 17 -6 17 -18v-514c0 -38 20 -63 54 -63s54 25 54 63v514c0 12 7 18 18 18h90
c11 0 18 -6 18 -18v-505c0 -112 -71 -189 -180 -189c-108 0 -179 77 -179 189v505c0 12 6 18 18 18z" />
    <glyph glyph-name="Ugrave" unicode="&#xd9;" horiz-adv-x="447" 
d="M291 769h-50c-9 0 -16 3 -22 10l-77 90c-10 11 -5 22 9 22h70c8 0 16 -3 21 -11l61 -90c8 -11 2 -21 -12 -21zM62 700h90c11 0 17 -6 17 -18v-514c0 -38 20 -63 54 -63s54 25 54 63v514c0 12 7 18 18 18h90c11 0 18 -6 18 -18v-505c0 -112 -71 -189 -180 -189
c-108 0 -179 77 -179 189v505c0 12 6 18 18 18z" />
    <glyph glyph-name="Uhungarumlaut" unicode="&#x170;" horiz-adv-x="447" 
d="M106 769c-14 0 -20 10 -11 21l60 90c6 8 13 11 22 11h69c15 0 19 -11 9 -22l-77 -90c-6 -7 -13 -10 -22 -10h-50zM251 769c-14 0 -19 10 -11 21l60 90c6 8 13 11 22 11h69c15 0 19 -11 9 -22l-77 -90c-6 -7 -13 -10 -22 -10h-50zM62 700h90c11 0 17 -6 17 -18v-514
c0 -38 20 -63 54 -63s54 25 54 63v514c0 12 7 18 18 18h90c11 0 18 -6 18 -18v-505c0 -112 -71 -189 -180 -189c-108 0 -179 77 -179 189v505c0 12 6 18 18 18z" />
    <glyph glyph-name="Umacron" unicode="&#x16a;" horiz-adv-x="447" 
d="M129 840c0 11 6 17 18 17h149c11 0 17 -6 17 -17v-38c0 -11 -6 -18 -17 -18h-149c-12 0 -18 7 -18 18v38zM62 700h90c11 0 17 -6 17 -18v-514c0 -38 20 -63 54 -63s54 25 54 63v514c0 12 7 18 18 18h90c11 0 18 -6 18 -18v-505c0 -112 -71 -189 -180 -189
c-108 0 -179 77 -179 189v505c0 12 6 18 18 18z" />
    <glyph glyph-name="Uogonek" unicode="&#x172;" horiz-adv-x="445" 
d="M276 683c0 11 6 17 17 17h91c11 0 17 -6 17 -17v-508c0 -72 -32 -113 -67 -152c-30 -33 -53 -69 -53 -102c0 -27 17 -43 53 -40c12 1 18 -5 18 -17v-54c0 -11 -6 -17 -17 -18c-109 -8 -160 19 -160 89c0 39 17 77 42 108c-2 0 -6 -1 -9 -1c-99 7 -164 82 -164 187v508
c0 11 6 17 18 17h90c11 0 17 -6 17 -17v-517c0 -36 21 -61 54 -61s53 25 53 61v517z" />
    <glyph glyph-name="Uring" unicode="&#x16e;" horiz-adv-x="447" 
d="M141 830c0 47 32 78 81 78s82 -31 82 -78c0 -48 -33 -80 -82 -80s-81 32 -81 80zM198 829c0 -15 9 -24 24 -24s25 9 25 24s-10 25 -25 25s-24 -10 -24 -25zM62 700h90c11 0 17 -6 17 -18v-514c0 -38 20 -63 54 -63s54 25 54 63v514c0 12 7 18 18 18h90c11 0 18 -6 18 -18
v-505c0 -112 -71 -189 -180 -189c-108 0 -179 77 -179 189v505c0 12 6 18 18 18z" />
    <glyph glyph-name="V" unicode="V" horiz-adv-x="413" 
d="M393 700c12 0 18 -6 16 -18l-109 -638c-5 -32 -24 -49 -56 -49h-75c-32 0 -51 18 -56 49l-109 638c-2 12 4 18 15 18h94c10 0 17 -5 18 -16l76 -532l75 532c1 11 8 16 18 16h93z" />
    <glyph glyph-name="W" unicode="W" horiz-adv-x="653" 
d="M591 700c11 0 18 -6 18 -17v-504c0 -115 -68 -191 -173 -191c-47 0 -82 18 -110 45c-28 -27 -63 -45 -110 -45c-104 0 -172 76 -172 191v504c0 11 6 17 18 17h88c12 0 18 -6 18 -17v-513c0 -41 17 -64 48 -64c30 0 49 23 49 64v513c0 11 6 17 17 17h88c12 0 18 -6 18 -17
v-513c0 -41 19 -64 48 -64c32 0 49 23 49 64v513c0 11 6 17 17 17h89z" />
    <glyph glyph-name="Wacute" unicode="&#x1e82;" horiz-adv-x="653" 
d="M278 769c-14 0 -20 10 -12 21l61 90c5 8 13 11 21 11h70c14 0 19 -11 9 -22l-77 -90c-6 -7 -13 -10 -22 -10h-50zM591 700c11 0 18 -6 18 -17v-504c0 -115 -68 -191 -173 -191c-47 0 -82 18 -110 45c-28 -27 -63 -45 -110 -45c-104 0 -172 76 -172 191v504
c0 11 6 17 18 17h88c12 0 18 -6 18 -17v-513c0 -41 17 -64 48 -64c30 0 49 23 49 64v513c0 11 6 17 17 17h88c12 0 18 -6 18 -17v-513c0 -41 19 -64 48 -64c32 0 49 23 49 64v513c0 11 6 17 17 17h89z" />
    <glyph glyph-name="Wcircumflex" unicode="&#x174;" horiz-adv-x="653" 
d="M215 769c-14 0 -20 10 -11 21l62 90c5 7 13 11 22 11h75c9 0 16 -4 22 -11l62 -90c8 -11 3 -21 -11 -21h-49c-9 0 -16 3 -21 10l-40 49l-41 -49c-6 -7 -13 -10 -21 -10h-49zM591 700c11 0 18 -6 18 -17v-504c0 -115 -68 -191 -173 -191c-47 0 -82 18 -110 45
c-28 -27 -63 -45 -110 -45c-104 0 -172 76 -172 191v504c0 11 6 17 18 17h88c12 0 18 -6 18 -17v-513c0 -41 17 -64 48 -64c30 0 49 23 49 64v513c0 11 6 17 17 17h88c12 0 18 -6 18 -17v-513c0 -41 19 -64 48 -64c32 0 49 23 49 64v513c0 11 6 17 17 17h89z" />
    <glyph glyph-name="Wdieresis" unicode="&#x1e84;" horiz-adv-x="653" 
d="M257 771c-32 0 -52 21 -52 52s20 52 52 52c30 0 51 -21 51 -52s-21 -52 -51 -52zM395 771c-31 0 -52 21 -52 52s21 52 52 52s52 -21 52 -52s-21 -52 -52 -52zM591 700c11 0 18 -6 18 -17v-504c0 -115 -68 -191 -173 -191c-47 0 -82 18 -110 45c-28 -27 -63 -45 -110 -45
c-104 0 -172 76 -172 191v504c0 11 6 17 18 17h88c12 0 18 -6 18 -17v-513c0 -41 17 -64 48 -64c30 0 49 23 49 64v513c0 11 6 17 17 17h88c12 0 18 -6 18 -17v-513c0 -41 19 -64 48 -64c32 0 49 23 49 64v513c0 11 6 17 17 17h89z" />
    <glyph glyph-name="Wgrave" unicode="&#x1e80;" horiz-adv-x="653" 
d="M323 779l-77 90c-10 11 -5 22 9 22h70c8 0 16 -3 21 -11l61 -90c8 -11 2 -21 -12 -21h-50c-9 0 -16 3 -22 10zM591 700c11 0 18 -6 18 -17v-504c0 -115 -68 -191 -173 -191c-47 0 -82 18 -110 45c-28 -27 -63 -45 -110 -45c-104 0 -172 76 -172 191v504c0 11 6 17 18 17
h88c12 0 18 -6 18 -17v-513c0 -41 17 -64 48 -64c30 0 49 23 49 64v513c0 11 6 17 17 17h88c12 0 18 -6 18 -17v-513c0 -41 19 -64 48 -64c32 0 49 23 49 64v513c0 11 6 17 17 17h89z" />
    <glyph glyph-name="X" unicode="X" horiz-adv-x="429" 
d="M392 484c0 -54 -20 -98 -57 -130c37 -32 57 -76 57 -129v-207c0 -12 -7 -18 -18 -18h-90c-11 0 -18 6 -18 18v216c0 37 -20 62 -52 62c-31 0 -52 -25 -52 -62v-216c0 -12 -6 -18 -17 -18h-90c-12 0 -18 6 -18 18v207c0 53 20 97 57 129c-37 32 -57 76 -57 130v199
c0 11 6 17 18 17h90c11 0 17 -6 17 -17v-208c0 -37 21 -62 52 -62c32 0 52 25 52 62v208c0 11 7 17 18 17h90c11 0 18 -6 18 -17v-199z" />
    <glyph glyph-name="Y" unicode="Y" horiz-adv-x="419" 
d="M165 0c-12 0 -18 6 -18 18v212c-70 23 -115 89 -115 177v276c0 11 6 17 18 17h89c11 0 18 -6 18 -17v-285c0 -37 20 -61 52 -61c33 0 53 24 53 61v285c0 11 6 17 18 17h89c11 0 18 -6 18 -17v-276c0 -88 -45 -154 -115 -177v-212c0 -12 -7 -18 -18 -18h-89z" />
    <glyph glyph-name="Yacute" unicode="&#xdd;" horiz-adv-x="419" 
d="M161 769c-14 0 -20 10 -12 21l61 90c5 8 13 11 21 11h70c14 0 19 -11 9 -22l-77 -90c-6 -7 -13 -10 -22 -10h-50zM165 0c-12 0 -18 6 -18 18v212c-70 23 -115 89 -115 177v276c0 11 6 17 18 17h89c11 0 18 -6 18 -17v-285c0 -37 20 -61 52 -61c33 0 53 24 53 61v285
c0 11 6 17 18 17h89c11 0 18 -6 18 -17v-276c0 -88 -45 -154 -115 -177v-212c0 -12 -7 -18 -18 -18h-89z" />
    <glyph glyph-name="Ycircumflex" unicode="&#x176;" horiz-adv-x="419" 
d="M330 790c8 -11 3 -21 -11 -21h-49c-9 0 -16 3 -21 10l-40 49l-41 -49c-6 -7 -13 -10 -21 -10h-49c-14 0 -20 10 -11 21l62 90c5 7 13 11 22 11h75c9 0 16 -4 22 -11zM165 0c-12 0 -18 6 -18 18v212c-70 23 -115 89 -115 177v276c0 11 6 17 18 17h89c11 0 18 -6 18 -17
v-285c0 -37 20 -61 52 -61c33 0 53 24 53 61v285c0 11 6 17 18 17h89c11 0 18 -6 18 -17v-276c0 -88 -45 -154 -115 -177v-212c0 -12 -7 -18 -18 -18h-89z" />
    <glyph glyph-name="Ydieresis" unicode="&#x178;" horiz-adv-x="419" 
d="M140 771c-32 0 -52 21 -52 52s20 52 52 52c30 0 51 -21 51 -52s-21 -52 -51 -52zM278 771c-31 0 -52 21 -52 52s21 52 52 52s52 -21 52 -52s-21 -52 -52 -52zM165 0c-12 0 -18 6 -18 18v212c-70 23 -115 89 -115 177v276c0 11 6 17 18 17h89c11 0 18 -6 18 -17v-285
c0 -37 20 -61 52 -61c33 0 53 24 53 61v285c0 11 6 17 18 17h89c11 0 18 -6 18 -17v-276c0 -88 -45 -154 -115 -177v-212c0 -12 -7 -18 -18 -18h-89z" />
    <glyph glyph-name="Ygrave" unicode="&#x1ef2;" horiz-adv-x="419" 
d="M278 769h-50c-9 0 -16 3 -22 10l-77 90c-10 11 -5 22 9 22h70c8 0 16 -3 21 -11l61 -90c8 -11 2 -21 -12 -21zM165 0c-12 0 -18 6 -18 18v212c-70 23 -115 89 -115 177v276c0 11 6 17 18 17h89c11 0 18 -6 18 -17v-285c0 -37 20 -61 52 -61c33 0 53 24 53 61v285
c0 11 6 17 18 17h89c11 0 18 -6 18 -17v-276c0 -88 -45 -154 -115 -177v-212c0 -12 -7 -18 -18 -18h-89z" />
    <glyph glyph-name="Z" unicode="Z" horiz-adv-x="405" 
d="M156 115h208c11 0 17 -6 17 -17v-80c0 -12 -6 -18 -17 -18h-280c-38 0 -59 21 -59 59v17c0 30 3 50 14 73l206 436h-181c-11 0 -17 6 -17 17v81c0 11 6 17 17 17h252c37 0 59 -17 60 -55v-19c0 -29 0 -49 -12 -73z" />
    <glyph glyph-name="Zacute" unicode="&#x179;" horiz-adv-x="405" 
d="M156 769c-14 0 -20 10 -12 21l61 90c5 8 13 11 21 11h70c14 0 19 -11 9 -22l-77 -90c-6 -7 -13 -10 -22 -10h-50zM156 115h208c11 0 17 -6 17 -17v-80c0 -12 -6 -18 -17 -18h-280c-38 0 -59 21 -59 59v17c0 30 3 50 14 73l206 436h-181c-11 0 -17 6 -17 17v81
c0 11 6 17 17 17h252c37 0 59 -17 60 -55v-19c0 -29 0 -49 -12 -73z" />
    <glyph glyph-name="Zcaron" unicode="&#x17d;" horiz-adv-x="405" 
d="M325 870l-62 -90c-6 -7 -13 -11 -22 -11h-75c-9 0 -17 4 -22 11l-62 90c-9 11 -3 21 11 21h49c8 0 15 -3 21 -10l41 -49l40 49c5 7 12 10 21 10h49c14 0 19 -10 11 -21zM156 115h208c11 0 17 -6 17 -17v-80c0 -12 -6 -18 -17 -18h-280c-38 0 -59 21 -59 59v17
c0 30 3 50 14 73l206 436h-181c-11 0 -17 6 -17 17v81c0 11 6 17 17 17h252c37 0 59 -17 60 -55v-19c0 -29 0 -49 -12 -73z" />
    <glyph glyph-name="Zdotaccent" unicode="&#x17b;" horiz-adv-x="405" 
d="M204 760c-39 0 -66 29 -66 66c0 38 27 66 66 66c37 0 66 -28 66 -66c0 -35 -29 -66 -66 -66zM156 115h208c11 0 17 -6 17 -17v-80c0 -12 -6 -18 -17 -18h-280c-38 0 -59 21 -59 59v17c0 30 3 50 14 73l206 436h-181c-11 0 -17 6 -17 17v81c0 11 6 17 17 17h252
c37 0 59 -17 60 -55v-19c0 -29 0 -49 -12 -73z" />
    <glyph glyph-name="uni0162.ss01" horiz-adv-x="373" 
d="M344 700c11 0 17 -6 17 -17v-81c0 -11 -6 -17 -17 -17h-95v-567c0 -12 -6 -18 -17 -18h-11l-8 -44h6c39 -3 71 -33 71 -75c0 -57 -42 -90 -99 -90c-48 0 -87 27 -94 75c-2 11 6 18 17 18h26c10 0 14 -5 19 -14c6 -11 18 -17 32 -17c20 0 35 10 35 28c0 16 -15 27 -34 27
c-13 0 -24 -1 -35 -3c-5 -1 -8 0 -12 3l-4 4c-4 3 -5 6 -4 11l16 77h-12c-11 0 -17 6 -17 18v567h-95c-11 0 -18 6 -18 17v81c0 11 7 17 18 17h315z" />
    <glyph glyph-name="a" unicode="a" horiz-adv-x="390" 
d="M197 -11c-103 0 -171 68 -171 167c0 88 66 151 163 151h50v43c0 30 -16 50 -45 50c-30 0 -43 -19 -44 -44c-1 -10 -7 -13 -18 -13h-82c-11 0 -17 7 -17 18c8 90 70 151 162 151c98 0 162 -69 162 -169v-192c0 -97 -59 -162 -160 -162zM195 101c29 0 44 19 44 49v54h-43
c-33 0 -51 -19 -51 -48c0 -34 18 -55 50 -55z" />
    <glyph glyph-name="aacute" unicode="&#xe1;" horiz-adv-x="390" 
d="M275 681c15 0 18 -10 10 -21l-72 -91c-5 -8 -12 -11 -21 -11h-51c-14 0 -19 9 -11 21l54 90c5 7 12 12 21 12h70zM197 -11c-103 0 -171 68 -171 167c0 88 66 151 163 151h50v43c0 30 -16 50 -45 50c-30 0 -43 -19 -44 -44c-1 -10 -7 -13 -18 -13h-82c-11 0 -17 7 -17 18
c8 90 70 151 162 151c98 0 162 -69 162 -169v-192c0 -97 -59 -162 -160 -162zM195 101c29 0 44 19 44 49v54h-43c-33 0 -51 -19 -51 -48c0 -34 18 -55 50 -55z" />
    <glyph glyph-name="abreve" unicode="&#x103;" horiz-adv-x="390" 
d="M194 560c-67 0 -113 40 -121 103c-1 12 6 18 17 18h46c11 0 15 -5 19 -16c5 -15 18 -25 39 -25c20 0 33 10 39 25c4 11 8 16 18 16h46c11 0 18 -7 17 -18c-8 -63 -53 -103 -120 -103zM197 -11c-103 0 -171 68 -171 167c0 88 66 151 163 151h50v43c0 30 -16 50 -45 50
c-30 0 -43 -19 -44 -44c-1 -10 -7 -13 -18 -13h-82c-11 0 -17 7 -17 18c8 90 70 151 162 151c98 0 162 -69 162 -169v-192c0 -97 -59 -162 -160 -162zM195 101c29 0 44 19 44 49v54h-43c-33 0 -51 -19 -51 -48c0 -34 18 -55 50 -55z" />
    <glyph glyph-name="acircumflex" unicode="&#xe2;" horiz-adv-x="390" 
d="M87 559c-14 0 -19 10 -12 21l60 91c6 8 13 11 21 11h74c9 0 16 -3 21 -11l60 -91c7 -11 2 -21 -12 -21h-48c-9 0 -16 3 -22 11l-35 47l-37 -47c-5 -8 -12 -11 -21 -11h-49zM197 -11c-103 0 -171 68 -171 167c0 88 66 151 163 151h50v43c0 30 -16 50 -45 50
c-30 0 -43 -19 -44 -44c-1 -10 -7 -13 -18 -13h-82c-11 0 -17 7 -17 18c8 90 70 151 162 151c98 0 162 -69 162 -169v-192c0 -97 -59 -162 -160 -162zM195 101c29 0 44 19 44 49v54h-43c-33 0 -51 -19 -51 -48c0 -34 18 -55 50 -55z" />
    <glyph glyph-name="adieresis" unicode="&#xe4;" horiz-adv-x="390" 
d="M125 568c-32 0 -52 21 -52 52s20 52 52 52c30 0 51 -21 51 -52s-21 -52 -51 -52zM263 568c-31 0 -52 21 -52 52s21 52 52 52s52 -21 52 -52s-21 -52 -52 -52zM197 -11c-103 0 -171 68 -171 167c0 88 66 151 163 151h50v43c0 30 -16 50 -45 50c-30 0 -43 -19 -44 -44
c-1 -10 -7 -13 -18 -13h-82c-11 0 -17 7 -17 18c8 90 70 151 162 151c98 0 162 -69 162 -169v-192c0 -97 -59 -162 -160 -162zM195 101c29 0 44 19 44 49v54h-43c-33 0 -51 -19 -51 -48c0 -34 18 -55 50 -55z" />
    <glyph glyph-name="agrave" unicode="&#xe0;" horiz-adv-x="390" 
d="M95 682h70c9 0 16 -5 21 -12l54 -90c8 -12 3 -21 -11 -21h-51c-9 0 -16 3 -21 11l-72 91c-8 11 -5 21 10 21zM197 -11c-103 0 -171 68 -171 167c0 88 66 151 163 151h50v43c0 30 -16 50 -45 50c-30 0 -43 -19 -44 -44c-1 -10 -7 -13 -18 -13h-82c-11 0 -17 7 -17 18
c8 90 70 151 162 151c98 0 162 -69 162 -169v-192c0 -97 -59 -162 -160 -162zM195 101c29 0 44 19 44 49v54h-43c-33 0 -51 -19 -51 -48c0 -34 18 -55 50 -55z" />
    <glyph glyph-name="amacron" unicode="&#x101;" horiz-adv-x="390" 
d="M101 638c0 11 6 17 18 17h149c11 0 17 -6 17 -17v-38c0 -11 -6 -18 -17 -18h-149c-12 0 -18 7 -18 18v38zM197 -11c-103 0 -171 68 -171 167c0 88 66 151 163 151h50v43c0 30 -16 50 -45 50c-30 0 -43 -19 -44 -44c-1 -10 -7 -13 -18 -13h-82c-11 0 -17 7 -17 18
c8 90 70 151 162 151c98 0 162 -69 162 -169v-192c0 -97 -59 -162 -160 -162zM195 101c29 0 44 19 44 49v54h-43c-33 0 -51 -19 -51 -48c0 -34 18 -55 50 -55z" />
    <glyph glyph-name="aogonek" unicode="&#x105;" horiz-adv-x="391" 
d="M315 -208c-87 -8 -160 13 -160 89c0 40 18 77 43 108c-6 -1 -9 -1 -14 -1c-95 6 -158 73 -158 168c0 88 68 151 164 151h50v43c0 30 -18 50 -45 50c-30 0 -44 -17 -46 -40c-1 -11 -6 -13 -18 -13h-82c-11 0 -17 6 -16 18c7 88 72 147 163 147c96 0 162 -69 162 -169v-200
c0 -50 -16 -88 -44 -117c-31 -34 -52 -76 -52 -105c0 -24 17 -40 52 -40c12 0 18 -5 18 -17v-54c0 -11 -6 -17 -17 -18zM194 101c30 0 46 16 46 41v62h-45c-30 0 -50 -19 -50 -48c0 -34 18 -55 49 -55z" />
    <glyph glyph-name="aring" unicode="&#xe5;" horiz-adv-x="390" 
d="M113 625c0 47 32 78 81 78s82 -31 82 -78c0 -48 -33 -80 -82 -80s-81 32 -81 80zM170 624c0 -15 9 -24 24 -24s25 9 25 24s-10 25 -25 25s-24 -10 -24 -25zM197 -11c-103 0 -171 68 -171 167c0 88 66 151 163 151h50v43c0 30 -16 50 -45 50c-30 0 -43 -19 -44 -44
c-1 -10 -7 -13 -18 -13h-82c-11 0 -17 7 -17 18c8 90 70 151 162 151c98 0 162 -69 162 -169v-192c0 -97 -59 -162 -160 -162zM195 101c29 0 44 19 44 49v54h-43c-33 0 -51 -19 -51 -48c0 -34 18 -55 50 -55z" />
    <glyph glyph-name="atilde" unicode="&#xe3;" horiz-adv-x="390" 
d="M158 595c-7 0 -11 -3 -14 -10c-5 -10 -10 -15 -19 -15h-37c-11 0 -18 7 -17 18c2 26 23 77 79 77c41 0 60 -27 78 -27c7 0 12 4 15 10c3 7 6 16 18 16h37c11 0 18 -5 17 -19c-2 -32 -28 -76 -79 -76c-38 0 -59 26 -78 26zM197 -11c-103 0 -171 68 -171 167
c0 88 66 151 163 151h50v43c0 30 -16 50 -45 50c-30 0 -43 -19 -44 -44c-1 -10 -7 -13 -18 -13h-82c-11 0 -17 7 -17 18c8 90 70 151 162 151c98 0 162 -69 162 -169v-192c0 -97 -59 -162 -160 -162zM195 101c29 0 44 19 44 49v54h-43c-33 0 -51 -19 -51 -48
c0 -34 18 -55 50 -55z" />
    <glyph glyph-name="ae" unicode="&#xe6;" horiz-adv-x="592" 
d="M195 -12c-102 0 -169 68 -169 165c0 89 68 152 165 152h46v45c0 30 -17 50 -44 50c-29 0 -43 -17 -45 -40c0 -11 -6 -13 -17 -13h-82c-11 0 -18 6 -17 18c7 88 72 147 163 147c41 0 76 -17 101 -44c27 27 62 44 105 44c96 1 165 -64 165 -161c0 -91 -66 -154 -165 -154
h-46v-46c0 -31 17 -51 45 -51c25 0 39 14 43 40c3 11 8 16 18 16h84c11 0 17 -6 17 -17c-7 -91 -70 -151 -163 -151c-42 0 -75 17 -100 42c-26 -25 -61 -42 -104 -42zM355 301h46c31 0 47 18 47 47c0 35 -17 52 -47 52c-28 0 -46 -20 -46 -50v-49zM192 101c29 0 45 19 45 49
v52h-42c-31 0 -50 -20 -50 -49c0 -32 18 -52 47 -52z" />
    <glyph glyph-name="b" unicode="b" horiz-adv-x="403" 
d="M225 512c89 0 145 -69 145 -169v-185c0 -101 -66 -170 -166 -170c-99 0 -165 69 -165 170v525c0 11 6 17 17 17h83c11 0 17 -6 17 -17v-194c17 15 39 23 69 23zM252 151v198c0 31 -18 51 -48 51s-48 -20 -48 -51v-198c0 -31 18 -51 48 -51s48 20 48 51z" />
    <glyph glyph-name="c" unicode="c" horiz-adv-x="387" 
d="M199 -12c-99 0 -166 69 -166 170v185c0 100 66 169 164 169c93 0 157 -62 164 -159c1 -12 -6 -18 -17 -18h-85c-10 0 -16 6 -17 18c-4 32 -20 47 -45 47c-28 0 -45 -20 -45 -51v-198c0 -31 17 -51 46 -51c26 0 43 17 47 52c1 12 7 18 17 18h85c12 0 18 -7 17 -20
c-7 -99 -71 -162 -165 -162z" />
    <glyph glyph-name="cacute" unicode="&#x107;" horiz-adv-x="387" 
d="M278 681c15 0 18 -10 10 -21l-72 -91c-5 -8 -12 -11 -21 -11h-51c-14 0 -19 9 -11 21l54 90c5 7 12 12 21 12h70zM199 -12c-99 0 -166 69 -166 170v185c0 100 66 169 164 169c93 0 157 -62 164 -159c1 -12 -6 -18 -17 -18h-85c-10 0 -16 6 -17 18c-4 32 -20 47 -45 47
c-28 0 -45 -20 -45 -51v-198c0 -31 17 -51 46 -51c26 0 43 17 47 52c1 12 7 18 17 18h85c12 0 18 -7 17 -20c-7 -99 -71 -162 -165 -162z" />
    <glyph glyph-name="ccaron" unicode="&#x10d;" horiz-adv-x="387" 
d="M90 682h49c9 0 16 -3 21 -11l37 -47l35 47c6 8 13 11 22 11h48c14 0 19 -10 12 -21l-60 -91c-5 -8 -12 -11 -21 -11h-74c-8 0 -15 3 -21 11l-60 91c-7 11 -2 21 12 21zM199 -12c-99 0 -166 69 -166 170v185c0 100 66 169 164 169c93 0 157 -62 164 -159
c1 -12 -6 -18 -17 -18h-85c-10 0 -16 6 -17 18c-4 32 -20 47 -45 47c-28 0 -45 -20 -45 -51v-198c0 -31 17 -51 46 -51c26 0 43 17 47 52c1 12 7 18 17 18h85c12 0 18 -7 17 -20c-7 -99 -71 -162 -165 -162z" />
    <glyph glyph-name="ccedilla" unicode="&#xe7;" horiz-adv-x="387" 
d="M347 170c12 0 18 -7 17 -20c-6 -89 -59 -149 -138 -160l-6 -34h5c40 -3 72 -33 72 -75c0 -57 -43 -90 -99 -90c-49 0 -87 27 -94 75c-3 11 5 18 16 18h27c10 0 13 -5 19 -14c5 -11 18 -17 32 -17c19 0 34 10 34 28c0 16 -14 27 -34 27c-13 0 -24 -1 -35 -3
c-4 -1 -8 0 -11 3l-5 4c-3 3 -4 6 -3 11l14 69c-76 17 -125 80 -125 166v185c0 100 66 169 164 169c93 0 157 -62 164 -159c1 -12 -6 -18 -17 -18h-85c-10 0 -16 6 -17 18c-4 32 -20 47 -45 47c-28 0 -45 -20 -45 -51v-198c0 -31 17 -51 46 -51c26 0 43 17 47 52
c1 12 7 18 17 18h85z" />
    <glyph glyph-name="cdotaccent" unicode="&#x10b;" horiz-adv-x="387" 
d="M197 560c-39 0 -66 29 -66 66c0 38 27 66 66 66c37 0 66 -28 66 -66c0 -35 -29 -66 -66 -66zM199 -12c-99 0 -166 69 -166 170v185c0 100 66 169 164 169c93 0 157 -62 164 -159c1 -12 -6 -18 -17 -18h-85c-10 0 -16 6 -17 18c-4 32 -20 47 -45 47c-28 0 -45 -20 -45 -51
v-198c0 -31 17 -51 46 -51c26 0 43 17 47 52c1 12 7 18 17 18h85c12 0 18 -7 17 -20c-7 -99 -71 -162 -165 -162z" />
    <glyph glyph-name="d" unicode="d" horiz-adv-x="403" 
d="M347 700c11 0 17 -6 17 -17v-525c0 -101 -66 -170 -165 -170c-100 0 -166 69 -166 170v185c0 100 56 169 145 169c30 0 52 -8 69 -23v194c0 11 6 17 17 17h83zM247 151v198c0 31 -18 51 -48 51s-48 -20 -48 -51v-198c0 -31 18 -51 48 -51s48 20 48 51z" />
    <glyph glyph-name="eth" unicode="&#xf0;" horiz-adv-x="409" 
d="M332 623c21 -34 33 -77 33 -129v-336c0 -101 -66 -170 -166 -170s-166 69 -166 170v177c0 101 57 169 145 169c30 0 52 -8 69 -23v24c0 24 -5 44 -15 60l-76 -44c-9 -6 -14 4 -14 13v25c0 8 5 12 13 17l39 23c-14 6 -29 9 -47 9h-27c-11 0 -18 6 -18 17v69
c0 11 7 17 18 17h30c62 0 113 -17 150 -50l47 28c9 5 14 -5 14 -13v-25c0 -8 -5 -13 -13 -18zM247 152v190c0 31 -18 51 -48 51s-48 -20 -48 -51v-190c0 -32 18 -52 48 -52s48 20 48 52z" />
    <glyph glyph-name="dcaron" unicode="&#x10f;" horiz-adv-x="524" 
d="M497 705c11 0 18 -8 16 -19l-37 -189c-2 -11 -8 -16 -19 -16h-40c-12 0 -18 6 -18 18l10 190c1 10 7 16 18 16h70zM347 700c11 0 17 -6 17 -17v-525c0 -101 -66 -170 -165 -170c-100 0 -166 69 -166 170v185c0 100 56 169 145 169c30 0 52 -8 69 -23v194c0 11 6 17 17 17
h83zM247 151v198c0 31 -18 51 -48 51s-48 -20 -48 -51v-198c0 -31 18 -51 48 -51s48 20 48 51z" />
    <glyph glyph-name="dcroat" unicode="&#x111;" horiz-adv-x="422" 
d="M403 640c10 0 17 -7 17 -17v-26c0 -10 -7 -18 -17 -18h-39v-421c0 -101 -66 -170 -165 -170c-100 0 -166 69 -166 170v185c0 100 56 169 145 169c30 0 52 -8 69 -23v90h-73c-10 0 -17 8 -17 18v26c0 10 7 17 17 17h73v43c0 11 6 17 17 17h83c11 0 17 -6 17 -17v-43h39z
M247 151v198c0 31 -18 51 -48 51s-48 -20 -48 -51v-198c0 -31 18 -51 48 -51s48 20 48 51z" />
    <glyph glyph-name="e" unicode="e" horiz-adv-x="391" 
d="M196 -11c-97 0 -163 67 -163 169v189c2 98 67 164 166 164c96 2 166 -65 166 -163c0 -92 -66 -155 -164 -155h-49v-42c0 -31 16 -51 45 -51c25 0 41 16 45 42c2 12 8 17 18 17h84c11 0 17 -6 17 -18c-7 -91 -72 -152 -165 -152zM152 297h49c29 0 46 18 46 48
c0 36 -18 55 -48 55c-31 0 -47 -20 -47 -51v-52z" />
    <glyph glyph-name="eacute" unicode="&#xe9;" horiz-adv-x="391" 
d="M278 681c15 0 18 -10 10 -21l-72 -91c-5 -8 -12 -11 -21 -11h-51c-14 0 -19 9 -11 21l54 90c5 7 12 12 21 12h70zM196 -11c-97 0 -163 67 -163 169v189c2 98 67 164 166 164c96 2 166 -65 166 -163c0 -92 -66 -155 -164 -155h-49v-42c0 -31 16 -51 45 -51
c25 0 41 16 45 42c2 12 8 17 18 17h84c11 0 17 -6 17 -18c-7 -91 -72 -152 -165 -152zM152 297h49c29 0 46 18 46 48c0 36 -18 55 -48 55c-31 0 -47 -20 -47 -51v-52z" />
    <glyph glyph-name="ecaron" unicode="&#x11b;" horiz-adv-x="391" 
d="M90 682h49c9 0 16 -3 21 -11l37 -47l35 47c6 8 13 11 22 11h48c14 0 19 -10 12 -21l-60 -91c-5 -8 -12 -11 -21 -11h-74c-8 0 -15 3 -21 11l-60 91c-7 11 -2 21 12 21zM196 -11c-97 0 -163 67 -163 169v189c2 98 67 164 166 164c96 2 166 -65 166 -163
c0 -92 -66 -155 -164 -155h-49v-42c0 -31 16 -51 45 -51c25 0 41 16 45 42c2 12 8 17 18 17h84c11 0 17 -6 17 -18c-7 -91 -72 -152 -165 -152zM152 297h49c29 0 46 18 46 48c0 36 -18 55 -48 55c-31 0 -47 -20 -47 -51v-52z" />
    <glyph glyph-name="ecircumflex" unicode="&#xea;" horiz-adv-x="391" 
d="M90 559c-14 0 -19 10 -12 21l60 91c6 8 13 11 21 11h74c9 0 16 -3 21 -11l60 -91c7 -11 2 -21 -12 -21h-48c-9 0 -16 3 -22 11l-35 47l-37 -47c-5 -8 -12 -11 -21 -11h-49zM196 -11c-97 0 -163 67 -163 169v189c2 98 67 164 166 164c96 2 166 -65 166 -163
c0 -92 -66 -155 -164 -155h-49v-42c0 -31 16 -51 45 -51c25 0 41 16 45 42c2 12 8 17 18 17h84c11 0 17 -6 17 -18c-7 -91 -72 -152 -165 -152zM152 297h49c29 0 46 18 46 48c0 36 -18 55 -48 55c-31 0 -47 -20 -47 -51v-52z" />
    <glyph glyph-name="edieresis" unicode="&#xeb;" horiz-adv-x="391" 
d="M128 568c-32 0 -52 21 -52 52s20 52 52 52c30 0 51 -21 51 -52s-21 -52 -51 -52zM266 568c-31 0 -52 21 -52 52s21 52 52 52s52 -21 52 -52s-21 -52 -52 -52zM196 -11c-97 0 -163 67 -163 169v189c2 98 67 164 166 164c96 2 166 -65 166 -163c0 -92 -66 -155 -164 -155
h-49v-42c0 -31 16 -51 45 -51c25 0 41 16 45 42c2 12 8 17 18 17h84c11 0 17 -6 17 -18c-7 -91 -72 -152 -165 -152zM152 297h49c29 0 46 18 46 48c0 36 -18 55 -48 55c-31 0 -47 -20 -47 -51v-52z" />
    <glyph glyph-name="edotaccent" unicode="&#x117;" horiz-adv-x="391" 
d="M197 560c-39 0 -66 29 -66 66c0 38 27 66 66 66c37 0 66 -28 66 -66c0 -35 -29 -66 -66 -66zM196 -11c-97 0 -163 67 -163 169v189c2 98 67 164 166 164c96 2 166 -65 166 -163c0 -92 -66 -155 -164 -155h-49v-42c0 -31 16 -51 45 -51c25 0 41 16 45 42c2 12 8 17 18 17
h84c11 0 17 -6 17 -18c-7 -91 -72 -152 -165 -152zM152 297h49c29 0 46 18 46 48c0 36 -18 55 -48 55c-31 0 -47 -20 -47 -51v-52z" />
    <glyph glyph-name="egrave" unicode="&#xe8;" horiz-adv-x="391" 
d="M98 682h70c9 0 16 -5 21 -12l54 -90c8 -12 3 -21 -11 -21h-51c-9 0 -16 3 -21 11l-72 91c-8 11 -5 21 10 21zM196 -11c-97 0 -163 67 -163 169v189c2 98 67 164 166 164c96 2 166 -65 166 -163c0 -92 -66 -155 -164 -155h-49v-42c0 -31 16 -51 45 -51c25 0 41 16 45 42
c2 12 8 17 18 17h84c11 0 17 -6 17 -18c-7 -91 -72 -152 -165 -152zM152 297h49c29 0 46 18 46 48c0 36 -18 55 -48 55c-31 0 -47 -20 -47 -51v-52z" />
    <glyph glyph-name="emacron" unicode="&#x113;" horiz-adv-x="391" 
d="M104 638c0 11 6 17 18 17h149c11 0 17 -6 17 -17v-38c0 -11 -6 -18 -17 -18h-149c-12 0 -18 7 -18 18v38zM196 -11c-97 0 -163 67 -163 169v189c2 98 67 164 166 164c96 2 166 -65 166 -163c0 -92 -66 -155 -164 -155h-49v-42c0 -31 16 -51 45 -51c25 0 41 16 45 42
c2 12 8 17 18 17h84c11 0 17 -6 17 -18c-7 -91 -72 -152 -165 -152zM152 297h49c29 0 46 18 46 48c0 36 -18 55 -48 55c-31 0 -47 -20 -47 -51v-52z" />
    <glyph glyph-name="eogonek" unicode="&#x119;" horiz-adv-x="391" 
d="M282 -208c-71 -13 -161 12 -161 93c0 36 17 80 44 110c-4 -1 -11 0 -16 1c-72 10 -116 81 -116 162v189c0 96 68 165 166 165c96 0 165 -65 165 -162c0 -95 -68 -157 -165 -157h-47v-42c0 -32 16 -51 46 -51c27 0 42 21 44 50c2 11 7 17 19 17h83c14 0 17 -8 17 -20
c1 -62 -41 -104 -77 -136c-33 -29 -60 -61 -60 -93c0 -34 29 -37 56 -37c10 0 18 -3 18 -17v-54c0 -12 -6 -16 -16 -18zM152 297h47c28 0 46 17 46 50c0 34 -17 53 -47 53c-29 0 -46 -20 -46 -50v-53z" />
    <glyph glyph-name="f" unicode="f" horiz-adv-x="312" 
d="M278 500c11 0 17 -6 17 -17v-72c0 -11 -6 -17 -17 -17h-81v-376c0 -12 -7 -18 -18 -18h-83c-11 0 -17 6 -17 18v376h-52c-11 0 -17 6 -17 17v72c0 11 6 17 17 17h52v8c0 124 70 197 184 197c11 0 17 -7 17 -18v-76c0 -11 -6 -17 -17 -17c-43 0 -66 -24 -66 -74v-20h81z
" />
    <glyph glyph-name="g" unicode="g" horiz-adv-x="405" 
d="M200 512c99 0 166 -69 166 -169v-386c0 -105 -63 -169 -166 -169c-98 0 -160 63 -166 166c-1 12 5 18 17 18h84c10 0 16 -6 18 -18c3 -35 20 -54 47 -54c30 0 48 19 48 51v87c-18 -14 -40 -21 -63 -21c-86 0 -152 68 -152 169v157c0 100 67 169 167 169zM200 128
c30 0 48 20 48 51v170c0 31 -18 51 -48 51s-48 -20 -48 -51v-170c0 -31 18 -51 48 -51z" />
    <glyph glyph-name="gbreve" unicode="&#x11f;" horiz-adv-x="405" 
d="M201 560c-67 0 -113 40 -121 103c-1 12 6 18 17 18h46c11 0 15 -5 19 -16c5 -15 18 -25 39 -25c20 0 33 10 39 25c4 11 8 16 18 16h46c11 0 18 -7 17 -18c-8 -63 -53 -103 -120 -103zM200 512c99 0 166 -69 166 -169v-386c0 -105 -63 -169 -166 -169
c-98 0 -160 63 -166 166c-1 12 5 18 17 18h84c10 0 16 -6 18 -18c3 -35 20 -54 47 -54c30 0 48 19 48 51v87c-18 -14 -40 -21 -63 -21c-86 0 -152 68 -152 169v157c0 100 67 169 167 169zM200 128c30 0 48 20 48 51v170c0 31 -18 51 -48 51s-48 -20 -48 -51v-170
c0 -31 18 -51 48 -51z" />
    <glyph glyph-name="gcommaaccent" unicode="&#x123;" horiz-adv-x="404" 
d="M167 562c-11 0 -17 6 -18 17l-10 151c0 12 6 18 18 18h43c11 0 16 -5 19 -16l32 -150c2 -12 -5 -20 -16 -20h-68zM200 512c99 0 166 -69 166 -169v-386c0 -105 -63 -169 -166 -169c-98 0 -160 63 -166 166c-1 12 5 18 17 18h84c10 0 16 -6 18 -18c3 -35 20 -54 47 -54
c30 0 48 19 48 51v87c-18 -14 -40 -21 -63 -21c-86 0 -152 68 -152 169v157c0 100 67 169 167 169zM200 128c30 0 48 20 48 51v170c0 31 -18 51 -48 51s-48 -20 -48 -51v-170c0 -31 18 -51 48 -51z" />
    <glyph glyph-name="gdotaccent" unicode="&#x121;" horiz-adv-x="405" 
d="M201 560c-39 0 -66 29 -66 66c0 38 27 66 66 66c37 0 66 -28 66 -66c0 -35 -29 -66 -66 -66zM200 512c99 0 166 -69 166 -169v-386c0 -105 -63 -169 -166 -169c-98 0 -160 63 -166 166c-1 12 5 18 17 18h84c10 0 16 -6 18 -18c3 -35 20 -54 47 -54c30 0 48 19 48 51v87
c-18 -14 -40 -21 -63 -21c-86 0 -152 68 -152 169v157c0 100 67 169 167 169zM200 128c30 0 48 20 48 51v170c0 31 -18 51 -48 51s-48 -20 -48 -51v-170c0 -31 18 -51 48 -51z" />
    <glyph glyph-name="h" unicode="h" horiz-adv-x="411" 
d="M62 0c-12 0 -18 6 -18 18v665c0 11 6 17 18 17h82c12 0 18 -6 18 -17v-191c17 12 38 20 59 20c90 0 152 -69 152 -170v-324c0 -12 -6 -18 -18 -18h-83c-11 0 -18 6 -18 18v331c0 31 -17 51 -46 51c-28 0 -46 -20 -46 -51v-331c0 -12 -6 -18 -18 -18h-82z" />
    <glyph glyph-name="hbar" unicode="&#x127;" horiz-adv-x="446" 
d="M96 0c-11 0 -17 6 -17 18v548h-52c-11 0 -17 6 -17 17v37c0 11 6 18 17 18h52v45c0 11 6 17 17 17h83c11 0 18 -6 18 -17v-45h113c12 0 18 -7 18 -18v-37c0 -11 -6 -17 -18 -17h-113v-83c15 13 37 21 59 21c90 0 152 -68 152 -170v-316c0 -12 -7 -18 -18 -18h-83
c-12 0 -18 6 -18 18v323c0 32 -17 52 -46 52s-46 -20 -46 -52v-323c0 -12 -7 -18 -18 -18h-83z" />
    <glyph glyph-name="i" unicode="i" horiz-adv-x="206" 
d="M103 560c-39 0 -66 29 -66 66c0 38 27 66 66 66c37 0 66 -28 66 -66c0 -35 -29 -66 -66 -66zM62 0c-12 0 -18 6 -18 18v465c0 11 6 17 18 17h82c12 0 18 -6 18 -17v-465c0 -12 -6 -18 -18 -18h-82z" />
    <glyph glyph-name="dotlessi" unicode="&#x131;" horiz-adv-x="206" 
d="M62 0c-12 0 -18 6 -18 18v465c0 11 6 17 18 17h82c12 0 18 -6 18 -17v-465c0 -12 -6 -18 -18 -18h-82z" />
    <glyph glyph-name="iacute" unicode="&#xed;" horiz-adv-x="206" 
d="M184 681c15 0 18 -10 10 -21l-72 -91c-5 -8 -12 -11 -21 -11h-51c-14 0 -19 9 -11 21l54 90c5 7 12 12 21 12h70zM62 0c-12 0 -18 6 -18 18v465c0 11 6 17 18 17h82c12 0 18 -6 18 -17v-465c0 -12 -6 -18 -18 -18h-82z" />
    <glyph glyph-name="icircumflex" unicode="&#xee;" horiz-adv-x="243" 
d="M26 559c-14 0 -19 10 -12 21l60 91c6 8 13 11 21 11h74c9 0 16 -3 21 -11l60 -91c7 -11 2 -21 -12 -21h-48c-9 0 -16 3 -22 11l-35 47l-37 -47c-5 -8 -12 -11 -21 -11h-49zM92 0c-12 0 -18 6 -18 18v465c0 11 6 17 18 17h82c12 0 18 -6 18 -17v-465c0 -12 -6 -18 -18 -18
h-82z" />
    <glyph glyph-name="idieresis" unicode="&#xef;" horiz-adv-x="230" 
d="M52 570c-29 0 -48 19 -49 50c1 30 20 49 49 49s50 -19 50 -49c0 -31 -21 -50 -50 -50zM178 570c-29 0 -49 19 -49 50c0 30 20 49 49 49c30 0 49 -19 50 -49c-1 -31 -20 -50 -50 -50zM75 0c-12 0 -18 6 -18 18v465c0 11 6 17 18 17h82c12 0 18 -6 18 -17v-465
c0 -12 -6 -18 -18 -18h-82z" />
    <glyph glyph-name="i.loclTRK" horiz-adv-x="206" 
d="M103 560c-39 0 -66 29 -66 66c0 38 27 66 66 66c37 0 66 -28 66 -66c0 -35 -29 -66 -66 -66zM62 0c-12 0 -18 6 -18 18v465c0 11 6 17 18 17h82c12 0 18 -6 18 -17v-465c0 -12 -6 -18 -18 -18h-82z" />
    <glyph glyph-name="igrave" unicode="&#xec;" horiz-adv-x="206" 
d="M4 682h70c9 0 16 -5 21 -12l54 -90c8 -12 3 -21 -11 -21h-51c-9 0 -16 3 -21 11l-72 91c-8 11 -5 21 10 21zM62 0c-12 0 -18 6 -18 18v465c0 11 6 17 18 17h82c12 0 18 -6 18 -17v-465c0 -12 -6 -18 -18 -18h-82z" />
    <glyph glyph-name="imacron" unicode="&#x12b;" horiz-adv-x="182" 
d="M1 638c0 11 7 17 18 17h144c11 0 18 -6 18 -17v-38c0 -11 -7 -18 -18 -18h-144c-11 0 -18 7 -18 18v38zM49 0c-12 0 -18 6 -18 18v465c0 11 6 17 18 17h82c12 0 18 -6 18 -17v-465c0 -12 -6 -18 -18 -18h-82z" />
    <glyph glyph-name="iogonek" unicode="&#x12f;" horiz-adv-x="227" 
d="M113 560c-38 0 -65 29 -65 66c0 38 28 66 66 66c37 0 66 -28 66 -65c0 -36 -29 -67 -67 -67zM133 -209c-85 0 -125 36 -125 88c0 42 20 88 49 121v483c0 11 6 17 18 17h83c11 0 18 -6 18 -17v-469c0 -11 -9 -19 -20 -29c-31 -26 -43 -51 -43 -68c0 -26 29 -33 56 -34h3
c11 0 18 -6 18 -18v-53c0 -17 -16 -21 -57 -21z" />
    <glyph glyph-name="j" unicode="j" horiz-adv-x="270" 
d="M160 560c-39 0 -66 29 -66 66c0 38 27 66 66 66c37 0 66 -28 66 -66c0 -35 -29 -66 -66 -66zM18 -205c-12 0 -18 6 -18 17v77c0 11 6 17 18 17h14c47 1 71 28 71 74v503c0 11 7 17 18 17h83c11 0 17 -6 17 -17v-488c0 -126 -69 -200 -185 -200h-18z" />
    <glyph glyph-name="k" unicode="k" horiz-adv-x="400" 
d="M296 283c45 -27 72 -76 72 -139v-126c0 -12 -6 -18 -17 -18h-84c-11 0 -17 6 -17 18v133c0 30 -19 49 -48 49h-40v-182c0 -12 -6 -18 -18 -18h-82c-12 0 -18 6 -18 18v665c0 11 6 17 18 17h82c12 0 18 -6 18 -17v-372h26l68 175c3 10 10 14 20 14h85c13 0 20 -8 15 -20z
" />
    <glyph glyph-name="kcommaaccent" unicode="&#x137;" horiz-adv-x="400" 
d="M296 283c45 -27 72 -76 72 -139v-126c0 -12 -6 -18 -17 -18h-84c-11 0 -17 6 -17 18v133c0 30 -19 49 -48 49h-40v-182c0 -12 -6 -18 -18 -18h-82c-12 0 -18 6 -18 18v665c0 11 6 17 18 17h82c12 0 18 -6 18 -17v-372h26l68 175c3 10 10 14 20 14h85c13 0 20 -8 15 -20z
M147 -70c1 10 7 16 18 16h70c11 0 18 -8 16 -19l-37 -189c-2 -11 -8 -16 -19 -16h-40c-12 0 -18 6 -18 18z" />
    <glyph glyph-name="l" unicode="l" horiz-adv-x="206" 
d="M62 0c-12 0 -18 6 -18 18v665c0 11 6 17 18 17h82c12 0 18 -6 18 -17v-665c0 -12 -6 -18 -18 -18h-82z" />
    <glyph glyph-name="lacute" unicode="&#x13a;" horiz-adv-x="225" 
d="M63 769c-14 0 -20 10 -12 21l61 90c5 8 13 11 21 11h70c14 0 19 -11 9 -22l-77 -90c-6 -7 -13 -10 -22 -10h-50zM62 0c-12 0 -18 6 -18 18v665c0 11 6 17 18 17h82c12 0 18 -6 18 -17v-665c0 -12 -6 -18 -18 -18h-82z" />
    <glyph glyph-name="lcaron" unicode="&#x13e;" horiz-adv-x="332" 
d="M225 492c-11 0 -18 7 -17 19l10 173c0 11 7 17 17 17h71c12 0 18 -8 16 -19l-30 -174c-2 -10 -8 -16 -19 -16h-48zM62 0c-12 0 -18 6 -18 18v665c0 11 6 17 18 17h82c12 0 18 -6 18 -17v-665c0 -12 -6 -18 -18 -18h-82z" />
    <glyph glyph-name="lcommaaccent" unicode="&#x13c;" horiz-adv-x="206" 
d="M62 0c-12 0 -18 6 -18 18v665c0 11 6 17 18 17h82c12 0 18 -6 18 -17v-665c0 -12 -6 -18 -18 -18h-82zM47 -70c1 10 7 16 18 16h70c11 0 18 -8 16 -19l-37 -189c-2 -11 -8 -16 -19 -16h-40c-12 0 -18 6 -18 18z" />
    <glyph glyph-name="lslash" unicode="&#x142;" horiz-adv-x="241" 
d="M218 492c13 4 21 -1 21 -14v-57c0 -10 -6 -17 -14 -20l-45 -18v-365c0 -12 -6 -18 -18 -18h-82c-12 0 -18 6 -18 18v318l-39 -16c-12 -5 -20 0 -20 13v57c0 10 5 17 14 20l45 18v255c0 11 6 17 18 17h82c12 0 18 -6 18 -17v-207z" />
    <glyph glyph-name="m" unicode="m" horiz-adv-x="596" 
d="M399 512c95 0 158 -69 158 -169v-325c0 -12 -6 -18 -17 -18h-81c-12 0 -18 6 -18 18v331c0 31 -15 51 -42 51c-28 0 -43 -20 -43 -51v-331c0 -12 -6 -18 -17 -18h-82c-11 0 -17 6 -17 18v331c0 31 -15 51 -43 51c-27 0 -42 -20 -42 -51v-331c0 -12 -6 -18 -18 -18h-81
c-11 0 -17 6 -17 18v325c0 100 63 169 158 169c41 0 76 -17 101 -44c25 27 60 44 101 44z" />
    <glyph glyph-name="n" unicode="n" horiz-adv-x="404" 
d="M56 0c-11 0 -17 6 -17 18v325c0 100 65 169 163 169s163 -69 163 -169v-325c0 -12 -6 -18 -17 -18h-83c-11 0 -18 6 -18 18v331c0 31 -17 52 -45 52c-29 0 -46 -21 -46 -52v-331c0 -12 -6 -18 -17 -18h-83z" />
    <glyph glyph-name="nacute" unicode="&#x144;" horiz-adv-x="404" 
d="M283 681c15 0 18 -10 10 -21l-72 -91c-5 -8 -12 -11 -21 -11h-51c-14 0 -19 9 -11 21l54 90c5 7 12 12 21 12h70zM56 0c-11 0 -17 6 -17 18v325c0 100 65 169 163 169s163 -69 163 -169v-325c0 -12 -6 -18 -17 -18h-83c-11 0 -18 6 -18 18v331c0 31 -17 52 -45 52
c-29 0 -46 -21 -46 -52v-331c0 -12 -6 -18 -17 -18h-83z" />
    <glyph glyph-name="ncaron" unicode="&#x148;" horiz-adv-x="404" 
d="M95 682h49c9 0 16 -3 21 -11l37 -47l35 47c6 8 13 11 22 11h48c14 0 19 -10 12 -21l-60 -91c-5 -8 -12 -11 -21 -11h-74c-8 0 -15 3 -21 11l-60 91c-7 11 -2 21 12 21zM56 0c-11 0 -17 6 -17 18v325c0 100 65 169 163 169s163 -69 163 -169v-325c0 -12 -6 -18 -17 -18
h-83c-11 0 -18 6 -18 18v331c0 31 -17 52 -45 52c-29 0 -46 -21 -46 -52v-331c0 -12 -6 -18 -17 -18h-83z" />
    <glyph glyph-name="ncommaaccent" unicode="&#x146;" horiz-adv-x="402" 
d="M56 0c-11 0 -17 6 -17 18v325c0 100 65 169 163 169s163 -69 163 -169v-325c0 -12 -6 -18 -17 -18h-83c-11 0 -18 6 -18 18v331c0 31 -17 52 -45 52c-29 0 -46 -21 -46 -52v-331c0 -12 -6 -18 -17 -18h-83zM158 -70c1 10 7 16 18 16h70c11 0 18 -8 16 -19l-37 -189
c-2 -11 -8 -16 -19 -16h-40c-12 0 -18 6 -18 18z" />
    <glyph glyph-name="eng" unicode="&#x14b;" horiz-adv-x="404" 
d="M173 -211c-11 0 -17 6 -17 17v76c0 11 6 18 17 18c49 0 74 31 74 79v370c0 31 -17 52 -45 52c-29 0 -46 -21 -46 -52v-331c0 -12 -6 -18 -17 -18h-83c-11 0 -17 6 -17 18v325c0 100 65 169 163 169s163 -69 163 -169v-349c0 -128 -69 -205 -192 -205z" />
    <glyph glyph-name="ntilde" unicode="&#xf1;" horiz-adv-x="404" 
d="M166 595c-7 0 -11 -3 -14 -10c-5 -10 -10 -15 -19 -15h-37c-11 0 -18 7 -17 18c2 26 23 77 79 77c41 0 60 -27 78 -27c7 0 12 4 15 10c3 7 6 16 18 16h37c11 0 18 -5 17 -19c-2 -32 -28 -76 -79 -76c-38 0 -59 26 -78 26zM56 0c-11 0 -17 6 -17 18v325
c0 100 65 169 163 169s163 -69 163 -169v-325c0 -12 -6 -18 -17 -18h-83c-11 0 -18 6 -18 18v331c0 31 -17 52 -45 52c-29 0 -46 -21 -46 -52v-331c0 -12 -6 -18 -17 -18h-83z" />
    <glyph glyph-name="o" unicode="o" horiz-adv-x="400" 
d="M200 -12c-100 0 -167 69 -167 170v185c0 100 67 169 167 169s167 -69 167 -169v-185c0 -101 -67 -170 -167 -170zM200 100c30 0 48 20 48 51v198c0 31 -18 52 -48 52s-48 -21 -48 -52v-198c0 -31 18 -51 48 -51z" />
    <glyph glyph-name="oacute" unicode="&#xf3;" horiz-adv-x="400" 
d="M282 681c15 0 18 -10 10 -21l-72 -91c-5 -8 -12 -11 -21 -11h-51c-14 0 -19 9 -11 21l54 90c5 7 12 12 21 12h70zM200 -12c-100 0 -167 69 -167 170v185c0 100 67 169 167 169s167 -69 167 -169v-185c0 -101 -67 -170 -167 -170zM200 100c30 0 48 20 48 51v198
c0 31 -18 52 -48 52s-48 -21 -48 -52v-198c0 -31 18 -51 48 -51z" />
    <glyph glyph-name="ocircumflex" unicode="&#xf4;" horiz-adv-x="400" 
d="M94 559c-14 0 -19 10 -12 21l60 91c6 8 13 11 21 11h74c9 0 16 -3 21 -11l60 -91c7 -11 2 -21 -12 -21h-48c-9 0 -16 3 -22 11l-35 47l-37 -47c-5 -8 -12 -11 -21 -11h-49zM200 -12c-100 0 -167 69 -167 170v185c0 100 67 169 167 169s167 -69 167 -169v-185
c0 -101 -67 -170 -167 -170zM200 100c30 0 48 20 48 51v198c0 31 -18 52 -48 52s-48 -21 -48 -52v-198c0 -31 18 -51 48 -51z" />
    <glyph glyph-name="odieresis" unicode="&#xf6;" horiz-adv-x="400" 
d="M132 568c-32 0 -52 21 -52 52s20 52 52 52c30 0 51 -21 51 -52s-21 -52 -51 -52zM270 568c-31 0 -52 21 -52 52s21 52 52 52s52 -21 52 -52s-21 -52 -52 -52zM200 -12c-100 0 -167 69 -167 170v185c0 100 67 169 167 169s167 -69 167 -169v-185
c0 -101 -67 -170 -167 -170zM200 100c30 0 48 20 48 51v198c0 31 -18 52 -48 52s-48 -21 -48 -52v-198c0 -31 18 -51 48 -51z" />
    <glyph glyph-name="ograve" unicode="&#xf2;" horiz-adv-x="400" 
d="M102 682h70c9 0 16 -5 21 -12l54 -90c8 -12 3 -21 -11 -21h-51c-9 0 -16 3 -21 11l-72 91c-8 11 -5 21 10 21zM200 -12c-100 0 -167 69 -167 170v185c0 100 67 169 167 169s167 -69 167 -169v-185c0 -101 -67 -170 -167 -170zM200 100c30 0 48 20 48 51v198
c0 31 -18 52 -48 52s-48 -21 -48 -52v-198c0 -31 18 -51 48 -51z" />
    <glyph glyph-name="ohungarumlaut" unicode="&#x151;" horiz-adv-x="400" 
d="M228 682c15 0 19 -10 10 -21l-71 -91c-6 -8 -13 -11 -22 -11h-40c-14 0 -18 9 -11 21l54 90c5 7 12 12 21 12h59zM358 682c14 0 18 -10 9 -21l-71 -91c-5 -8 -12 -11 -21 -11h-40c-14 0 -19 9 -12 21l55 90c4 7 11 12 21 12h59zM200 -12c-100 0 -167 69 -167 170v185
c0 100 67 169 167 169s167 -69 167 -169v-185c0 -101 -67 -170 -167 -170zM200 100c30 0 48 20 48 51v198c0 31 -18 52 -48 52s-48 -21 -48 -52v-198c0 -31 18 -51 48 -51z" />
    <glyph glyph-name="omacron" unicode="&#x14d;" horiz-adv-x="400" 
d="M108 638c0 11 6 17 18 17h149c11 0 17 -6 17 -17v-38c0 -11 -6 -18 -17 -18h-149c-12 0 -18 7 -18 18v38zM200 -12c-100 0 -167 69 -167 170v185c0 100 67 169 167 169s167 -69 167 -169v-185c0 -101 -67 -170 -167 -170zM200 100c30 0 48 20 48 51v198
c0 31 -18 52 -48 52s-48 -21 -48 -52v-198c0 -31 18 -51 48 -51z" />
    <glyph glyph-name="oslash" unicode="&#xf8;" horiz-adv-x="393" 
d="M296 486c44 -29 71 -80 71 -143v-185c0 -101 -67 -170 -167 -170c-14 0 -28 1 -41 4l-6 -22c-3 -11 -11 -15 -20 -15h-33c-13 0 -19 8 -15 19l12 45c-40 30 -64 79 -64 139v185c0 100 67 169 167 169c12 0 23 -1 33 -3l6 21c3 11 10 15 20 15h33c12 0 19 -8 15 -19z
M248 151v198c0 31 -18 52 -48 52s-48 -21 -48 -52v-198c0 -31 18 -51 48 -51s48 20 48 51z" />
    <glyph glyph-name="otilde" unicode="&#xf5;" horiz-adv-x="400" 
d="M165 595c-7 0 -11 -3 -14 -10c-5 -10 -10 -15 -19 -15h-37c-11 0 -18 7 -17 18c2 26 23 77 79 77c41 0 60 -27 78 -27c7 0 12 4 15 10c3 7 6 16 18 16h37c11 0 18 -5 17 -19c-2 -32 -28 -76 -79 -76c-38 0 -59 26 -78 26zM200 -12c-100 0 -167 69 -167 170v185
c0 100 67 169 167 169s167 -69 167 -169v-185c0 -101 -67 -170 -167 -170zM200 100c30 0 48 20 48 51v198c0 31 -18 52 -48 52s-48 -21 -48 -52v-198c0 -31 18 -51 48 -51z" />
    <glyph glyph-name="oe" unicode="&#x153;" horiz-adv-x="600" 
d="M198 -12c-98 0 -165 69 -165 170v185c0 100 67 169 165 169c44 0 79 -17 105 -45c25 28 61 45 105 45c94 1 164 -65 164 -164c0 -93 -67 -155 -162 -155h-47v-42c0 -31 16 -51 44 -51c24 0 40 14 44 36c3 12 8 17 18 17h84c11 0 17 -6 16 -17c-7 -88 -71 -148 -163 -148
c-44 0 -78 19 -103 48c-27 -29 -61 -48 -105 -48zM198 100c29 0 47 20 47 51v198c0 31 -18 51 -47 51s-46 -20 -46 -51v-198c0 -31 17 -51 46 -51zM363 297h47c26 0 44 18 44 49c0 36 -17 54 -46 54c-28 0 -45 -20 -45 -50v-53z" />
    <glyph glyph-name="p" unicode="p" horiz-adv-x="405" 
d="M205 512c100 0 167 -69 167 -169v-185c0 -101 -67 -170 -147 -170c-25 0 -48 7 -68 20v-191c0 -11 -6 -17 -17 -17h-84c-11 0 -17 6 -17 17v526c0 100 67 169 166 169zM253 151v198c0 31 -18 51 -48 51s-48 -20 -48 -51v-198c0 -31 18 -51 48 -51s48 20 48 51z" />
    <glyph glyph-name="thorn" unicode="&#xfe;" horiz-adv-x="407" 
d="M62 -200c-12 0 -18 6 -18 17v866c0 11 6 17 18 17h82c12 0 18 -6 18 -17v-195c16 15 39 24 68 24c88 0 144 -69 144 -169v-185c0 -101 -66 -170 -147 -170c-23 0 -46 8 -65 23v-194c0 -11 -6 -17 -18 -17h-82zM209 100c30 0 47 20 47 51v198c0 31 -17 51 -47 51
c-29 0 -47 -20 -47 -51v-198c0 -31 18 -51 47 -51z" />
    <glyph glyph-name="q" unicode="q" horiz-adv-x="405" 
d="M200 512c99 0 166 -69 166 -169v-526c0 -11 -6 -17 -17 -17h-84c-11 0 -17 6 -17 17v191c-20 -13 -43 -20 -68 -20c-80 0 -147 69 -147 170v185c0 100 67 169 167 169zM200 100c30 0 48 20 48 51v198c0 31 -18 51 -48 51s-48 -20 -48 -51v-198c0 -31 18 -51 48 -51z" />
    <glyph glyph-name="r" unicode="r" horiz-adv-x="280" 
d="M56 0c-11 0 -17 6 -17 18v285c0 125 72 198 185 198h29c11 0 18 -6 18 -18v-76c0 -11 -7 -17 -18 -17h-25c-44 0 -72 -28 -72 -73v-299c0 -12 -6 -18 -17 -18h-83z" />
    <glyph glyph-name="racute" unicode="&#x155;" horiz-adv-x="280" 
d="M238 681c15 0 18 -10 10 -21l-72 -91c-5 -8 -12 -11 -21 -11h-51c-14 0 -19 9 -11 21l54 90c5 7 12 12 21 12h70zM56 0c-11 0 -17 6 -17 18v285c0 125 72 198 185 198h29c11 0 18 -6 18 -18v-76c0 -11 -7 -17 -18 -17h-25c-44 0 -72 -28 -72 -73v-299
c0 -12 -6 -18 -17 -18h-83z" />
    <glyph glyph-name="rcaron" unicode="&#x159;" horiz-adv-x="280" 
d="M50 682h49c9 0 16 -3 21 -11l37 -47l35 47c6 8 13 11 22 11h48c14 0 19 -10 12 -21l-60 -91c-5 -8 -12 -11 -21 -11h-74c-8 0 -15 3 -21 11l-60 91c-7 11 -2 21 12 21zM56 0c-11 0 -17 6 -17 18v285c0 125 72 198 185 198h29c11 0 18 -6 18 -18v-76c0 -11 -7 -17 -18 -17
h-25c-44 0 -72 -28 -72 -73v-299c0 -12 -6 -18 -17 -18h-83z" />
    <glyph glyph-name="rcommaaccent" unicode="&#x157;" horiz-adv-x="280" 
d="M56 0c-11 0 -17 6 -17 18v285c0 125 72 198 185 198h29c11 0 18 -6 18 -18v-76c0 -11 -7 -17 -18 -17h-25c-44 0 -72 -28 -72 -73v-299c0 -12 -6 -18 -17 -18h-83zM54 -70c1 10 7 16 18 16h70c11 0 18 -8 16 -19l-37 -189c-2 -11 -8 -16 -19 -16h-40c-12 0 -18 6 -18 18z
" />
    <glyph glyph-name="s" unicode="s" horiz-adv-x="390" 
d="M200 -12c-113 0 -172 81 -174 161c0 10 2 21 17 21h83c8 0 16 -4 19 -16c4 -31 18 -54 52 -54c31 0 48 19 48 43c0 78 -213 63 -213 223c0 88 67 146 160 146c116 0 161 -82 163 -147c0 -8 -2 -18 -17 -18h-83c-11 0 -16 7 -18 17c-4 22 -18 37 -44 37s-43 -16 -43 -38
c0 -75 214 -60 214 -224c0 -88 -66 -151 -164 -151z" />
    <glyph glyph-name="sacute" unicode="&#x15b;" horiz-adv-x="390" 
d="M287 681c15 0 18 -10 10 -21l-72 -91c-5 -8 -12 -11 -21 -11h-51c-14 0 -19 9 -11 21l54 90c5 7 12 12 21 12h70zM200 -12c-113 0 -172 81 -174 161c0 10 2 21 17 21h83c8 0 16 -4 19 -16c4 -31 18 -54 52 -54c31 0 48 19 48 43c0 78 -213 63 -213 223
c0 88 67 146 160 146c116 0 161 -82 163 -147c0 -8 -2 -18 -17 -18h-83c-11 0 -16 7 -18 17c-4 22 -18 37 -44 37s-43 -16 -43 -38c0 -75 214 -60 214 -224c0 -88 -66 -151 -164 -151z" />
    <glyph glyph-name="scaron" unicode="&#x161;" horiz-adv-x="390" 
d="M99 682h49c9 0 16 -3 21 -11l37 -47l35 47c6 8 13 11 22 11h48c14 0 19 -10 12 -21l-60 -91c-5 -8 -12 -11 -21 -11h-74c-8 0 -15 3 -21 11l-60 91c-7 11 -2 21 12 21zM200 -12c-113 0 -172 81 -174 161c0 10 2 21 17 21h83c8 0 16 -4 19 -16c4 -31 18 -54 52 -54
c31 0 48 19 48 43c0 78 -213 63 -213 223c0 88 67 146 160 146c116 0 161 -82 163 -147c0 -8 -2 -18 -17 -18h-83c-11 0 -16 7 -18 17c-4 22 -18 37 -44 37s-43 -16 -43 -38c0 -75 214 -60 214 -224c0 -88 -66 -151 -164 -151z" />
    <glyph glyph-name="scedilla" unicode="&#x15f;" horiz-adv-x="390" 
d="M364 139c0 -77 -50 -135 -129 -148l-6 -35h5c40 -3 72 -33 72 -75c0 -57 -43 -90 -99 -90c-49 0 -87 27 -94 75c-3 11 5 18 16 18h27c10 0 13 -5 19 -14c5 -11 18 -17 32 -17c19 0 34 10 34 28c0 16 -14 27 -34 27c-13 0 -24 -1 -35 -3c-4 -1 -8 0 -11 3l-5 4
c-3 3 -4 6 -3 11l13 68c-91 14 -138 86 -140 158c0 10 2 21 17 21h83c8 0 16 -4 19 -16c4 -31 18 -54 52 -54c31 0 48 19 48 43c0 78 -213 63 -213 223c0 88 67 146 160 146c116 0 161 -82 163 -147c0 -8 -2 -18 -17 -18h-83c-11 0 -16 7 -18 17c-4 22 -18 37 -44 37
s-43 -16 -43 -38c0 -75 214 -60 214 -224z" />
    <glyph glyph-name="scommaaccent" unicode="&#x219;" horiz-adv-x="390" 
d="M200 -12c-113 0 -172 81 -174 161c0 10 2 21 17 21h83c8 0 16 -4 19 -16c4 -31 18 -54 52 -54c31 0 48 19 48 43c0 78 -213 63 -213 223c0 88 67 146 160 146c116 0 161 -82 163 -147c0 -8 -2 -18 -17 -18h-83c-11 0 -16 7 -18 17c-4 22 -18 37 -44 37s-43 -16 -43 -38
c0 -75 214 -60 214 -224c0 -88 -66 -151 -164 -151zM158 -70c1 10 7 16 18 16h70c11 0 18 -8 16 -19l-37 -189c-2 -11 -8 -16 -19 -16h-40c-12 0 -18 6 -18 18z" />
    <glyph glyph-name="germandbls" unicode="&#xdf;" horiz-adv-x="406" 
d="M62 0c-12 0 -18 6 -18 18v527c0 99 66 167 161 167s162 -68 162 -167v-78c0 -40 -19 -75 -50 -102c39 -27 64 -71 64 -122v-78c0 -99 -69 -168 -164 -169h-15c-9 0 -14 6 -14 15v82c0 9 5 15 14 15h15c30 0 46 21 46 52v90c0 31 -19 54 -45 54h-18c-8 0 -12 6 -12 15v77
c0 9 4 15 12 15h11c22 0 38 20 38 44v96c0 30 -18 49 -44 49c-25 0 -43 -19 -43 -49v-533c0 -12 -6 -18 -18 -18h-82z" />
    <glyph glyph-name="t" unicode="t" horiz-adv-x="306" 
d="M272 107c11 0 17 -6 17 -17v-77c0 -11 -6 -17 -17 -17h-19c-109 0 -176 72 -176 187v211h-50c-11 0 -17 6 -17 17v72c0 11 6 17 17 17h50v129c0 11 6 17 17 17h83c11 0 17 -6 17 -17v-129h67c11 0 17 -6 17 -17v-72c0 -11 -6 -17 -17 -17h-67v-213c0 -50 22 -74 68 -74
h10z" />
    <glyph glyph-name="tbar" unicode="&#x167;" horiz-adv-x="306" 
d="M272 106c11 0 17 -6 17 -17v-76c0 -12 -6 -18 -17 -18h-13c-113 0 -182 73 -182 194v55h-35c-11 0 -18 6 -18 18v40c0 12 7 18 18 18h35v74h-50c-11 0 -17 6 -17 17v72c0 11 6 17 17 17h50v129c0 11 6 17 17 17h83c11 0 17 -6 17 -17v-129h67c11 0 17 -6 17 -17v-72
c0 -11 -6 -17 -17 -17h-67v-74h52c11 0 18 -6 18 -18v-40c0 -12 -7 -18 -18 -18h-52v-64c0 -46 26 -74 69 -74h9z" />
    <glyph glyph-name="tcaron" unicode="&#x165;" horiz-adv-x="354" 
d="M319 718c12 0 19 -8 16 -19l-31 -151c-3 -10 -8 -16 -19 -16h-44c-11 0 -18 7 -17 19l9 151c1 10 8 16 18 16h68zM272 107c11 0 17 -6 17 -17v-77c0 -11 -6 -17 -17 -17h-19c-109 0 -176 72 -176 187v211h-50c-11 0 -17 6 -17 17v72c0 11 6 17 17 17h50v129
c0 11 6 17 17 17h83c11 0 17 -6 17 -17v-129h67c11 0 17 -6 17 -17v-72c0 -11 -6 -17 -17 -17h-67v-213c0 -50 22 -74 68 -74h10z" />
    <glyph glyph-name="uni0163" unicode="&#x163;" horiz-adv-x="306" 
d="M272 107c11 0 17 -6 17 -17v-77c0 -11 -6 -17 -17 -17h-19c-109 0 -176 72 -176 187v211h-50c-11 0 -17 6 -17 17v72c0 11 6 17 17 17h50v129c0 11 6 17 17 17h83c11 0 17 -6 17 -17v-129h67c11 0 17 -6 17 -17v-72c0 -11 -6 -17 -17 -17h-67v-213c0 -50 22 -74 68 -74
h10zM213 -54c11 0 18 -8 16 -19l-37 -189c-2 -11 -8 -16 -19 -16h-40c-12 0 -18 6 -18 18l10 190c1 10 7 16 18 16h70z" />
    <glyph glyph-name="uni021B" unicode="&#x21b;" horiz-adv-x="306" 
d="M272 107c11 0 17 -6 17 -17v-77c0 -11 -6 -17 -17 -17h-19c-109 0 -176 72 -176 187v211h-50c-11 0 -17 6 -17 17v72c0 11 6 17 17 17h50v129c0 11 6 17 17 17h83c11 0 17 -6 17 -17v-129h67c11 0 17 -6 17 -17v-72c0 -11 -6 -17 -17 -17h-67v-213c0 -50 22 -74 68 -74
h10zM213 -54c11 0 18 -8 16 -19l-37 -189c-2 -11 -8 -16 -19 -16h-40c-12 0 -18 6 -18 18l10 190c1 10 7 16 18 16h70z" />
    <glyph glyph-name="u" unicode="u" horiz-adv-x="404" 
d="M56 500h83c11 0 17 -6 17 -18v-331c0 -31 17 -52 46 -52c28 0 45 21 45 52v331c0 12 7 18 18 18h83c11 0 17 -6 17 -18v-325c0 -100 -65 -169 -163 -169s-163 69 -163 169v325c0 12 6 18 17 18z" />
    <glyph glyph-name="uacute" unicode="&#xfa;" horiz-adv-x="404" 
d="M282 681c15 0 18 -10 10 -21l-72 -91c-5 -8 -12 -11 -21 -11h-51c-14 0 -19 9 -11 21l54 90c5 7 12 12 21 12h70zM56 500h83c11 0 17 -6 17 -18v-331c0 -31 17 -52 46 -52c28 0 45 21 45 52v331c0 12 7 18 18 18h83c11 0 17 -6 17 -18v-325c0 -100 -65 -169 -163 -169
s-163 69 -163 169v325c0 12 6 18 17 18z" />
    <glyph glyph-name="ucircumflex" unicode="&#xfb;" horiz-adv-x="404" 
d="M94 559c-14 0 -19 10 -12 21l60 91c6 8 13 11 21 11h74c9 0 16 -3 21 -11l60 -91c7 -11 2 -21 -12 -21h-48c-9 0 -16 3 -22 11l-35 47l-37 -47c-5 -8 -12 -11 -21 -11h-49zM56 500h83c11 0 17 -6 17 -18v-331c0 -31 17 -52 46 -52c28 0 45 21 45 52v331c0 12 7 18 18 18
h83c11 0 17 -6 17 -18v-325c0 -100 -65 -169 -163 -169s-163 69 -163 169v325c0 12 6 18 17 18z" />
    <glyph glyph-name="udieresis" unicode="&#xfc;" horiz-adv-x="404" 
d="M132 568c-32 0 -52 21 -52 52s20 52 52 52c30 0 51 -21 51 -52s-21 -52 -51 -52zM270 568c-31 0 -52 21 -52 52s21 52 52 52s52 -21 52 -52s-21 -52 -52 -52zM56 500h83c11 0 17 -6 17 -18v-331c0 -31 17 -52 46 -52c28 0 45 21 45 52v331c0 12 7 18 18 18h83
c11 0 17 -6 17 -18v-325c0 -100 -65 -169 -163 -169s-163 69 -163 169v325c0 12 6 18 17 18z" />
    <glyph glyph-name="ugrave" unicode="&#xf9;" horiz-adv-x="404" 
d="M102 682h70c9 0 16 -5 21 -12l54 -90c8 -12 3 -21 -11 -21h-51c-9 0 -16 3 -21 11l-72 91c-8 11 -5 21 10 21zM56 500h83c11 0 17 -6 17 -18v-331c0 -31 17 -52 46 -52c28 0 45 21 45 52v331c0 12 7 18 18 18h83c11 0 17 -6 17 -18v-325c0 -100 -65 -169 -163 -169
s-163 69 -163 169v325c0 12 6 18 17 18z" />
    <glyph glyph-name="uhungarumlaut" unicode="&#x171;" horiz-adv-x="404" 
d="M228 682c15 0 19 -10 10 -21l-71 -91c-6 -8 -13 -11 -22 -11h-40c-14 0 -18 9 -11 21l54 90c5 7 12 12 21 12h59zM358 682c14 0 18 -10 9 -21l-71 -91c-5 -8 -12 -11 -21 -11h-40c-14 0 -19 9 -12 21l55 90c4 7 11 12 21 12h59zM56 500h83c11 0 17 -6 17 -18v-331
c0 -31 17 -52 46 -52c28 0 45 21 45 52v331c0 12 7 18 18 18h83c11 0 17 -6 17 -18v-325c0 -100 -65 -169 -163 -169s-163 69 -163 169v325c0 12 6 18 17 18z" />
    <glyph glyph-name="umacron" unicode="&#x16b;" horiz-adv-x="404" 
d="M108 638c0 11 6 17 18 17h149c11 0 17 -6 17 -17v-38c0 -11 -6 -18 -17 -18h-149c-12 0 -18 7 -18 18v38zM56 500h83c11 0 17 -6 17 -18v-331c0 -31 17 -52 46 -52c28 0 45 21 45 52v331c0 12 7 18 18 18h83c11 0 17 -6 17 -18v-325c0 -100 -65 -169 -163 -169
s-163 69 -163 169v325c0 12 6 18 17 18z" />
    <glyph glyph-name="uogonek" unicode="&#x173;" horiz-adv-x="404" 
d="M311 -208c-83 -8 -157 13 -157 89c0 39 18 77 43 109c-4 0 -13 0 -20 1c-82 10 -138 75 -138 165v327c0 11 6 17 17 17h83c11 0 17 -6 17 -17v-334c0 -29 19 -49 46 -49s46 20 46 49v334c0 11 6 17 17 17h83c11 0 18 -6 18 -17v-327c0 -51 -18 -96 -49 -123
c-34 -39 -55 -83 -55 -116c0 -28 21 -38 51 -36c12 1 18 -5 18 -17v-54c0 -11 -6 -17 -20 -18z" />
    <glyph glyph-name="uring" unicode="&#x16f;" horiz-adv-x="404" 
d="M120 625c0 47 32 78 81 78s82 -31 82 -78c0 -48 -33 -80 -82 -80s-81 32 -81 80zM177 624c0 -15 9 -24 24 -24s25 9 25 24s-10 25 -25 25s-24 -10 -24 -25zM56 500h83c11 0 17 -6 17 -18v-331c0 -31 17 -52 46 -52c28 0 45 21 45 52v331c0 12 7 18 18 18h83
c11 0 17 -6 17 -18v-325c0 -100 -65 -169 -163 -169s-163 69 -163 169v325c0 12 6 18 17 18z" />
    <glyph glyph-name="v" unicode="v" horiz-adv-x="395" 
d="M267 484c2 12 9 16 20 16h87c13 0 18 -8 15 -19l-104 -439c-7 -31 -26 -47 -57 -47h-59c-32 0 -51 16 -58 47l-105 439c-2 11 3 19 15 19h89c10 0 17 -4 19 -16l68 -376z" />
    <glyph glyph-name="w" unicode="w" horiz-adv-x="596" 
d="M399 -12c-41 0 -76 17 -101 44c-25 -27 -60 -44 -101 -44c-95 0 -158 69 -158 169v325c0 12 6 18 17 18h81c12 0 18 -6 18 -18v-331c0 -31 15 -51 42 -51c28 0 43 20 43 51v331c0 12 6 18 17 18h82c11 0 17 -6 17 -18v-331c0 -31 15 -51 43 -51c27 0 42 20 42 51v331
c0 12 6 18 18 18h81c11 0 17 -6 17 -18v-325c0 -100 -63 -169 -158 -169z" />
    <glyph glyph-name="wacute" unicode="&#x1e83;" horiz-adv-x="596" 
d="M391 681c15 0 18 -10 10 -21l-72 -91c-5 -8 -12 -11 -21 -11h-51c-14 0 -19 9 -11 21l54 90c5 7 12 12 21 12h70zM399 -12c-41 0 -76 17 -101 44c-25 -27 -60 -44 -101 -44c-95 0 -158 69 -158 169v325c0 12 6 18 17 18h81c12 0 18 -6 18 -18v-331c0 -31 15 -51 42 -51
c28 0 43 20 43 51v331c0 12 6 18 17 18h82c11 0 17 -6 17 -18v-331c0 -31 15 -51 43 -51c27 0 42 20 42 51v331c0 12 6 18 18 18h81c11 0 17 -6 17 -18v-325c0 -100 -63 -169 -158 -169z" />
    <glyph glyph-name="wcircumflex" unicode="&#x175;" horiz-adv-x="596" 
d="M203 559c-14 0 -19 10 -12 21l60 91c6 8 13 11 21 11h74c9 0 16 -3 21 -11l60 -91c7 -11 2 -21 -12 -21h-48c-9 0 -16 3 -22 11l-35 47l-37 -47c-5 -8 -12 -11 -21 -11h-49zM399 -12c-41 0 -76 17 -101 44c-25 -27 -60 -44 -101 -44c-95 0 -158 69 -158 169v325
c0 12 6 18 17 18h81c12 0 18 -6 18 -18v-331c0 -31 15 -51 42 -51c28 0 43 20 43 51v331c0 12 6 18 17 18h82c11 0 17 -6 17 -18v-331c0 -31 15 -51 43 -51c27 0 42 20 42 51v331c0 12 6 18 18 18h81c11 0 17 -6 17 -18v-325c0 -100 -63 -169 -158 -169z" />
    <glyph glyph-name="wdieresis" unicode="&#x1e85;" horiz-adv-x="596" 
d="M241 568c-32 0 -52 21 -52 52s20 52 52 52c30 0 51 -21 51 -52s-21 -52 -51 -52zM379 568c-31 0 -52 21 -52 52s21 52 52 52s52 -21 52 -52s-21 -52 -52 -52zM399 -12c-41 0 -76 17 -101 44c-25 -27 -60 -44 -101 -44c-95 0 -158 69 -158 169v325c0 12 6 18 17 18h81
c12 0 18 -6 18 -18v-331c0 -31 15 -51 42 -51c28 0 43 20 43 51v331c0 12 6 18 17 18h82c11 0 17 -6 17 -18v-331c0 -31 15 -51 43 -51c27 0 42 20 42 51v331c0 12 6 18 18 18h81c11 0 17 -6 17 -18v-325c0 -100 -63 -169 -158 -169z" />
    <glyph glyph-name="wgrave" unicode="&#x1e81;" horiz-adv-x="596" 
d="M211 682h70c9 0 16 -5 21 -12l54 -90c8 -12 3 -21 -11 -21h-51c-9 0 -16 3 -21 11l-72 91c-8 11 -5 21 10 21zM399 -12c-41 0 -76 17 -101 44c-25 -27 -60 -44 -101 -44c-95 0 -158 69 -158 169v325c0 12 6 18 17 18h81c12 0 18 -6 18 -18v-331c0 -31 15 -51 42 -51
c28 0 43 20 43 51v331c0 12 6 18 17 18h82c11 0 17 -6 17 -18v-331c0 -31 15 -51 43 -51c27 0 42 20 42 51v331c0 12 6 18 18 18h81c11 0 17 -6 17 -18v-325c0 -100 -63 -169 -158 -169z" />
    <glyph glyph-name="x" unicode="x" horiz-adv-x="394" 
d="M51 0c-12 0 -18 6 -18 18v117c0 46 21 85 58 113c-37 28 -58 67 -58 113v122c0 11 6 17 18 17h83c11 0 18 -6 18 -17v-128c0 -31 17 -51 45 -51c29 0 46 20 46 51v128c0 11 6 17 17 17h84c11 0 17 -6 17 -17v-122c0 -46 -20 -85 -57 -113c37 -28 57 -67 57 -113v-117
c0 -12 -6 -18 -17 -18h-84c-11 0 -17 6 -17 18v123c0 31 -17 51 -46 51c-28 0 -45 -20 -45 -51v-123c0 -12 -7 -18 -18 -18h-83z" />
    <glyph glyph-name="y" unicode="y" horiz-adv-x="411" 
d="M349 500c11 0 18 -6 18 -17v-526c0 -105 -62 -169 -164 -169c-96 0 -157 63 -164 166c0 12 6 18 17 18h84c10 0 16 -6 18 -18c3 -35 19 -54 45 -54c29 0 46 19 46 51v90c-15 -14 -36 -23 -61 -23c-85 0 -149 68 -149 169v296c0 11 6 17 17 17h83c11 0 17 -6 17 -17v-303
c0 -31 18 -51 47 -51s46 20 46 51v303c0 11 6 17 17 17h83z" />
    <glyph glyph-name="yacute" unicode="&#xfd;" horiz-adv-x="411" 
d="M153 558c-14 0 -19 9 -11 21l54 90c5 7 12 12 21 12h70c15 0 18 -10 10 -21l-72 -91c-5 -8 -12 -11 -21 -11h-51zM349 500c11 0 18 -6 18 -17v-526c0 -105 -62 -169 -164 -169c-96 0 -157 63 -164 166c0 12 6 18 17 18h84c10 0 16 -6 18 -18c3 -35 19 -54 45 -54
c29 0 46 19 46 51v90c-15 -14 -36 -23 -61 -23c-85 0 -149 68 -149 169v296c0 11 6 17 17 17h83c11 0 17 -6 17 -17v-303c0 -31 18 -51 47 -51s46 20 46 51v303c0 11 6 17 17 17h83z" />
    <glyph glyph-name="ycircumflex" unicode="&#x177;" horiz-adv-x="411" 
d="M99 559c-14 0 -19 10 -12 21l60 91c6 8 13 11 21 11h74c9 0 16 -3 21 -11l60 -91c7 -11 2 -21 -12 -21h-48c-9 0 -16 3 -22 11l-35 47l-37 -47c-5 -8 -12 -11 -21 -11h-49zM349 500c11 0 18 -6 18 -17v-526c0 -105 -62 -169 -164 -169c-96 0 -157 63 -164 166
c0 12 6 18 17 18h84c10 0 16 -6 18 -18c3 -35 19 -54 45 -54c29 0 46 19 46 51v90c-15 -14 -36 -23 -61 -23c-85 0 -149 68 -149 169v296c0 11 6 17 17 17h83c11 0 17 -6 17 -17v-303c0 -31 18 -51 47 -51s46 20 46 51v303c0 11 6 17 17 17h83z" />
    <glyph glyph-name="ydieresis" unicode="&#xff;" horiz-adv-x="411" 
d="M137 568c-32 0 -52 21 -52 52s20 52 52 52c30 0 51 -21 51 -52s-21 -52 -51 -52zM275 568c-31 0 -52 21 -52 52s21 52 52 52s52 -21 52 -52s-21 -52 -52 -52zM349 500c11 0 18 -6 18 -17v-526c0 -105 -62 -169 -164 -169c-96 0 -157 63 -164 166c0 12 6 18 17 18h84
c10 0 16 -6 18 -18c3 -35 19 -54 45 -54c29 0 46 19 46 51v90c-15 -14 -36 -23 -61 -23c-85 0 -149 68 -149 169v296c0 11 6 17 17 17h83c11 0 17 -6 17 -17v-303c0 -31 18 -51 47 -51s46 20 46 51v303c0 11 6 17 17 17h83z" />
    <glyph glyph-name="ygrave" unicode="&#x1ef3;" horiz-adv-x="411" 
d="M169 570l-72 91c-8 11 -5 21 10 21h70c9 0 16 -5 21 -12l54 -90c8 -12 3 -21 -11 -21h-51c-9 0 -16 3 -21 11zM349 500c11 0 18 -6 18 -17v-526c0 -105 -62 -169 -164 -169c-96 0 -157 63 -164 166c0 12 6 18 17 18h84c10 0 16 -6 18 -18c3 -35 19 -54 45 -54
c29 0 46 19 46 51v90c-15 -14 -36 -23 -61 -23c-85 0 -149 68 -149 169v296c0 11 6 17 17 17h83c11 0 17 -6 17 -17v-303c0 -31 18 -51 47 -51s46 20 46 51v303c0 11 6 17 17 17h83z" />
    <glyph glyph-name="z" unicode="z" horiz-adv-x="351" 
d="M163 111h146c12 0 18 -7 18 -18v-75c0 -12 -6 -18 -18 -18h-240c-28 0 -45 17 -45 47v21c0 17 2 35 13 54l154 268h-139c-11 0 -18 6 -18 17v76c0 11 7 17 18 17h231c28 0 44 -16 44 -44v-27c0 -14 0 -34 -12 -54z" />
    <glyph glyph-name="zacute" unicode="&#x17a;" horiz-adv-x="351" 
d="M259 681c15 0 18 -10 10 -21l-72 -91c-5 -8 -12 -11 -21 -11h-51c-14 0 -19 9 -11 21l54 90c5 7 12 12 21 12h70zM163 111h146c12 0 18 -7 18 -18v-75c0 -12 -6 -18 -18 -18h-240c-28 0 -45 17 -45 47v21c0 17 2 35 13 54l154 268h-139c-11 0 -18 6 -18 17v76
c0 11 7 17 18 17h231c28 0 44 -16 44 -44v-27c0 -14 0 -34 -12 -54z" />
    <glyph glyph-name="zcaron" unicode="&#x17e;" horiz-adv-x="351" 
d="M71 682h49c9 0 16 -3 21 -11l37 -47l35 47c6 8 13 11 22 11h48c14 0 19 -10 12 -21l-60 -91c-5 -8 -12 -11 -21 -11h-74c-8 0 -15 3 -21 11l-60 91c-7 11 -2 21 12 21zM163 111h146c12 0 18 -7 18 -18v-75c0 -12 -6 -18 -18 -18h-240c-28 0 -45 17 -45 47v21
c0 17 2 35 13 54l154 268h-139c-11 0 -18 6 -18 17v76c0 11 7 17 18 17h231c28 0 44 -16 44 -44v-27c0 -14 0 -34 -12 -54z" />
    <glyph glyph-name="zdotaccent" unicode="&#x17c;" horiz-adv-x="351" 
d="M178 560c-39 0 -66 29 -66 66c0 38 27 66 66 66c37 0 66 -28 66 -66c0 -35 -29 -66 -66 -66zM163 111h146c12 0 18 -7 18 -18v-75c0 -12 -6 -18 -18 -18h-240c-28 0 -45 17 -45 47v21c0 17 2 35 13 54l154 268h-139c-11 0 -18 6 -18 17v76c0 11 7 17 18 17h231
c28 0 44 -16 44 -44v-27c0 -14 0 -34 -12 -54z" />
    <glyph glyph-name="uni0163.ss01" horiz-adv-x="308" 
d="M253 -5c-12 0 -24 1 -35 3l-7 -42h5c40 -3 72 -33 72 -75c0 -57 -43 -90 -99 -90c-49 0 -87 27 -94 75c-3 11 5 18 16 18h27c10 0 13 -5 19 -14c5 -11 18 -17 32 -17c19 0 34 10 34 28c0 16 -14 27 -34 27c-13 0 -24 -1 -35 -3c-4 -1 -8 0 -11 3l-5 4c-3 3 -4 6 -3 11
l18 98c-48 30 -76 85 -76 161v212h-50c-11 0 -17 6 -17 17v72c0 11 6 17 17 17h50v129c0 11 6 17 17 17h83c11 0 17 -6 17 -17v-129h67c11 0 17 -6 17 -17v-72c0 -11 -6 -17 -17 -17h-67v-214c0 -50 22 -74 68 -74h10c11 0 17 -6 17 -17v-76c0 -12 -6 -18 -17 -18h-19z" />
    <glyph glyph-name="uni0410" unicode="&#x410;" horiz-adv-x="447" 
d="M62 0c-12 0 -18 6 -18 18v504c0 114 72 189 179 189c108 0 180 -75 180 -189v-504c0 -12 -7 -18 -18 -18h-90c-11 0 -18 6 -18 18v197h-108v-197c0 -12 -6 -18 -17 -18h-90zM169 330h108v201c0 39 -20 63 -54 63s-54 -24 -54 -63v-201z" />
    <glyph glyph-name="uni0411" unicode="&#x411;" horiz-adv-x="417" 
d="M97 -4c-34 0 -53 19 -53 53v463c0 114 78 192 193 192h116c10 0 18 -7 18 -17v-80c0 -10 -8 -18 -18 -18h-116c-41 0 -68 -30 -68 -77v-87h57c118 0 174 -88 174 -195v-40c0 -124 -56 -194 -174 -194h-129zM169 111h48c37 0 57 31 57 79v40c0 48 -20 80 -57 80h-48v-199z
" />
    <glyph glyph-name="uni0412" unicode="&#x412;" horiz-adv-x="427" 
d="M337 362c41 -31 65 -78 65 -135v-42c0 -115 -72 -189 -178 -189h-127c-30 0 -53 22 -53 53v476c0 112 70 186 172 186c104 0 174 -74 174 -186v-40c1 -52 -19 -95 -53 -123zM169 536v-127h48c30 0 48 23 48 62v65c0 36 -19 59 -50 59c-29 0 -46 -23 -46 -59zM275 175v56
c0 42 -20 67 -54 67h-52v-188h52c34 0 54 24 54 65z" />
    <glyph glyph-name="uni0413" unicode="&#x413;" horiz-adv-x="366" 
d="M62 0c-12 0 -18 6 -18 18v483c0 127 73 203 195 203h100c9 0 17 -8 17 -18v-80c0 -10 -8 -18 -17 -18h-97c-48 0 -72 -27 -72 -78v-492c0 -12 -6 -18 -17 -18h-91z" />
    <glyph glyph-name="uni0403" unicode="&#x403;" horiz-adv-x="366" 
d="M186 769c-14 0 -20 10 -12 21l61 90c5 8 13 11 21 11h70c14 0 19 -11 9 -22l-77 -90c-6 -7 -13 -10 -22 -10h-50zM62 0c-12 0 -18 6 -18 18v483c0 127 73 203 195 203h100c9 0 17 -8 17 -18v-80c0 -10 -8 -18 -17 -18h-97c-48 0 -72 -27 -72 -78v-492
c0 -12 -6 -18 -17 -18h-91z" />
    <glyph glyph-name="uni0490" unicode="&#x490;" horiz-adv-x="368" 
d="M341 796c11 0 18 -6 18 -17v-172c0 -10 -8 -18 -18 -18h-102c-44 0 -69 -28 -69 -76v-495c0 -12 -6 -18 -17 -18h-91c-12 0 -18 6 -18 18v495c0 115 77 192 195 192h18v74c0 11 7 17 18 17h66z" />
    <glyph glyph-name="uni0414" unicode="&#x414;" horiz-adv-x="520" 
d="M28 -117c-11 0 -17 7 -17 18v163c0 30 17 48 41 64c35 21 49 59 49 194v197c0 110 73 186 181 186h110c37 0 57 -21 57 -58v-523l2 -9c37 0 59 -27 59 -69v-145c0 -11 -6 -18 -17 -18h-87c-11 0 -18 7 -18 18v99h-256v-99c0 -11 -6 -18 -17 -18h-87zM179 115h146v474h-40
c-36 0 -58 -29 -58 -69v-225c0 -103 -12 -153 -48 -180z" />
    <glyph glyph-name="uni0415" unicode="&#x415;" horiz-adv-x="362" 
d="M217 -4c-108 0 -180 76 -180 188v333c0 111 72 187 180 187h105c11 0 18 -6 18 -17v-80c0 -12 -7 -18 -18 -18h-90c-43 0 -69 -30 -69 -76v-104h134c12 0 18 -7 18 -18v-76c0 -12 -6 -18 -18 -18h-134v-110c0 -46 26 -76 69 -76h90c11 0 18 -6 18 -17v-81
c0 -11 -7 -17 -18 -17h-105z" />
    <glyph glyph-name="uni0401" unicode="&#x401;" horiz-adv-x="362" 
d="M136 771c-32 0 -52 21 -52 52s20 52 52 52c30 0 51 -21 51 -52s-21 -52 -51 -52zM274 771c-31 0 -52 21 -52 52s21 52 52 52s52 -21 52 -52s-21 -52 -52 -52zM217 -4c-108 0 -180 76 -180 188v333c0 111 72 187 180 187h105c11 0 18 -6 18 -17v-80c0 -12 -7 -18 -18 -18
h-90c-43 0 -69 -30 -69 -76v-104h134c12 0 18 -7 18 -18v-76c0 -12 -6 -18 -18 -18h-134v-110c0 -46 26 -76 69 -76h90c11 0 18 -6 18 -17v-81c0 -11 -7 -17 -18 -17h-105z" />
    <glyph glyph-name="uni0416" unicode="&#x416;" horiz-adv-x="660" 
d="M61 0c-11 0 -18 6 -18 18v202c0 64 24 119 66 149l-71 312c-3 11 3 19 16 19h88c10 0 17 -4 19 -15l57 -279h51v277c0 11 6 17 17 17h88c11 0 18 -6 18 -17v-277h50l57 279c2 11 9 15 20 15h88c12 0 18 -8 15 -19l-70 -312c41 -30 65 -85 65 -149v-202
c0 -12 -6 -18 -18 -18h-90c-11 0 -17 6 -17 18v205c0 44 -21 68 -61 68h-39v-273c0 -12 -7 -18 -18 -18h-88c-11 0 -17 6 -17 18v273h-40c-40 0 -60 -24 -60 -68v-205c0 -12 -7 -18 -18 -18h-90z" />
    <glyph glyph-name="uni0417" unicode="&#x417;" horiz-adv-x="418" 
d="M202 -6c-106 0 -174 68 -181 174c-1 12 6 18 17 18h92c10 0 16 -6 17 -18c4 -37 25 -58 58 -58c40 0 62 27 62 66v53c0 41 -22 70 -63 70h-65c-11 0 -17 7 -17 18v76c0 12 6 18 17 18h58c35 0 53 27 53 63v64c0 36 -19 59 -48 59c-28 0 -44 -21 -47 -65
c-1 -12 -8 -18 -19 -18h-90c-11 0 -17 6 -17 18c7 109 74 180 173 180c103 0 172 -76 172 -188v-38c0 -52 -19 -97 -51 -124c46 -27 70 -79 70 -135v-43c0 -114 -72 -190 -191 -190z" />
    <glyph glyph-name="uni0418" unicode="&#x418;" horiz-adv-x="448" 
d="M274 683c0 11 6 17 18 17h89c11 0 18 -6 18 -17v-635c0 -34 -19 -52 -53 -52h-119c-124 0 -183 85 -183 197v490c0 11 6 17 18 17h91c11 0 17 -6 17 -17v-494c0 -46 23 -78 60 -78h44v572z" />
    <glyph glyph-name="uni0419" unicode="&#x419;" horiz-adv-x="448" 
d="M222 767c-67 0 -113 41 -121 103c-1 12 6 19 18 19h45c11 0 15 -6 19 -16c5 -16 19 -25 39 -25s34 9 39 25c4 10 8 16 18 16h46c11 0 18 -7 18 -19c-8 -62 -54 -103 -121 -103zM274 683c0 11 6 17 18 17h89c11 0 18 -6 18 -17v-635c0 -34 -19 -52 -53 -52h-119
c-124 0 -183 85 -183 197v490c0 11 6 17 18 17h91c11 0 17 -6 17 -17v-494c0 -46 23 -78 60 -78h44v572z" />
    <glyph glyph-name="uni040D" unicode="&#x40d;" horiz-adv-x="448" 
d="M291 769h-50c-9 0 -16 3 -22 10l-77 90c-10 11 -5 22 9 22h70c8 0 16 -3 21 -11l61 -90c8 -11 2 -21 -12 -21zM274 683c0 11 6 17 18 17h89c11 0 18 -6 18 -17v-635c0 -34 -19 -52 -53 -52h-119c-124 0 -183 85 -183 197v490c0 11 6 17 18 17h91c11 0 17 -6 17 -17v-494
c0 -46 23 -78 60 -78h44v572z" />
    <glyph glyph-name="uni041A" unicode="&#x41a;" horiz-adv-x="447" 
d="M67 0c-12 0 -18 6 -18 18v665c0 11 6 17 18 17h89c11 0 18 -6 18 -17v-277h53l57 279c2 11 10 15 20 15h89c13 0 19 -8 16 -19l-74 -312c46 -29 69 -85 69 -152v-199c0 -12 -7 -18 -18 -18h-91c-11 0 -17 6 -17 18v203c0 46 -21 70 -62 70h-42v-273c0 -12 -7 -18 -18 -18
h-89z" />
    <glyph glyph-name="uni040C" unicode="&#x40c;" horiz-adv-x="447" 
d="M177 769c-14 0 -20 10 -12 21l61 90c5 8 13 11 21 11h70c14 0 19 -11 9 -22l-77 -90c-6 -7 -13 -10 -22 -10h-50zM67 0c-12 0 -18 6 -18 18v665c0 11 6 17 18 17h89c11 0 18 -6 18 -17v-277h53l57 279c2 11 10 15 20 15h89c13 0 19 -8 16 -19l-74 -312
c46 -29 69 -85 69 -152v-199c0 -12 -7 -18 -18 -18h-91c-11 0 -17 6 -17 18v203c0 46 -21 70 -62 70h-42v-273c0 -12 -7 -18 -18 -18h-89z" />
    <glyph glyph-name="uni041B" unicode="&#x41b;" horiz-adv-x="486" 
d="M28 -4c-12 -1 -18 6 -18 17v81c0 11 6 16 17 19c41 5 61 36 61 94v312c0 112 73 185 181 185h110c38 0 58 -20 58 -57v-630c0 -11 -6 -18 -18 -18h-89c-11 0 -18 7 -18 18v572h-39c-37 0 -59 -25 -59 -69v-327c0 -115 -70 -190 -186 -197z" />
    <glyph glyph-name="uni041C" unicode="&#x41c;" horiz-adv-x="646" 
d="M67 0c-12 0 -18 6 -18 18v630c0 36 18 56 53 56h76c29 0 42 -17 51 -47l61 -199c10 -36 24 -88 32 -126h2c8 38 22 90 33 126l60 199c9 30 23 47 51 47h77c34 0 52 -20 52 -56v-630c0 -12 -6 -18 -17 -18h-88c-12 0 -17 6 -17 18v325c0 69 3 133 5 197h-3
c-8 -42 -20 -97 -32 -139l-50 -174c-8 -29 -26 -46 -57 -46h-30c-31 0 -49 17 -57 46l-50 174c-11 42 -24 97 -32 139h-3c3 -64 5 -128 5 -197v-325c0 -12 -5 -18 -17 -18h-87z" />
    <glyph glyph-name="uni041D" unicode="&#x41d;" horiz-adv-x="448" 
d="M275 683c0 11 6 17 17 17h90c11 0 17 -6 17 -17v-665c0 -12 -6 -18 -17 -18h-90c-11 0 -17 6 -17 18v278h-101v-278c0 -12 -7 -18 -18 -18h-89c-12 0 -18 6 -18 18v665c0 11 6 17 18 17h89c11 0 18 -6 18 -17v-272h101v272z" />
    <glyph glyph-name="uni041E" unicode="&#x41e;" horiz-adv-x="441" 
d="M221 -11c-109 0 -184 76 -184 191v340c0 115 75 191 184 191s183 -76 183 -188v-346c0 -112 -74 -188 -183 -188zM221 106c35 0 57 24 57 62v364c0 38 -22 63 -57 63s-58 -25 -58 -66v-358c0 -41 23 -65 58 -65z" />
    <glyph glyph-name="uni041F" unicode="&#x41f;" horiz-adv-x="454" 
d="M67 0c-12 0 -18 6 -18 18v625c0 37 20 57 58 57h241c37 0 57 -20 57 -57v-625c0 -12 -6 -18 -17 -18h-93c-11 0 -17 6 -17 18v567h-101v-567c0 -12 -7 -18 -18 -18h-92z" />
    <glyph glyph-name="uni0420" unicode="&#x420;" horiz-adv-x="422" 
d="M62 0c-12 0 -18 6 -18 18v504c0 113 70 190 176 190c109 0 182 -77 182 -190v-95c0 -111 -71 -185 -179 -185h-54v-224c0 -12 -6 -18 -17 -18h-90zM169 357h46c40 0 61 22 61 66v108c0 39 -20 63 -54 63c-32 0 -53 -24 -53 -63v-174z" />
    <glyph glyph-name="uni0421" unicode="&#x421;" horiz-adv-x="412" 
d="M217 -12c-108 0 -180 76 -180 188v348c0 113 72 188 180 188c102 0 170 -75 174 -199c0 -12 -6 -18 -17 -18h-91c-10 0 -17 6 -17 17c-2 56 -22 82 -52 82c-32 0 -51 -23 -51 -61v-366c0 -38 19 -61 51 -61c33 0 54 31 56 91c1 11 7 17 17 17h91c12 0 18 -7 17 -19
c-4 -129 -71 -207 -178 -207z" />
    <glyph glyph-name="uni0422" unicode="&#x422;" horiz-adv-x="370" 
d="M342 700c12 0 18 -6 18 -17v-81c0 -11 -6 -17 -18 -17h-95v-567c0 -12 -6 -18 -17 -18h-90c-11 0 -17 6 -17 18v567h-96c-11 0 -17 6 -17 17v81c0 11 6 17 17 17h315z" />
    <glyph glyph-name="uni0423" unicode="&#x423;" horiz-adv-x="421" 
d="M50 -5c-11 0 -17 7 -17 18v80c0 12 6 18 17 18h140c39 0 61 29 61 77v55h-46c-116 0 -183 80 -183 196v244c0 11 6 17 18 17h90c11 0 17 -6 17 -17v-248c0 -46 24 -77 61 -77h43v325c0 11 7 17 18 17h90c11 0 18 -6 18 -17v-491c0 -116 -67 -197 -184 -197h-143z" />
    <glyph glyph-name="uni040E" unicode="&#x40e;" horiz-adv-x="421" 
d="M201 767c-67 0 -113 41 -121 103c-1 12 6 19 18 19h45c11 0 15 -6 19 -16c5 -16 19 -25 39 -25s34 9 39 25c4 10 8 16 18 16h46c11 0 18 -7 18 -19c-8 -62 -54 -103 -121 -103zM50 -5c-11 0 -17 7 -17 18v80c0 12 6 18 17 18h140c39 0 61 29 61 77v55h-46
c-116 0 -183 80 -183 196v244c0 11 6 17 18 17h90c11 0 17 -6 17 -17v-248c0 -46 24 -77 61 -77h43v325c0 11 7 17 18 17h90c11 0 18 -6 18 -17v-491c0 -116 -67 -197 -184 -197h-143z" />
    <glyph glyph-name="uni0424" unicode="&#x424;" horiz-adv-x="619" 
d="M266 -54c-11 0 -18 7 -18 18v82h-40c-112 0 -183 77 -183 197v226c0 119 71 195 183 195h40v69c0 11 7 18 18 18h88c10 0 17 -7 17 -18v-69h40c112 0 183 -76 183 -195v-226c0 -120 -71 -197 -183 -197h-40v-82c0 -11 -7 -18 -17 -18h-88zM215 162h33v387h-33
c-42 0 -65 -27 -65 -73v-242c0 -45 23 -72 65 -72zM371 162h33c43 0 66 27 66 72v242c0 46 -23 73 -66 73h-33v-387z" />
    <glyph glyph-name="uni0425" unicode="&#x425;" horiz-adv-x="429" 
d="M392 484c0 -54 -20 -98 -57 -130c37 -32 57 -76 57 -129v-207c0 -12 -7 -18 -18 -18h-90c-11 0 -18 6 -18 18v216c0 37 -20 62 -52 62c-31 0 -52 -25 -52 -62v-216c0 -12 -6 -18 -17 -18h-90c-12 0 -18 6 -18 18v207c0 53 20 97 57 129c-37 32 -57 76 -57 130v199
c0 11 6 17 18 17h90c11 0 17 -6 17 -17v-208c0 -37 21 -62 52 -62c32 0 52 25 52 62v208c0 11 7 17 18 17h90c11 0 18 -6 18 -17v-199z" />
    <glyph glyph-name="uni0427" unicode="&#x427;" horiz-adv-x="416" 
d="M260 0c-12 0 -18 6 -18 18v209h-47c-117 0 -183 79 -183 195v261c0 11 6 17 18 17h91c11 0 17 -6 17 -17v-265c0 -47 22 -75 60 -75h44v340c0 11 6 17 18 17h89c11 0 18 -6 18 -17v-665c0 -12 -7 -18 -18 -18h-89z" />
    <glyph glyph-name="uni0426" unicode="&#x426;" horiz-adv-x="469" 
d="M357 -114c-11 0 -18 6 -18 17v96h-112c-125 0 -183 85 -183 199v485c0 11 6 17 18 17h91c11 0 17 -6 17 -17v-489c0 -47 23 -79 60 -79h44v568c0 11 6 17 18 17h90c11 0 17 -6 17 -17v-567l2 -1c38 0 58 -20 58 -58v-154c0 -11 -6 -17 -18 -17h-84z" />
    <glyph glyph-name="uni0428" unicode="&#x428;" horiz-adv-x="658" 
d="M225 -1c-123 0 -181 85 -181 196v488c0 11 6 17 18 17h89c11 0 18 -6 18 -17v-492c0 -44 23 -76 59 -76h39v568c0 11 6 17 18 17h88c11 0 17 -6 17 -17v-568h95v568c0 11 6 17 18 17h88c12 0 18 -6 18 -17v-626c0 -37 -20 -58 -58 -58h-326z" />
    <glyph glyph-name="uni0429" unicode="&#x429;" horiz-adv-x="684" 
d="M572 -114c-11 0 -17 6 -17 17v97h-330c-123 0 -181 85 -181 195v488c0 11 6 17 18 17h89c11 0 18 -6 18 -17v-492c0 -44 23 -76 59 -76h41v568c0 11 6 17 17 17h88c11 0 18 -6 18 -17v-568h99v568c0 11 6 17 18 17h88c12 0 18 -6 18 -17v-566l2 -2c37 0 57 -20 57 -57
v-155c0 -11 -6 -17 -17 -17h-85z" />
    <glyph glyph-name="uni040F" unicode="&#x40f;" horiz-adv-x="448" 
d="M182 -114c-12 0 -18 6 -18 17v97h-57c-38 0 -58 20 -58 58v625c0 11 6 17 18 17h89c11 0 18 -6 18 -17v-568h101v568c0 11 6 17 17 17h90c11 0 17 -6 17 -17v-625c0 -38 -20 -58 -57 -58h-57v-97c0 -11 -6 -17 -18 -17h-85z" />
    <glyph glyph-name="uni042C" unicode="&#x42c;" horiz-adv-x="423" 
d="M107 -4c-38 0 -58 21 -58 58v629c0 11 6 17 18 17h89c11 0 18 -6 18 -17v-248h56c104 0 174 -79 174 -193v-53c0 -114 -70 -193 -174 -193h-123zM174 112h47c36 0 57 26 57 70v66c0 44 -21 72 -57 72h-47v-208z" />
    <glyph glyph-name="uni042A" unicode="&#x42a;" horiz-adv-x="480" 
d="M287 435c108 0 174 -75 174 -193v-53c0 -118 -66 -193 -174 -193h-124c-37 0 -57 21 -57 58v531h-79c-11 0 -17 6 -17 17v81c0 11 6 17 17 17h149c37 0 54 -20 54 -57v-208h57zM335 182v66c0 40 -20 72 -57 72h-48v-208h48c37 0 57 31 57 70z" />
    <glyph glyph-name="uni042B" unicode="&#x42b;" horiz-adv-x="629" 
d="M473 0c-11 0 -17 6 -17 18v668c0 11 6 17 17 17h90c11 0 17 -6 17 -17v-668c0 -12 -6 -18 -17 -18h-90zM107 -4c-38 0 -58 21 -58 58v629c0 11 6 17 18 17h89c11 0 18 -6 18 -17v-248h56c107 0 173 -75 173 -193v-53c0 -118 -65 -193 -173 -193h-123zM174 112h47
c37 0 57 29 57 64v78c0 36 -20 66 -57 66h-47v-208z" />
    <glyph glyph-name="uni0409" unicode="&#x409;" horiz-adv-x="681" 
d="M28 -3c-12 -1 -18 6 -18 17v81c0 10 6 16 17 18c40 5 62 36 62 92v312c0 111 73 187 180 187h108c38 0 58 -20 58 -58v-211h53c117 0 174 -88 174 -193v-53c0 -122 -57 -193 -174 -193h-119c-38 0 -58 21 -58 58v535h-38c-36 0 -59 -28 -59 -71v-329
c0 -112 -72 -185 -186 -192zM435 112h44c37 0 57 31 57 77v52c0 47 -20 79 -57 79h-44v-208z" />
    <glyph glyph-name="uni040A" unicode="&#x40a;" horiz-adv-x="643" 
d="M452 421c116 0 172 -86 172 -192v-41c0 -123 -56 -192 -172 -192h-121c-37 0 -57 20 -57 57v253h-99v-288c0 -12 -6 -18 -17 -18h-91c-12 0 -18 6 -18 18v665c0 11 6 17 18 17h91c11 0 17 -6 17 -17v-262h99v262c0 11 6 17 17 17h89c11 0 17 -6 17 -17v-262h55zM498 187
v41c0 48 -20 78 -55 78h-46v-195h46c35 0 55 29 55 76z" />
    <glyph glyph-name="uni0405" unicode="&#x405;" horiz-adv-x="411" 
d="M206 -12c-110 0 -178 79 -182 208c0 12 6 18 17 18h90c11 0 17 -6 18 -17c2 -62 22 -92 59 -92c35 0 53 22 53 58c0 138 -231 196 -231 384c0 103 69 165 171 165c105 0 172 -75 176 -199c0 -12 -6 -18 -17 -18h-89c-11 0 -18 6 -18 18c-2 57 -19 83 -50 83
s-49 -16 -49 -49c0 -123 233 -182 233 -384c0 -108 -73 -175 -181 -175z" />
    <glyph glyph-name="uni0404" unicode="&#x404;" horiz-adv-x="412" 
d="M378 214c12 0 18 -7 17 -19c-4 -129 -71 -207 -178 -207c-108 0 -180 76 -180 188v348c0 113 72 188 180 188c102 0 170 -75 174 -199c0 -12 -6 -18 -17 -18h-91c-10 0 -17 6 -17 17c-2 56 -22 82 -52 82c-32 0 -51 -23 -51 -61v-127h128c11 0 18 -7 18 -18v-66
c0 -11 -7 -17 -18 -17h-128v-138c0 -38 19 -61 51 -61c33 0 54 31 56 91c1 11 7 17 17 17h91z" />
    <glyph glyph-name="uni042D" unicode="&#x42d;" horiz-adv-x="412" 
d="M195 712c108 0 180 -75 180 -188v-348c0 -112 -72 -188 -180 -188c-107 0 -174 78 -178 207c-1 12 5 19 17 19h91c10 0 16 -6 17 -17c2 -60 23 -91 56 -91c32 0 51 23 51 61v138h-128c-11 0 -18 6 -18 17v66c0 11 7 18 18 18h128v127c0 38 -19 61 -51 61
c-30 0 -50 -26 -52 -82c0 -11 -7 -17 -17 -17h-91c-11 0 -17 6 -17 18c4 124 72 199 174 199z" />
    <glyph glyph-name="uni0406" unicode="&#x406;" horiz-adv-x="223" 
d="M49 683c0 11 6 17 18 17h89c11 0 18 -6 18 -17v-665c0 -12 -7 -18 -18 -18h-89c-12 0 -18 6 -18 18v665z" />
    <glyph glyph-name="uni0407" unicode="&#x407;" horiz-adv-x="223" 
d="M43 771c-32 0 -52 21 -52 52s20 52 52 52c30 0 51 -21 51 -52s-21 -52 -51 -52zM181 771c-31 0 -52 21 -52 52s21 52 52 52s52 -21 52 -52s-21 -52 -52 -52zM49 683c0 11 6 17 18 17h89c11 0 18 -6 18 -17v-665c0 -12 -7 -18 -18 -18h-89c-12 0 -18 6 -18 18v665z" />
    <glyph glyph-name="uni0408" unicode="&#x408;" horiz-adv-x="410" 
d="M187 -12c-110 0 -174 82 -177 208c0 12 5 18 17 18h91c10 0 16 -6 17 -17c2 -59 21 -92 54 -92s52 24 52 69v509c0 12 6 18 17 18h90c12 0 18 -6 18 -18v-498c0 -121 -61 -197 -179 -197z" />
    <glyph glyph-name="uni040B" unicode="&#x40b;" horiz-adv-x="502" 
d="M140 0c-11 0 -17 6 -17 18v567h-96c-11 0 -17 6 -17 17v81c0 11 6 17 17 17h315c12 0 18 -6 18 -17v-81c0 -11 -6 -17 -18 -17h-95v-100c18 11 38 19 59 19c96 0 157 -68 157 -170v-316c0 -12 -6 -18 -17 -18h-89c-11 0 -17 6 -17 18v320c0 35 -17 55 -47 55
c-27 0 -46 -20 -46 -54v-321c0 -12 -6 -18 -17 -18h-90z" />
    <glyph glyph-name="uni042E" unicode="&#x42e;" horiz-adv-x="643" 
d="M427 712c106 0 179 -76 179 -187v-350c0 -111 -73 -187 -179 -187s-179 76 -179 187v121h-74v-278c0 -12 -7 -18 -18 -18h-89c-12 0 -18 6 -18 18v665c0 11 6 17 18 17h89c11 0 18 -6 18 -17v-272h74v114c0 111 73 187 179 187zM480 166v368c0 37 -21 60 -53 60
s-53 -23 -53 -60v-368c0 -37 21 -60 53 -60s53 23 53 60z" />
    <glyph glyph-name="uni042F" unicode="&#x42f;" horiz-adv-x="449" 
d="M227 712c107 0 178 -77 178 -190v-504c0 -12 -7 -18 -18 -18h-91c-11 0 -17 6 -17 18v218h-46l-76 -219c-4 -10 -7 -17 -18 -17h-98c-12 0 -22 7 -17 18l95 250c-47 31 -75 87 -75 157v97c0 113 72 190 183 190zM279 351v180c0 39 -20 63 -54 63c-35 0 -54 -24 -54 -63
v-110c0 -45 21 -70 61 -70h47z" />
    <glyph glyph-name="uni0402" unicode="&#x402;" horiz-adv-x="497" 
d="M303 -3c-11 0 -18 7 -18 18v76c0 11 6 18 18 18c22 1 37 21 37 51v183c0 37 -17 57 -47 57c-32 0 -48 -20 -48 -57v-325c0 -12 -6 -18 -18 -18h-87c-11 0 -17 6 -17 18v567h-96c-11 0 -17 6 -17 17v81c0 11 6 17 17 17h315c12 0 18 -6 18 -17v-81c0 -11 -6 -17 -18 -17
h-97v-93c19 12 41 20 64 20c92 0 155 -69 155 -170v-175c0 -100 -66 -169 -161 -170z" />
    <glyph glyph-name="uni0414.loclBGR" horiz-adv-x="503" 
d="M21 -117c-11 0 -17 7 -17 18v145c0 39 21 69 57 69h2l85 540c5 31 24 49 56 49h96c32 0 51 -17 56 -49l84 -540h2c38 0 58 -30 58 -69v-145c0 -11 -7 -18 -18 -18h-88c-11 0 -18 7 -18 18v99h-249v-99c0 -11 -6 -18 -17 -18h-89zM188 115h128l-64 456z" />
    <glyph glyph-name="uni0418.loclBGR" horiz-adv-x="452" 
d="M208 -12c-102 0 -164 76 -164 188v507c0 11 6 17 18 17h90c11 0 17 -6 17 -17v-516c0 -39 19 -63 50 -63c35 0 58 24 58 65v514c0 11 7 17 18 17h90c11 0 18 -6 18 -17v-665c0 -12 -7 -18 -18 -18h-40c-9 0 -15 4 -19 14l-10 26c-25 -32 -61 -52 -108 -52z" />
    <glyph glyph-name="uni0419.loclBGR" horiz-adv-x="452" 
d="M223 767c-67 0 -113 41 -121 103c-1 12 6 19 18 19h45c11 0 15 -6 19 -16c5 -16 19 -25 39 -25s34 9 39 25c4 10 8 16 18 16h46c11 0 18 -7 18 -19c-8 -62 -54 -103 -121 -103zM208 -12c-102 0 -164 76 -164 188v507c0 11 6 17 18 17h90c11 0 17 -6 17 -17v-516
c0 -39 19 -63 50 -63c35 0 58 24 58 65v514c0 11 7 17 18 17h90c11 0 18 -6 18 -17v-665c0 -12 -7 -18 -18 -18h-40c-9 0 -15 4 -19 14l-10 26c-25 -32 -61 -52 -108 -52z" />
    <glyph glyph-name="uni040D.loclBGR" horiz-adv-x="452" 
d="M292 769h-50c-9 0 -16 3 -22 10l-77 90c-10 11 -5 22 9 22h70c8 0 16 -3 21 -11l61 -90c8 -11 2 -21 -12 -21zM208 -12c-102 0 -164 76 -164 188v507c0 11 6 17 18 17h90c11 0 17 -6 17 -17v-516c0 -39 19 -63 50 -63c35 0 58 24 58 65v514c0 11 7 17 18 17h90
c11 0 18 -6 18 -17v-665c0 -12 -7 -18 -18 -18h-40c-9 0 -15 4 -19 14l-10 26c-25 -32 -61 -52 -108 -52z" />
    <glyph glyph-name="uni041B.loclBGR" horiz-adv-x="413" 
d="M409 18c2 -12 -4 -18 -16 -18h-93c-10 0 -17 5 -18 16l-75 532l-76 -532c-1 -11 -8 -16 -18 -16h-94c-11 0 -17 6 -15 18l109 638c5 31 24 49 56 49h75c32 0 51 -17 56 -49z" />
    <glyph glyph-name="uni041F.loclBGR" horiz-adv-x="447" 
d="M62 0c-12 0 -18 6 -18 18v505c0 112 71 189 179 189c109 0 180 -77 180 -189v-505c0 -12 -7 -18 -18 -18h-90c-11 0 -18 6 -18 18v514c0 38 -20 63 -54 63s-54 -25 -54 -63v-514c0 -12 -6 -18 -17 -18h-90z" />
    <glyph glyph-name="uni0422.loclBGR" horiz-adv-x="370" 
d="M342 700c12 0 18 -6 18 -17v-81c0 -11 -6 -17 -18 -17h-95v-567c0 -12 -6 -18 -17 -18h-90c-11 0 -17 6 -17 18v567h-96c-11 0 -17 6 -17 17v81c0 11 6 17 17 17h315z" />
    <glyph glyph-name="uni0423.loclBGR" horiz-adv-x="412" 
d="M357 701c11 0 18 -6 18 -18v-491c0 -115 -67 -196 -184 -196h-146c-11 0 -17 7 -17 18v80c0 11 6 18 17 18h137c45 0 67 29 67 77v59c-17 -12 -37 -19 -60 -19c-101 0 -172 77 -172 190v264c0 12 6 18 18 18h90c11 0 17 -6 17 -18v-273c0 -39 20 -63 54 -63s53 24 53 65
v271c0 12 7 18 18 18h90z" />
    <glyph glyph-name="uni040E.loclBGR" horiz-adv-x="412" 
d="M205 767c-67 0 -113 41 -121 103c-1 12 6 19 18 19h45c11 0 15 -6 19 -16c5 -16 19 -25 39 -25s34 9 39 25c4 10 8 16 18 16h46c11 0 18 -7 18 -19c-8 -62 -54 -103 -121 -103zM357 701c11 0 18 -6 18 -18v-491c0 -115 -67 -196 -184 -196h-146c-11 0 -17 7 -17 18v80
c0 11 6 18 17 18h137c45 0 67 29 67 77v59c-17 -12 -37 -19 -60 -19c-101 0 -172 77 -172 190v264c0 12 6 18 18 18h90c11 0 17 -6 17 -18v-273c0 -39 20 -63 54 -63s53 24 53 65v271c0 12 7 18 18 18h90z" />
    <glyph glyph-name="uni0424.loclBGR" horiz-adv-x="640" 
d="M436 711c100 0 167 -75 167 -185v-352c0 -110 -67 -185 -167 -185c-19 0 -37 4 -54 11v-101c0 -12 -7 -18 -18 -18h-88c-11 0 -17 6 -17 18v101c-17 -7 -36 -12 -55 -12c-100 0 -167 75 -167 185v353c0 110 67 185 167 185c19 0 38 -4 55 -11v86c0 11 6 17 17 17h88
c11 0 18 -6 18 -17v-86c17 7 35 11 54 11zM210 105c29 0 49 23 49 58v374c0 35 -20 58 -49 58c-30 0 -50 -23 -50 -58v-374c0 -35 20 -58 50 -58zM480 164v373c0 35 -20 58 -50 58c-29 0 -48 -23 -48 -58v-374c0 -35 19 -58 48 -58c30 0 50 23 50 59z" />
    <glyph glyph-name="uni0427.loclBGR" horiz-adv-x="429" 
d="M272 0c-11 0 -18 6 -18 18v222c-16 -13 -36 -20 -60 -20c-101 0 -172 76 -172 190v273c0 12 7 18 18 18h90c12 0 17 -6 17 -18v-282c0 -39 20 -64 54 -64s53 25 53 65v281c0 12 7 18 18 18h90c11 0 18 -6 18 -18v-665c0 -12 -7 -18 -18 -18h-90z" />
    <glyph glyph-name="uni0426.loclBGR" horiz-adv-x="501" 
d="M391 -114c-12 0 -18 6 -18 17v97c-24 7 -43 25 -50 42c-24 -31 -63 -54 -116 -54c-100 0 -163 77 -163 188v507c0 11 7 17 18 17h90c12 0 17 -6 17 -17v-516c0 -38 18 -63 51 -63s57 24 57 65v514c0 11 7 17 18 17h90c11 0 18 -6 18 -17v-523c0 -94 88 -23 88 -124v-133
c0 -11 -6 -17 -18 -17h-82z" />
    <glyph glyph-name="uni0428.loclBGR" horiz-adv-x="671" 
d="M219 -12c-107 0 -175 77 -175 190v505c0 11 6 17 18 17h88c12 0 18 -6 18 -17v-514c0 -39 18 -64 51 -64s52 25 52 64v514c0 11 6 17 18 17h88c12 0 18 -6 18 -17v-516c0 -39 19 -63 50 -63c32 0 53 24 53 65v514c0 11 6 17 18 17h88c12 0 18 -6 18 -17v-665
c0 -12 -6 -18 -15 -18h-33c-10 0 -16 5 -20 14l-8 25c-26 -31 -62 -51 -114 -51c-44 0 -82 19 -102 53c-25 -34 -65 -53 -111 -53z" />
    <glyph glyph-name="uni0429.loclBGR" horiz-adv-x="718" 
d="M611 -114c-12 0 -18 6 -18 17v97c-24 7 -43 24 -50 41c-21 -31 -54 -53 -106 -53c-45 0 -81 15 -108 41c-27 -26 -66 -41 -111 -41c-105 0 -174 77 -174 190v505c0 11 6 17 18 17h88c11 0 17 -6 17 -17v-514c0 -39 19 -64 51 -64c33 0 52 25 52 64v514c0 11 7 17 18 17
h89c12 0 17 -6 17 -17v-516c0 -38 20 -63 53 -63c31 0 50 24 50 65v514c0 11 7 17 18 17h88c11 0 17 -6 17 -17v-523c0 -88 89 -22 89 -117v-140c0 -11 -7 -17 -18 -17h-80z" />
    <glyph glyph-name="uni041B.ss01" horiz-adv-x="487" 
d="M28 -4c-12 0 -18 6 -18 18v82c0 10 6 17 17 18c41 6 62 35 62 90v319c0 113 70 189 177 189c106 0 177 -76 177 -189v-505c0 -12 -7 -18 -18 -18h-90c-11 0 -18 6 -18 18v514c0 39 -18 62 -51 62s-52 -23 -52 -62v-342c0 -114 -70 -193 -186 -194z" />
    <glyph glyph-name="uni0430" unicode="&#x430;" horiz-adv-x="390" 
d="M197 -11c-103 0 -171 68 -171 167c0 88 66 151 163 151h50v43c0 30 -16 50 -45 50c-30 0 -43 -19 -44 -44c-1 -10 -7 -13 -18 -13h-82c-11 0 -17 7 -17 18c8 90 70 151 162 151c98 0 162 -69 162 -169v-192c0 -97 -59 -162 -160 -162zM195 101c29 0 44 19 44 49v54h-43
c-33 0 -51 -19 -51 -48c0 -34 18 -55 50 -55z" />
    <glyph glyph-name="uni0431" unicode="&#x431;" horiz-adv-x="403" 
d="M204 -12c-99 0 -165 62 -165 152v349c0 101 58 168 157 194c50 13 88 21 118 28c12 2 19 -4 19 -16v-75c0 -11 -5 -17 -15 -19c-35 -7 -73 -13 -97 -21c-45 -14 -64 -38 -65 -89v-24c24 16 47 23 81 23c79 0 133 -62 133 -162v-188c0 -90 -66 -152 -166 -152zM204 100
c30 0 48 22 48 55v168c0 34 -18 56 -48 56s-48 -22 -48 -56v-168c0 -33 18 -55 48 -55z" />
    <glyph glyph-name="uni0432" unicode="&#x432;" horiz-adv-x="397" 
d="M305 268c40 -18 67 -68 67 -126c0 -87 -57 -146 -141 -146h-136c-37 0 -56 20 -56 56v293c0 99 62 167 157 167s157 -59 157 -146c0 -41 -19 -79 -48 -98zM156 361v-54h39c30 0 46 19 46 53c0 31 -15 48 -44 48c-26 0 -41 -18 -41 -47zM205 106c31 0 50 18 50 50
c0 33 -19 52 -50 52h-49v-102h49z" />
    <glyph glyph-name="uni0433" unicode="&#x433;" horiz-adv-x="296" 
d="M56 0c-11 0 -17 6 -17 18v293c0 125 61 191 177 191h46c12 0 18 -6 18 -17v-77c0 -11 -6 -17 -18 -17h-42c-43 0 -64 -22 -64 -66v-307c0 -12 -6 -18 -17 -18h-83z" />
    <glyph glyph-name="uni0453" unicode="&#x453;" horiz-adv-x="296" 
d="M274 681c15 0 18 -10 10 -21l-72 -91c-5 -8 -12 -11 -21 -11h-51c-14 0 -19 9 -11 21l54 90c5 7 12 12 21 12h70zM56 0c-11 0 -17 6 -17 18v293c0 125 61 191 177 191h46c12 0 18 -6 18 -17v-77c0 -11 -6 -17 -18 -17h-42c-43 0 -64 -22 -64 -66v-307
c0 -12 -6 -18 -17 -18h-83z" />
    <glyph glyph-name="uni0491" unicode="&#x491;" horiz-adv-x="312" 
d="M56 0c-11 0 -17 6 -17 18v314c0 104 59 170 154 170l8 4v56c0 11 6 17 17 17h60c11 0 17 -6 17 -17v-112c0 -37 -19 -57 -56 -57h-31c-32 0 -52 -19 -52 -54v-321c0 -12 -6 -18 -17 -18h-83z" />
    <glyph glyph-name="uni0434" unicode="&#x434;" horiz-adv-x="462" 
d="M28 -114c-11 0 -18 6 -18 17v155c0 28 14 40 29 51c26 16 41 36 41 76v163c0 84 64 155 152 155h102c36 0 60 -19 60 -55v-340l3 -3c31 0 48 -19 48 -54v-148c0 -11 -6 -17 -17 -17h-75c-11 0 -18 6 -18 17v97h-214v-97c0 -11 -6 -17 -17 -17h-76zM161 105h117v293h-32
c-31 0 -50 -24 -50 -64v-126c0 -45 -12 -76 -35 -103z" />
    <glyph glyph-name="uni0435" unicode="&#x435;" horiz-adv-x="391" 
d="M196 -11c-97 0 -163 67 -163 169v189c2 98 67 164 166 164c96 2 166 -65 166 -163c0 -92 -66 -155 -164 -155h-49v-42c0 -31 16 -51 45 -51c25 0 41 16 45 42c2 12 8 17 18 17h84c11 0 17 -6 17 -18c-7 -91 -72 -152 -165 -152zM152 297h49c29 0 46 18 46 48
c0 36 -18 55 -48 55c-31 0 -47 -20 -47 -51v-52z" />
    <glyph glyph-name="uni0451" unicode="&#x451;" horiz-adv-x="391" 
d="M122 568c-32 0 -52 21 -52 52s20 52 52 52c30 0 51 -21 51 -52s-21 -52 -51 -52zM260 568c-31 0 -52 21 -52 52s21 52 52 52s52 -21 52 -52s-21 -52 -52 -52zM196 -11c-97 0 -163 67 -163 169v189c2 98 67 164 166 164c96 2 166 -65 166 -163c0 -92 -66 -155 -164 -155
h-49v-42c0 -31 16 -51 45 -51c25 0 41 16 45 42c2 12 8 17 18 17h84c11 0 17 -6 17 -18c-7 -91 -72 -152 -165 -152zM152 297h49c29 0 46 18 46 48c0 36 -18 55 -48 55c-31 0 -47 -20 -47 -51v-52z" />
    <glyph glyph-name="uni0436" unicode="&#x436;" horiz-adv-x="582" 
d="M50 0c-11 0 -17 6 -17 18v126c0 65 27 112 70 139l-79 197c-5 12 3 20 15 20h85c10 0 17 -4 21 -14l65 -175h24v172c0 12 6 18 17 18h80c11 0 18 -6 18 -18v-172h23l66 175c3 10 11 14 20 14h86c12 0 19 -8 14 -20l-78 -197c43 -27 70 -74 70 -139v-126
c0 -12 -7 -18 -18 -18h-81c-11 0 -18 6 -18 18v133c0 30 -18 49 -47 49h-37v-182c0 -12 -7 -18 -18 -18h-80c-11 0 -17 6 -17 18v182h-37c-29 0 -48 -19 -48 -49v-133c0 -12 -6 -18 -17 -18h-82z" />
    <glyph glyph-name="uni0437" unicode="&#x437;" horiz-adv-x="373" 
d="M181 -12c-95 0 -160 61 -168 151c-1 12 6 19 17 19h84c11 0 16 -6 19 -17c5 -25 23 -41 50 -41c29 0 47 20 47 55c0 33 -20 53 -55 53h-31c-11 0 -18 6 -18 17v65c0 11 7 17 18 17h28c31 0 49 21 49 53c0 28 -16 45 -43 45c-21 0 -36 -12 -39 -40c-2 -12 -7 -18 -18 -18
h-83c-11 0 -17 6 -16 18c7 90 68 147 156 147c93 0 155 -59 155 -146c0 -42 -21 -80 -53 -98c41 -16 68 -59 68 -113c0 -100 -67 -167 -167 -167z" />
    <glyph glyph-name="uni0438" unicode="&#x438;" horiz-adv-x="406" 
d="M204 -1c-98 0 -165 68 -165 168v316c0 12 6 18 17 18h83c11 0 17 -6 17 -18v-323c0 -30 19 -49 48 -49h40v372c0 12 7 18 18 18h83c11 0 17 -6 17 -18v-427c0 -37 -20 -57 -56 -57h-102z" />
    <glyph glyph-name="uni0439" unicode="&#x439;" horiz-adv-x="406" 
d="M200 560c-67 0 -113 40 -121 103c-1 12 6 18 17 18h46c11 0 15 -5 19 -16c5 -15 18 -25 39 -25c20 0 33 10 39 25c4 11 8 16 18 16h46c11 0 18 -7 17 -18c-8 -63 -53 -103 -120 -103zM204 -1c-98 0 -165 68 -165 168v316c0 12 6 18 17 18h83c11 0 17 -6 17 -18v-323
c0 -30 19 -49 48 -49h40v372c0 12 7 18 18 18h83c11 0 17 -6 17 -18v-427c0 -37 -20 -57 -56 -57h-102z" />
    <glyph glyph-name="uni045D" unicode="&#x45d;" horiz-adv-x="406" 
d="M101 682h70c9 0 16 -5 21 -12l54 -90c8 -12 3 -21 -11 -21h-51c-9 0 -16 3 -21 11l-72 91c-8 11 -5 21 10 21zM204 -1c-98 0 -165 68 -165 168v316c0 12 6 18 17 18h83c11 0 17 -6 17 -18v-323c0 -30 19 -49 48 -49h40v372c0 12 7 18 18 18h83c11 0 17 -6 17 -18v-427
c0 -37 -20 -57 -56 -57h-102z" />
    <glyph glyph-name="uni043A" unicode="&#x43a;" horiz-adv-x="403" 
d="M299 283c43 -27 69 -76 69 -139v-126c0 -12 -6 -18 -17 -18h-84c-11 0 -17 6 -17 18v133c0 30 -18 49 -47 49h-41v-182c0 -12 -6 -18 -18 -18h-82c-12 0 -18 6 -18 18v465c0 12 6 18 18 18h82c12 0 18 -6 18 -18v-172h29l68 175c3 10 10 14 20 14h85c13 0 20 -8 15 -20z
" />
    <glyph glyph-name="uni045C" unicode="&#x45c;" horiz-adv-x="403" 
d="M294 681c15 0 18 -10 10 -21l-72 -91c-5 -8 -12 -11 -21 -11h-51c-14 0 -19 9 -11 21l54 90c5 7 12 12 21 12h70zM299 283c43 -27 69 -76 69 -139v-126c0 -12 -6 -18 -17 -18h-84c-11 0 -17 6 -17 18v133c0 30 -18 49 -47 49h-41v-182c0 -12 -6 -18 -18 -18h-82
c-12 0 -18 6 -18 18v465c0 12 6 18 18 18h82c12 0 18 -6 18 -18v-172h29l68 175c3 10 10 14 20 14h85c13 0 20 -8 15 -20z" />
    <glyph glyph-name="uni043B" unicode="&#x43b;" horiz-adv-x="426" 
d="M28 -4c-11 0 -18 7 -18 18v76c0 11 7 18 18 18c24 1 39 20 39 51v178c0 100 66 167 164 167h95c36 0 56 -20 56 -56v-430c0 -11 -7 -18 -17 -18h-82c-10 0 -17 7 -17 18v375h-35c-29 0 -48 -19 -48 -49v-180c0 -100 -58 -167 -155 -168z" />
    <glyph glyph-name="uni043C" unicode="&#x43c;" horiz-adv-x="556" 
d="M62 0c-12 0 -18 6 -18 18v430c0 34 19 53 53 53h41c30 0 50 -12 62 -41l43 -105c12 -28 26 -72 34 -99h2c8 27 22 70 34 100l44 104c11 29 31 41 61 41h42c34 0 52 -19 52 -53v-430c0 -12 -6 -18 -17 -18h-79c-12 0 -19 6 -18 18v161c0 53 1 104 3 145h-2
c-9 -32 -19 -64 -30 -95l-25 -62c-9 -27 -30 -40 -60 -40h-12c-29 0 -51 13 -60 40l-25 62c-11 31 -21 63 -30 95h-2c2 -41 3 -92 3 -145v-161c1 -12 -5 -18 -17 -18h-79z" />
    <glyph glyph-name="uni043D" unicode="&#x43d;" horiz-adv-x="408" 
d="M247 483c0 11 6 17 18 17h82c11 0 17 -6 17 -17v-465c0 -12 -6 -18 -17 -18h-82c-12 0 -18 6 -18 18v181h-86v-181c0 -12 -6 -18 -17 -18h-82c-12 0 -18 6 -18 18v465c0 11 6 17 18 17h82c11 0 17 -6 17 -17v-174h86v174z" />
    <glyph glyph-name="uni043E" unicode="&#x43e;" horiz-adv-x="400" 
d="M200 -12c-100 0 -167 69 -167 170v185c0 100 67 169 167 169s167 -69 167 -169v-185c0 -101 -67 -170 -167 -170zM200 100c30 0 48 20 48 51v198c0 31 -18 52 -48 52s-48 -21 -48 -52v-198c0 -31 18 -51 48 -51z" />
    <glyph glyph-name="uni043F" unicode="&#x43f;" horiz-adv-x="410" 
d="M309 500c37 0 57 -20 57 -56v-426c0 -12 -7 -18 -18 -18h-83c-11 0 -17 6 -17 18v372h-86v-372c0 -12 -6 -18 -18 -18h-82c-12 0 -18 6 -18 18v426c0 36 20 56 56 56h209z" />
    <glyph glyph-name="uni0440" unicode="&#x440;" horiz-adv-x="405" 
d="M205 512c100 0 167 -69 167 -169v-185c0 -101 -67 -170 -147 -170c-25 0 -48 7 -68 20v-191c0 -11 -6 -17 -17 -17h-84c-11 0 -17 6 -17 17v526c0 100 67 169 166 169zM253 151v198c0 31 -18 51 -48 51s-48 -20 -48 -51v-198c0 -31 18 -51 48 -51s48 20 48 51z" />
    <glyph glyph-name="uni0441" unicode="&#x441;" horiz-adv-x="387" 
d="M199 -12c-99 0 -166 69 -166 170v185c0 100 66 169 164 169c93 0 157 -62 164 -159c1 -12 -6 -18 -17 -18h-85c-10 0 -16 6 -17 18c-4 32 -20 47 -45 47c-28 0 -45 -20 -45 -51v-198c0 -31 17 -51 46 -51c26 0 43 17 47 52c1 12 7 18 17 18h85c12 0 18 -7 17 -20
c-7 -99 -71 -162 -165 -162z" />
    <glyph glyph-name="uni0442" unicode="&#x442;" horiz-adv-x="347" 
d="M132 0c-11 0 -18 6 -18 18v372h-86c-11 0 -18 6 -18 17v76c0 11 7 17 18 17h291c11 0 17 -6 17 -17v-76c0 -11 -6 -17 -17 -17h-87v-372c0 -12 -6 -18 -17 -18h-83z" />
    <glyph glyph-name="uni0443" unicode="&#x443;" horiz-adv-x="411" 
d="M349 500c11 0 18 -6 18 -17v-526c0 -105 -62 -169 -164 -169c-96 0 -157 63 -164 166c0 12 6 18 17 18h84c10 0 16 -6 18 -18c3 -35 19 -54 45 -54c29 0 46 19 46 51v90c-15 -14 -36 -23 -61 -23c-85 0 -149 68 -149 169v296c0 11 6 17 17 17h83c11 0 17 -6 17 -17v-303
c0 -31 18 -51 47 -51s46 20 46 51v303c0 11 6 17 17 17h83z" />
    <glyph glyph-name="uni045E" unicode="&#x45e;" horiz-adv-x="411" 
d="M199 560c-67 0 -113 40 -121 103c-1 12 6 18 17 18h46c11 0 15 -5 19 -16c5 -15 18 -25 39 -25c20 0 33 10 39 25c4 11 8 16 18 16h46c11 0 18 -7 17 -18c-8 -63 -53 -103 -120 -103zM349 500c11 0 18 -6 18 -17v-526c0 -105 -62 -169 -164 -169c-96 0 -157 63 -164 166
c0 12 6 18 17 18h84c10 0 16 -6 18 -18c3 -35 19 -54 45 -54c29 0 46 19 46 51v90c-15 -14 -36 -23 -61 -23c-85 0 -149 68 -149 169v296c0 11 6 17 17 17h83c11 0 17 -6 17 -17v-303c0 -31 18 -51 47 -51s46 20 46 51v303c0 11 6 17 17 17h83z" />
    <glyph glyph-name="uni0444" unicode="&#x444;" horiz-adv-x="593" 
d="M256 -200c-11 0 -17 6 -17 17v179h-42c-97 0 -164 68 -164 169v170c0 101 67 169 164 169h42v179c0 11 6 17 17 17h81c11 0 17 -6 17 -17v-179h43c98 0 163 -68 163 -169v-170c0 -101 -65 -169 -163 -169h-43v-179c0 -11 -6 -17 -17 -17h-81zM196 107h43v286h-43
c-28 0 -45 -20 -45 -51v-184c0 -31 17 -51 45 -51zM354 107h43c29 0 45 20 45 51v184c0 31 -16 51 -45 51h-43v-286z" />
    <glyph glyph-name="uni0445" unicode="&#x445;" horiz-adv-x="394" 
d="M51 0c-12 0 -18 6 -18 18v117c0 46 21 85 58 113c-37 28 -58 67 -58 113v122c0 11 6 17 18 17h83c11 0 18 -6 18 -17v-128c0 -31 17 -51 45 -51c29 0 46 20 46 51v128c0 11 6 17 17 17h84c11 0 17 -6 17 -17v-122c0 -46 -20 -85 -57 -113c37 -28 57 -67 57 -113v-117
c0 -12 -6 -18 -17 -18h-84c-11 0 -17 6 -17 18v123c0 31 -17 51 -46 51c-28 0 -45 -20 -45 -51v-123c0 -12 -7 -18 -18 -18h-83z" />
    <glyph glyph-name="uni0447" unicode="&#x447;" horiz-adv-x="392" 
d="M253 0c-12 0 -18 6 -18 18v122h-46c-97 0 -164 69 -164 167v176c0 12 6 18 18 18h83c11 0 18 -6 18 -18v-183c0 -28 18 -48 45 -48h46v231c0 12 6 18 18 18h83c11 0 18 -6 18 -18v-465c0 -12 -7 -18 -18 -18h-83z" />
    <glyph glyph-name="uni0446" unicode="&#x446;" horiz-adv-x="443" 
d="M329 -114c-11 0 -18 6 -18 17v93h-107c-98 0 -165 67 -165 167v320c0 12 6 18 17 18h83c11 0 17 -6 17 -18v-327c0 -30 19 -49 48 -49h44v376c0 12 7 18 18 18h83c11 0 17 -6 17 -18v-374l3 -2c36 0 56 -20 56 -56v-148c0 -11 -6 -17 -17 -17h-79z" />
    <glyph glyph-name="uni0448" unicode="&#x448;" horiz-adv-x="596" 
d="M203 -4c-99 0 -164 69 -164 169v318c0 12 6 18 17 18h81c12 0 18 -6 18 -18v-325c0 -30 17 -51 46 -51h40v376c0 12 6 18 17 18h82c11 0 17 -6 17 -18v-376h84v376c0 12 6 18 18 18h81c11 0 17 -6 17 -18v-431c0 -36 -19 -56 -56 -56h-298z" />
    <glyph glyph-name="uni0449" unicode="&#x449;" horiz-adv-x="626" 
d="M520 -114c-11 0 -17 6 -17 17v93h-300c-99 0 -164 69 -164 169v318c0 12 6 18 17 18h81c12 0 18 -6 18 -18v-325c0 -30 17 -51 46 -51h40v376c0 12 6 18 17 18h82c11 0 17 -6 17 -18v-376h84v376c0 12 6 18 18 18h81c11 0 17 -6 17 -18v-373l3 -3c37 0 56 -19 56 -56
v-148c0 -11 -6 -17 -17 -17h-79z" />
    <glyph glyph-name="uni045F" unicode="&#x45f;" horiz-adv-x="412" 
d="M172 -114c-11 0 -17 6 -17 17v97h-55c-36 0 -56 20 -56 56v427c0 11 6 17 18 17h82c12 0 18 -6 18 -17v-372h88v372c0 11 7 17 18 17h83c11 0 17 -6 17 -17v-427c0 -36 -20 -56 -56 -56h-54v-97c0 -11 -7 -17 -18 -17h-68z" />
    <glyph glyph-name="uni044C" unicode="&#x44c;" horiz-adv-x="390" 
d="M100 -4c-36 0 -56 20 -56 56v431c0 11 6 17 18 17h82c11 0 17 -6 17 -17v-159h47c97 0 164 -67 164 -162c0 -102 -71 -166 -166 -166h-106zM161 106h45c29 0 49 19 49 58c0 36 -20 55 -49 55h-45v-113z" />
    <glyph glyph-name="uni044A" unicode="&#x44a;" horiz-adv-x="451" 
d="M261 324c101 0 164 -67 164 -163c0 -101 -68 -165 -167 -165h-104c-37 0 -56 20 -56 56v340h-70c-11 0 -18 6 -18 17v74c0 11 7 17 18 17h132c36 0 53 -20 53 -56v-120h48zM258 107c29 0 49 19 49 56s-20 56 -49 56h-45v-112h45z" />
    <glyph glyph-name="uni044B" unicode="&#x44b;" horiz-adv-x="574" 
d="M100 -4c-36 0 -56 20 -56 56v431c0 11 6 17 18 17h82c11 0 17 -6 17 -17v-168h48c96 0 164 -60 164 -156s-72 -163 -167 -163h-106zM430 0c-11 0 -17 6 -17 18v465c0 11 6 17 17 17h83c11 0 17 -6 17 -17v-465c0 -12 -6 -18 -17 -18h-83zM161 107h45c29 0 49 18 49 53
c0 32 -20 51 -49 51h-45v-104z" />
    <glyph glyph-name="uni0459" unicode="&#x459;" horiz-adv-x="609" 
d="M428 315c96 0 163 -65 163 -161s-71 -158 -165 -158h-101c-36 0 -56 20 -56 56v341h-40c-29 0 -47 -19 -47 -50v-185c0 -95 -60 -160 -154 -162c-11 0 -18 7 -18 18v76c0 11 7 18 18 18c23 1 38 19 38 45v184c0 100 67 167 163 167h98c35 0 56 -21 56 -56v-133h45z
M426 107c29 0 49 18 49 53c0 32 -20 51 -49 51h-43v-104h43z" />
    <glyph glyph-name="uni045A" unicode="&#x45a;" horiz-adv-x="593" 
d="M62 0c-12 0 -18 6 -18 18v465c0 11 6 17 18 17h82c11 0 17 -6 17 -17v-172h87v172c0 11 6 17 18 17h82c11 0 17 -6 17 -17v-169h46c97 0 164 -65 164 -161c0 -95 -72 -157 -166 -157h-105c-36 0 -56 20 -56 56v148h-87v-182c0 -12 -6 -18 -17 -18h-82zM365 107h44
c29 0 49 18 49 52c0 32 -20 50 -49 50h-44v-102z" />
    <glyph glyph-name="uni0455" unicode="&#x455;" horiz-adv-x="390" 
d="M200 -12c-113 0 -172 81 -174 161c0 10 2 21 17 21h83c8 0 16 -4 19 -16c4 -31 18 -54 52 -54c31 0 48 19 48 43c0 78 -213 63 -213 223c0 88 67 146 160 146c116 0 161 -82 163 -147c0 -8 -2 -18 -17 -18h-83c-11 0 -16 7 -18 17c-4 22 -18 37 -44 37s-43 -16 -43 -38
c0 -75 214 -60 214 -224c0 -88 -66 -151 -164 -151z" />
    <glyph glyph-name="uni0454" unicode="&#x454;" horiz-adv-x="392" 
d="M199 -12c-99 0 -166 68 -166 170v185c0 101 66 169 165 169c94 0 159 -61 166 -159c1 -12 -5 -18 -17 -18h-85c-10 0 -16 6 -17 18c-4 33 -21 47 -47 47c-29 0 -46 -19 -46 -51v-57h130c11 0 18 -6 18 -17v-43c0 -11 -7 -17 -18 -17h-130v-64c0 -32 17 -51 46 -51
c26 0 43 15 47 50c1 12 7 18 17 18h85c12 0 18 -7 17 -20c-7 -99 -71 -160 -165 -160z" />
    <glyph glyph-name="uni044D" unicode="&#x44d;" horiz-adv-x="392" 
d="M193 -12c-94 0 -158 61 -165 160c-1 13 5 20 17 20h85c10 0 16 -6 17 -18c4 -35 21 -50 47 -50c29 0 46 19 46 51v64h-130c-11 0 -18 6 -18 17v43c0 11 7 17 18 17h130v57c0 32 -17 51 -46 51c-26 0 -43 -14 -47 -47c-1 -12 -7 -18 -17 -18h-85c-12 0 -18 6 -17 18
c7 98 72 159 166 159c99 0 165 -68 165 -169v-185c0 -102 -67 -170 -166 -170z" />
    <glyph glyph-name="uni0456" unicode="&#x456;" horiz-adv-x="206" 
d="M103 560c-39 0 -66 29 -66 66c0 38 27 66 66 66c37 0 66 -28 66 -66c0 -35 -29 -66 -66 -66zM62 0c-12 0 -18 6 -18 18v465c0 11 6 17 18 17h82c12 0 18 -6 18 -17v-465c0 -12 -6 -18 -18 -18h-82z" />
    <glyph glyph-name="uni0457" unicode="&#x457;" horiz-adv-x="230" 
d="M52 570c-29 0 -48 19 -49 50c1 30 20 49 49 49s50 -19 50 -49c0 -31 -21 -50 -50 -50zM178 570c-29 0 -49 19 -49 50c0 30 20 49 49 49c30 0 49 -19 50 -49c-1 -31 -20 -50 -50 -50zM75 0c-12 0 -18 6 -18 18v465c0 11 6 17 18 17h82c12 0 18 -6 18 -17v-465
c0 -12 -6 -18 -18 -18h-82z" />
    <glyph glyph-name="uni0458" unicode="&#x458;" horiz-adv-x="270" 
d="M160 560c-39 0 -66 29 -66 66c0 38 27 66 66 66c37 0 66 -28 66 -66c0 -35 -29 -66 -66 -66zM18 -205c-12 0 -18 6 -18 17v77c0 11 6 17 18 17h14c47 1 71 28 71 74v503c0 11 7 17 18 17h83c11 0 17 -6 17 -17v-488c0 -126 -69 -200 -185 -200h-18z" />
    <glyph glyph-name="uni045B" unicode="&#x45b;" horiz-adv-x="447" 
d="M97 0c-11 0 -18 6 -18 18v548h-51c-11 0 -18 6 -18 17v37c0 11 7 18 18 18h51v45c0 11 7 17 18 17h83c11 0 17 -6 17 -17v-45h114c11 0 17 -7 17 -18v-37c0 -11 -6 -17 -17 -17h-114v-83c15 13 38 21 59 21c91 0 152 -68 152 -170v-316c0 -12 -6 -18 -17 -18h-84
c-11 0 -17 6 -17 18v323c0 32 -17 52 -47 52c-28 0 -46 -20 -46 -52v-323c0 -12 -6 -18 -17 -18h-83z" />
    <glyph glyph-name="uni044E" unicode="&#x44e;" horiz-adv-x="570" 
d="M376 -12c-97 0 -162 69 -162 170v40h-54v-180c0 -12 -7 -18 -18 -18h-80c-12 0 -18 6 -18 18v465c0 11 6 17 18 17h80c11 0 18 -6 18 -17v-174h54v34c0 100 65 169 162 169c96 0 161 -69 161 -169v-185c0 -101 -65 -170 -161 -170zM376 100c28 0 45 20 45 51v198
c0 31 -17 51 -45 51c-29 0 -45 -20 -45 -51v-198c0 -31 16 -51 45 -51z" />
    <glyph glyph-name="uni044F" unicode="&#x44f;" horiz-adv-x="406" 
d="M206 512c95 0 162 -65 162 -163v-331c0 -12 -6 -18 -18 -18h-81c-11 0 -17 6 -17 18v156h-40l-69 -157c-5 -13 -13 -17 -23 -17h-85c-13 0 -20 9 -13 21l90 181c-47 27 -74 78 -74 141c0 103 73 169 168 169zM252 282v63c0 36 -17 55 -46 55c-31 0 -50 -20 -50 -58
s19 -60 52 -60h44z" />
    <glyph glyph-name="uni0452" unicode="&#x452;" horiz-adv-x="445" 
d="M256 504c89 0 151 -68 151 -170v-337c0 -137 -72 -202 -201 -203c-11 0 -18 6 -18 17v76c0 12 6 18 18 18c56 1 83 23 83 78v358c0 32 -17 52 -46 52s-46 -20 -46 -52v-323c0 -12 -7 -18 -18 -18h-83c-11 0 -17 6 -17 18v548h-52c-11 0 -17 6 -17 17v37c0 11 6 18 17 18
h52v45c0 11 6 17 17 17h83c11 0 18 -6 18 -17v-45h113c12 0 18 -7 18 -18v-37c0 -11 -6 -17 -18 -17h-113v-81c17 11 37 19 59 19z" />
    <glyph glyph-name="uni0432.loclBGR" horiz-adv-x="405" 
d="M316 365c38 -26 61 -68 61 -121v-86c0 -101 -69 -170 -169 -170c-101 0 -169 69 -169 170v384c0 101 63 170 161 170c99 0 162 -69 162 -170v-70c0 -44 -16 -81 -46 -107zM157 549v-138h39c29 0 48 20 48 52v86c0 31 -13 51 -44 51c-28 0 -43 -20 -43 -51zM258 152v100
c0 33 -21 53 -52 53h-49v-153c0 -32 19 -52 51 -52c31 0 50 20 50 52z" />
    <glyph glyph-name="uni0433.loclBGR" horiz-adv-x="390" 
d="M192 -12c-103 0 -166 61 -166 150c0 166 214 151 214 224c0 25 -16 39 -43 39c-25 0 -40 -14 -44 -37c-2 -11 -8 -17 -18 -17h-83c-11 0 -17 6 -17 18c7 88 66 147 160 147c102 0 163 -59 163 -143c0 -166 -213 -149 -213 -224c0 -28 18 -45 48 -45c29 0 48 19 52 52
c3 10 9 16 19 16h83c11 0 18 -7 17 -19c-7 -97 -70 -161 -172 -161z" />
    <glyph glyph-name="uni0434.loclBGR" horiz-adv-x="405" 
d="M200 512c99 0 166 -69 166 -169v-386c0 -105 -63 -169 -166 -169c-98 0 -160 63 -166 166c-1 12 5 18 17 18h84c10 0 16 -6 18 -18c3 -35 20 -54 47 -54c30 0 48 19 48 51v87c-18 -14 -40 -21 -63 -21c-86 0 -152 68 -152 169v157c0 100 67 169 167 169zM200 128
c30 0 48 20 48 51v170c0 31 -18 51 -48 51s-48 -20 -48 -51v-170c0 -31 18 -51 48 -51z" />
    <glyph glyph-name="uni0436.loclBGR" horiz-adv-x="582" 
d="M544 500c12 0 19 -8 14 -20l-78 -197c43 -27 70 -74 70 -139v-126c0 -12 -7 -18 -18 -18h-81c-11 0 -18 6 -18 18v133c0 30 -18 49 -47 49h-37v-182c0 -12 -7 -18 -18 -18h-80c-11 0 -17 6 -17 18v182h-37c-29 0 -48 -19 -48 -49v-133c0 -12 -6 -18 -17 -18h-82
c-11 0 -17 6 -17 18v126c0 65 27 112 70 139l-79 197c-5 12 3 20 15 20h85c10 0 17 -4 21 -14l65 -175h24v372c0 11 6 17 17 17h80c11 0 18 -6 18 -17v-372h23l66 175c3 10 11 14 20 14h86z" />
    <glyph glyph-name="uni0437.loclBGR" horiz-adv-x="381" 
d="M283 172c42 -27 65 -75 65 -128v-68c0 -113 -62 -188 -167 -188c-116 0 -169 77 -173 214c0 12 6 18 17 18h83c11 0 17 -5 17 -15c2 -73 20 -105 53 -105c37 0 53 24 53 71v85c0 41 -21 64 -61 64h-42c-11 0 -18 6 -18 17v72c0 11 7 17 18 17h36c38 0 55 21 55 56v67
c0 31 -13 51 -40 51c-30 0 -41 -18 -44 -47c0 -12 -7 -18 -17 -18h-84c-11 0 -17 6 -16 18c7 102 68 159 159 159c96 0 160 -69 160 -169v-68c0 -43 -19 -79 -54 -103z" />
    <glyph glyph-name="uni0438.loclBGR" horiz-adv-x="409" 
d="M194 -12c-93 0 -155 69 -155 170v325c0 11 6 17 17 17h83c11 0 17 -6 17 -17v-332c0 -31 17 -51 46 -51c28 0 45 20 45 51v332c0 11 7 17 18 17h83c11 0 17 -6 17 -17v-465c0 -12 -6 -18 -17 -18h-37c-10 0 -17 4 -21 14l-5 19c-23 -27 -55 -45 -91 -45z" />
    <glyph glyph-name="uni0439.loclBGR" horiz-adv-x="409" 
d="M206 560c-67 0 -113 40 -121 103c-1 12 6 18 17 18h46c11 0 15 -5 19 -16c5 -15 18 -25 39 -25c20 0 33 10 39 25c4 11 8 16 18 16h46c11 0 18 -7 17 -18c-8 -63 -53 -103 -120 -103zM194 -12c-93 0 -155 69 -155 170v325c0 11 6 17 17 17h83c11 0 17 -6 17 -17v-332
c0 -31 17 -51 46 -51c28 0 45 20 45 51v332c0 11 7 17 18 17h83c11 0 17 -6 17 -17v-465c0 -12 -6 -18 -17 -18h-37c-10 0 -17 4 -21 14l-5 19c-23 -27 -55 -45 -91 -45z" />
    <glyph glyph-name="uni045D.loclBGR" horiz-adv-x="404" 
d="M103 682h70c9 0 16 -5 21 -12l54 -90c8 -12 3 -21 -11 -21h-51c-9 0 -16 3 -21 11l-72 91c-8 11 -5 21 10 21zM194 -12c-93 0 -155 69 -155 170v325c0 11 6 17 17 17h83c11 0 17 -6 17 -17v-332c0 -31 17 -51 46 -51c28 0 45 20 45 51v332c0 11 7 17 18 17h83
c11 0 17 -6 17 -17v-465c0 -12 -6 -18 -17 -18h-37c-10 0 -17 4 -21 14l-5 19c-23 -27 -55 -45 -91 -45z" />
    <glyph glyph-name="uni043A.loclBGR" horiz-adv-x="400" 
d="M296 283c45 -27 72 -76 72 -139v-126c0 -12 -6 -18 -17 -18h-84c-11 0 -17 6 -17 18v133c0 30 -19 49 -48 49h-40v-182c0 -12 -6 -18 -18 -18h-82c-12 0 -18 6 -18 18v665c0 11 6 17 18 17h82c12 0 18 -6 18 -17v-372h26l68 175c3 10 10 14 20 14h85c13 0 20 -8 15 -20z
" />
    <glyph glyph-name="uni043B.loclBGR" horiz-adv-x="395" 
d="M267 16l-70 376l-68 -376c-2 -12 -9 -16 -19 -16h-89c-12 0 -17 8 -15 19l105 439c7 31 26 47 58 47h59c31 0 50 -16 57 -47l104 -439c3 -11 -2 -19 -15 -19h-87c-11 0 -18 4 -20 16z" />
    <glyph glyph-name="uni043F.loclBGR" horiz-adv-x="404" 
d="M56 0c-11 0 -17 6 -17 18v325c0 100 65 169 163 169s163 -69 163 -169v-325c0 -12 -6 -18 -17 -18h-83c-11 0 -18 6 -18 18v331c0 31 -17 52 -45 52c-29 0 -46 -21 -46 -52v-331c0 -12 -6 -18 -17 -18h-83z" />
    <glyph glyph-name="uni0442.loclBGR" horiz-adv-x="596" 
d="M399 512c95 0 158 -69 158 -169v-325c0 -12 -6 -18 -17 -18h-81c-12 0 -18 6 -18 18v331c0 31 -15 51 -42 51c-28 0 -43 -20 -43 -51v-331c0 -12 -6 -18 -17 -18h-82c-11 0 -17 6 -17 18v331c0 31 -15 51 -43 51c-27 0 -42 -20 -42 -51v-331c0 -12 -6 -18 -18 -18h-81
c-11 0 -17 6 -17 18v325c0 100 63 169 158 169c41 0 76 -17 101 -44c25 27 60 44 101 44z" />
    <glyph glyph-name="uni0443.loclBGR" horiz-adv-x="411" 
d="M349 500c11 0 18 -6 18 -17v-526c0 -105 -62 -169 -164 -169c-96 0 -157 63 -164 166c0 12 6 18 17 18h84c10 0 16 -6 18 -18c3 -35 19 -54 45 -54c29 0 46 19 46 51v90c-15 -14 -36 -23 -61 -23c-85 0 -149 68 -149 169v296c0 11 6 17 17 17h83c11 0 17 -6 17 -17v-303
c0 -31 18 -51 47 -51s46 20 46 51v303c0 11 6 17 17 17h83z" />
    <glyph glyph-name="uni0444.loclBGR" horiz-adv-x="604" 
d="M415 512c93 0 156 -69 156 -169v-185c0 -101 -63 -170 -156 -170c-20 0 -38 6 -54 17v-188c0 -11 -7 -17 -18 -17h-82c-11 0 -17 6 -17 17v189c-16 -12 -36 -18 -55 -18c-93 0 -156 69 -156 170v185c0 100 63 169 156 169c21 0 39 -6 55 -17v188c0 11 6 17 17 17h82
c11 0 18 -6 18 -17v-187c16 10 34 16 54 16zM197 100c29 0 47 20 47 51v198c0 31 -18 51 -47 51s-45 -20 -45 -51v-198c0 -31 16 -51 45 -51zM453 151v198c0 31 -17 51 -46 51c-28 0 -46 -20 -46 -51v-198c0 -31 18 -51 46 -51c29 0 46 20 46 51z" />
    <glyph glyph-name="uni0447.loclBGR" horiz-adv-x="397" 
d="M253 0c-11 0 -18 6 -18 18v140c-16 -13 -39 -21 -63 -21c-84 0 -147 61 -147 169v177c0 11 6 17 18 17h82c12 0 18 -6 18 -17v-184c0 -31 17 -51 46 -51s46 13 46 51v184c0 11 7 17 18 17h83c11 0 17 -6 17 -17v-465c0 -12 -6 -18 -17 -18h-83z" />
    <glyph glyph-name="uni0446.loclBGR" horiz-adv-x="457" 
d="M344 -114c-12 0 -18 6 -18 17v100c-10 3 -22 13 -27 23c-24 -23 -57 -38 -96 -38c-98 0 -164 69 -164 170v325c0 11 7 17 17 17h83c12 0 18 -6 17 -17v-332c0 -31 18 -51 47 -51c28 0 44 20 44 51v332c0 11 7 17 18 17h82c11 0 17 -6 17 -17v-350c0 -70 77 -25 77 -93
v-137c0 -11 -7 -17 -18 -17h-79z" />
    <glyph glyph-name="uni0448.loclBGR" horiz-adv-x="605" 
d="M198 -12c-95 0 -159 69 -159 170v325c0 11 6 17 17 17h82c11 0 18 -6 18 -17v-332c0 -31 15 -51 42 -51s44 20 44 51v332c0 11 6 17 17 17h81c12 0 18 -6 18 -17v-332c0 -31 16 -51 44 -51c26 0 42 20 42 51v332c0 11 6 17 17 17h82c11 0 17 -6 18 -17v-465
c1 -12 -6 -18 -17 -18h-35c-10 0 -17 4 -21 14l-5 19c-22 -28 -53 -45 -89 -45c-39 0 -72 16 -96 42c-25 -26 -58 -42 -100 -42z" />
    <glyph glyph-name="uni0449.loclBGR" horiz-adv-x="653" 
d="M540 -114c-11 0 -17 6 -17 17v100c-11 3 -23 13 -28 23c-24 -23 -55 -38 -94 -38c-43 0 -76 16 -101 44c-26 -28 -58 -44 -101 -44c-96 0 -160 69 -160 170v325c0 11 6 17 17 17h82c11 0 18 -6 18 -17v-332c0 -31 16 -51 43 -51c26 0 43 20 43 51v332c0 11 6 17 17 17h81
c12 0 18 -6 18 -17v-332c0 -31 16 -51 43 -51c26 0 43 20 43 51v332c0 11 6 17 17 17h82c12 0 18 -6 18 -17v-350c0 -70 76 -25 76 -93v-137c0 -11 -6 -17 -17 -17h-80z" />
    <glyph glyph-name="uni044C.loclBGR" horiz-adv-x="388" 
d="M229 359c87 0 141 -68 141 -169v-32c0 -101 -66 -170 -166 -170c-99 0 -165 69 -165 170v325c0 9 7 17 17 17h83c10 0 17 -8 17 -17v-149c18 15 42 25 73 25zM252 151v46c0 31 -18 51 -48 51s-48 -20 -48 -51v-46c0 -31 18 -51 48 -51s48 20 48 51z" />
    <glyph glyph-name="uni044A.loclBGR" horiz-adv-x="441" 
d="M278 359c88 0 145 -68 145 -169v-32c0 -101 -66 -170 -166 -170c-99 0 -166 69 -166 170v234h-68c-11 0 -18 6 -18 17v74c0 11 7 17 18 17h133c30 0 53 -23 53 -53v-112c17 15 39 24 69 24zM305 151v46c0 31 -18 51 -48 51s-48 -20 -48 -51v-46c0 -31 18 -51 48 -51
s48 20 48 51z" />
    <glyph glyph-name="uni044E.loclBGR" horiz-adv-x="570" 
d="M376 -12c-97 0 -162 69 -162 170v40h-54v-180c0 -12 -7 -18 -18 -18h-80c-12 0 -18 6 -18 18v665c0 11 6 17 18 17h80c11 0 18 -6 18 -17v-374h54v34c0 100 65 169 162 169c96 0 161 -69 161 -169v-185c0 -101 -65 -170 -161 -170zM376 100c28 0 45 20 45 51v198
c0 31 -17 51 -45 51c-29 0 -45 -20 -45 -51v-198c0 -31 16 -51 45 -51z" />
    <glyph glyph-name="uni043B.ss01" horiz-adv-x="427" 
d="M227 512c99 0 161 -69 161 -169v-325c0 -12 -6 -18 -17 -18h-82c-11 0 -18 6 -18 18v331c0 31 -14 51 -44 51c-29 0 -44 -20 -44 -51v-185c0 -100 -58 -167 -155 -168c-11 0 -18 7 -18 18v76c0 11 7 18 18 18c23 1 38 20 38 51v184c0 100 63 169 161 169z" />
    <glyph glyph-name="zero" unicode="0" horiz-adv-x="418" 
d="M209 -12c-100 0 -170 75 -170 184v356c0 109 70 184 170 184s170 -75 170 -184v-356c0 -109 -70 -184 -170 -184zM159 257l93 308c-7 21 -22 34 -43 34c-30 0 -50 -23 -50 -57v-272v-13zM209 102c31 0 50 22 50 57v272v15l-93 -309c7 -22 22 -35 43 -35z" />
    <glyph glyph-name="one" unicode="1" horiz-adv-x="258" 
d="M152 700c37 0 57 -20 57 -57v-625c0 -12 -6 -18 -17 -18h-85c-11 0 -18 6 -18 18v571h-62c-11 0 -17 6 -17 17v77c0 11 6 17 17 17h125z" />
    <glyph glyph-name="two" unicode="2" horiz-adv-x="381" 
d="M357 549c0 -196 -211 -283 -211 -437h194c11 0 17 -7 17 -18v-76c0 -12 -6 -18 -17 -18h-263c-34 0 -53 19 -53 53v23c0 251 217 335 217 469c0 30 -11 57 -45 57c-32 0 -49 -25 -51 -70c-1 -12 -8 -18 -18 -18h-76c-11 0 -17 6 -16 18c4 113 62 180 161 180
c105 0 161 -75 161 -163z" />
    <glyph glyph-name="three" unicode="3" horiz-adv-x="406" 
d="M200 -12c-100 0 -169 74 -170 188c0 12 6 18 17 18h85c12 0 18 -6 18 -18c1 -53 20 -74 50 -74c31 0 50 24 50 64v115c0 40 -21 63 -54 63h-49c-13 0 -21 8 -21 21v32c0 15 2 28 9 42l87 156h-161c-11 0 -17 7 -17 18v74c0 11 6 17 17 17h273c21 0 30 -9 30 -27v-8
c0 -12 -2 -19 -8 -30l-99 -197l6 -2c72 -18 107 -89 107 -168v-97c0 -112 -69 -187 -170 -187z" />
    <glyph glyph-name="four" unicode="4" horiz-adv-x="423" 
d="M387 283c11 0 18 -6 18 -18v-76c0 -11 -7 -18 -18 -18h-35v-153c0 -12 -6 -18 -18 -18h-83c-11 0 -18 6 -18 18v153h-193c-17 0 -27 10 -27 26v44c0 17 4 33 8 51l100 393c3 9 9 15 19 15h84c12 0 18 -8 16 -19l-100 -398h96l11 219c1 10 7 16 17 16h70
c12 0 18 -6 18 -17v-218h35z" />
    <glyph glyph-name="five" unicode="5" horiz-adv-x="408" 
d="M222 481c87 0 152 -74 152 -183v-123c0 -112 -69 -187 -172 -187c-102 0 -170 74 -171 188c0 12 7 18 18 18h83c12 0 18 -6 18 -18c1 -52 20 -74 52 -74c34 0 52 24 52 64v141c0 39 -19 62 -50 62c-28 0 -45 -18 -48 -54c-1 -13 -7 -20 -20 -20h-71c-17 0 -27 10 -27 29
v328c0 34 18 53 52 53h254c11 0 17 -7 17 -18v-69c0 -11 -6 -17 -17 -17h-189v-141c19 13 42 21 67 21z" />
    <glyph glyph-name="six" unicode="6" horiz-adv-x="413" 
d="M209 -12c-100 0 -170 75 -170 184v355c0 110 68 185 169 185c99 0 167 -71 168 -178c0 -11 -6 -17 -17 -17h-85c-11 0 -18 6 -18 17c-1 45 -20 65 -48 65c-31 0 -49 -24 -49 -63v-100c19 15 41 23 72 23c84 0 148 -74 148 -173v-114c0 -109 -70 -184 -170 -184zM209 102
c30 0 50 22 50 62v123c0 36 -20 60 -50 60c-29 0 -50 -20 -50 -60v-123c0 -41 21 -62 50 -62z" />
    <glyph glyph-name="seven" unicode="7" horiz-adv-x="353" 
d="M10 683c0 11 6 17 17 17h268c23 0 35 -11 36 -34c0 -24 -2 -40 -7 -63l-135 -587c-2 -10 -9 -16 -19 -16h-88c-12 0 -18 8 -15 19l132 565h-172c-11 0 -17 6 -17 18v81z" />
    <glyph glyph-name="eight" unicode="8" horiz-adv-x="422" 
d="M326 365c38 -28 60 -72 60 -129v-70c0 -103 -72 -178 -175 -178s-175 75 -175 178v70c0 57 22 101 60 129c-32 32 -51 75 -51 124v48c0 100 67 175 166 175s166 -75 166 -175v-48c0 -49 -19 -92 -51 -124zM165 543v-71c0 -35 19 -58 46 -58c28 0 46 23 46 58v71
c0 34 -17 56 -46 56c-28 0 -46 -22 -46 -56zM266 161v87c0 37 -22 59 -55 59c-32 0 -55 -22 -55 -59v-87c0 -36 23 -59 55 -59c33 0 55 23 55 59z" />
    <glyph glyph-name="nine" unicode="9" horiz-adv-x="414" 
d="M205 712c100 0 170 -75 170 -184v-355c0 -110 -68 -185 -169 -185c-99 0 -167 71 -168 178c0 11 6 17 17 17h85c11 0 18 -6 18 -17c1 -45 20 -65 48 -65c31 0 49 24 49 63v100c-19 -15 -41 -23 -72 -23c-84 0 -148 74 -148 173v114c0 109 70 184 170 184zM205 598
c-30 0 -50 -22 -50 -62v-123c0 -36 20 -60 50 -60c29 0 50 20 50 60v123c0 41 -21 62 -50 62z" />
    <glyph glyph-name="asterisk" unicode="*" horiz-adv-x="334" 
d="M102 491l-34 23c-9 7 -10 16 -4 25l35 48l-57 19c-10 4 -14 10 -11 22l13 39c4 11 12 15 22 11l57 -19v61c0 11 6 17 18 17h40c12 0 18 -6 18 -17v-61l57 19c11 4 18 0 22 -11l13 -39c4 -11 -1 -18 -11 -22l-58 -18l35 -49c7 -9 6 -18 -3 -25l-34 -24c-8 -6 -18 -5 -24 4
l-35 48l-35 -48c-6 -9 -16 -10 -24 -3z" />
    <glyph glyph-name="backslash" unicode="\" horiz-adv-x="409" 
d="M105 700c10 0 17 -5 20 -14l261 -666c5 -12 -1 -20 -14 -20h-68c-10 0 -17 5 -20 14l-261 666c-4 12 1 20 14 20h68z" />
    <glyph glyph-name="periodcentered" unicode="&#xb7;" horiz-adv-x="179" 
d="M78 184c-40 0 -68 28 -68 68s28 68 68 68s68 -28 68 -68s-28 -68 -68 -68z" />
    <glyph glyph-name="bullet" unicode="&#x2022;" horiz-adv-x="224" 
d="M110 160c-49 0 -89 39 -89 89c0 51 40 93 89 93c51 0 93 -42 93 -93c0 -50 -42 -89 -93 -89z" />
    <glyph glyph-name="colon" unicode=":" horiz-adv-x="179" 
d="M78 330c-40 0 -68 28 -68 68s28 68 68 68s68 -28 68 -68s-28 -68 -68 -68zM78 -10c-40 0 -68 28 -68 68s28 68 68 68s68 -28 68 -68s-28 -68 -68 -68z" />
    <glyph glyph-name="comma" unicode="," horiz-adv-x="137" 
d="M21 96c1 10 7 16 18 16h70c11 0 18 -8 16 -19l-37 -189c-2 -11 -8 -16 -19 -16h-40c-12 0 -18 6 -18 18z" />
    <glyph glyph-name="ellipsis" unicode="&#x2026;" horiz-adv-x="544" 
d="M90 -10c-41 0 -68 28 -68 68s27 68 68 68c40 0 67 -28 67 -68s-27 -68 -67 -68zM272 -10c-40 0 -68 28 -68 68s28 68 68 68s68 -28 68 -68s-28 -68 -68 -68zM455 -10c-41 0 -68 28 -68 68s27 68 68 68c40 0 67 -28 67 -68s-27 -68 -67 -68z" />
    <glyph glyph-name="exclam" unicode="!" horiz-adv-x="233" 
d="M75 166c-12 0 -18 6 -18 18v499c0 11 6 17 18 17h82c12 0 18 -6 18 -17v-499c0 -12 -6 -18 -18 -18h-82zM116 -12c-40 0 -67 28 -67 68s27 67 67 67s68 -27 68 -67s-28 -68 -68 -68z" />
    <glyph glyph-name="exclamdown" unicode="&#xa1;" horiz-adv-x="223" 
d="M111 512c40 0 68 -28 68 -68s-28 -67 -68 -67s-67 27 -67 67s27 68 67 68zM70 334h82c12 0 18 -6 18 -18v-499c0 -11 -6 -17 -18 -17h-82c-12 0 -18 6 -18 17v499c0 12 6 18 18 18z" />
    <glyph glyph-name="numbersign" unicode="#" horiz-adv-x="641" 
d="M99 0c-12 0 -18 8 -15 19l33 148h-85c-13 0 -19 7 -16 19l12 52c3 10 9 15 20 15h89l40 176h-85c-13 0 -19 8 -16 19l12 52c3 10 9 15 19 15h90l39 169c2 10 9 16 19 16h71c12 0 18 -8 15 -19l-37 -166h113l38 169c3 10 9 16 20 16h71c13 0 18 -8 16 -19l-38 -166h85
c12 0 18 -8 16 -19l-12 -52c-3 -10 -9 -15 -20 -15h-89l-40 -176h85c13 0 19 -8 16 -19l-12 -52c-3 -10 -9 -15 -20 -15h-89l-34 -151c-3 -10 -9 -16 -19 -16h-72c-12 0 -18 8 -16 19l34 148h-113l-35 -151c-2 -10 -8 -16 -19 -16h-71zM244 253h113l40 176h-113z" />
    <glyph glyph-name="period" unicode="." horiz-adv-x="158" 
d="M79 -10c-40 0 -68 28 -68 68s28 68 68 68s68 -28 68 -68s-28 -68 -68 -68z" />
    <glyph glyph-name="question" unicode="?" horiz-adv-x="355" 
d="M127 173c-11 0 -18 6 -18 17v25c0 189 125 199 125 316c0 38 -17 71 -59 71c-38 0 -58 -29 -62 -78c0 -12 -7 -18 -18 -18h-78c-11 0 -18 6 -17 18c6 113 74 186 171 186c106 0 178 -69 178 -172c0 -163 -123 -181 -123 -322v-26c0 -11 -7 -17 -18 -17h-81zM168 -12
c-40 0 -67 28 -67 68s27 67 67 67s68 -27 68 -67s-28 -68 -68 -68z" />
    <glyph glyph-name="questiondown" unicode="&#xbf;" horiz-adv-x="355" 
d="M187 512c40 0 67 -28 67 -68s-27 -67 -67 -67s-68 27 -68 67s28 68 68 68zM228 327c11 0 18 -6 18 -17v-25c0 -189 -125 -199 -125 -316c0 -38 17 -71 59 -71c38 0 58 29 62 78c0 12 7 18 18 18h78c11 0 18 -6 17 -18c-6 -113 -74 -186 -171 -186
c-106 0 -178 69 -178 172c0 163 123 181 123 322v26c0 11 7 17 18 17h81z" />
    <glyph glyph-name="quotedbl" unicode="&#x22;" horiz-adv-x="280" 
d="M22 684c1 10 7 16 18 16h70c11 0 18 -8 16 -19l-37 -189c-2 -11 -8 -16 -19 -16h-40c-12 0 -18 6 -18 18zM152 684c1 10 7 16 18 16h70c11 0 18 -8 16 -19l-37 -189c-2 -11 -8 -16 -19 -16h-40c-12 0 -18 6 -18 18z" />
    <glyph glyph-name="quotesingle" unicode="'" horiz-adv-x="148" 
d="M25 683c1 11 8 17 18 17h70c12 0 18 -8 16 -19l-37 -189c-2 -11 -8 -16 -19 -16h-40c-11 0 -18 6 -17 18z" />
    <glyph glyph-name="semicolon" unicode=";" horiz-adv-x="176" 
d="M95 332c-40 0 -68 28 -68 68s28 68 68 68s68 -28 68 -68s-28 -68 -68 -68zM44 96c1 10 7 16 18 16h70c11 0 18 -8 16 -19l-37 -189c-2 -11 -8 -16 -19 -16h-40c-12 0 -18 6 -18 18z" />
    <glyph glyph-name="slash" unicode="/" horiz-adv-x="409" 
d="M285 688c2 9 8 12 16 12h75c11 0 15 -7 12 -17l-263 -672c-3 -8 -9 -11 -17 -11h-75c-11 0 -15 7 -12 17z" />
    <glyph glyph-name="underscore" unicode="_" horiz-adv-x="363" 
d="M6 -29c0 11 7 18 18 18h315c11 0 17 -7 17 -18v-78c0 -11 -6 -17 -17 -17h-315c-11 0 -18 6 -18 17v78z" />
    <glyph glyph-name="braceleft" unicode="{" horiz-adv-x="303" 
d="M204 495c0 -62 -21 -109 -60 -144c39 -34 60 -82 60 -143v-142c0 -45 26 -73 66 -74c12 -1 18 -7 18 -18v-77c0 -11 -7 -17 -20 -17c-111 1 -183 75 -183 200v142c0 44 -22 69 -55 72c-11 1 -17 7 -17 18v78c0 11 6 18 17 18c33 3 55 28 55 72v140c0 125 72 199 183 200
c13 0 20 -6 20 -17v-77c0 -11 -6 -17 -18 -18c-40 -1 -66 -29 -66 -73v-140z" />
    <glyph glyph-name="braceright" unicode="}" horiz-adv-x="303" 
d="M273 408c11 0 17 -7 17 -18v-78c0 -11 -6 -17 -17 -18c-33 -3 -55 -28 -55 -72v-142c0 -125 -72 -199 -183 -200c-13 0 -20 6 -20 17v77c0 11 6 17 18 18c40 1 66 29 66 74v142c0 61 21 109 60 143c-39 35 -60 82 -60 144v140c0 44 -26 72 -66 73c-12 1 -18 7 -18 18v77
c0 11 7 17 20 17c111 -1 183 -75 183 -200v-140c0 -44 22 -69 55 -72z" />
    <glyph glyph-name="bracketleft" unicode="[" horiz-adv-x="273" 
d="M253 726c0 -11 -6 -17 -17 -17h-73v-718h73c11 0 17 -6 17 -17v-77c0 -11 -6 -17 -17 -17h-139c-34 0 -53 18 -53 52v836c0 34 19 52 53 52h139c11 0 17 -6 17 -17v-77z" />
    <glyph glyph-name="bracketright" unicode="]" horiz-adv-x="272" 
d="M19 726v77c0 11 6 17 17 17h139c34 0 53 -18 53 -52v-836c0 -34 -19 -52 -53 -52h-139c-11 0 -17 6 -17 17v77c0 11 6 17 17 17h73v718h-73c-11 0 -17 6 -17 17z" />
    <glyph glyph-name="parenleft" unicode="(" horiz-adv-x="263" 
d="M229 -123c-115 1 -185 75 -185 201v542c0 125 70 199 185 200c11 0 18 -6 18 -17v-77c0 -11 -6 -17 -18 -18c-41 -1 -66 -29 -66 -74v-571c0 -45 25 -73 66 -74c12 -1 18 -7 18 -18v-77c0 -11 -7 -17 -18 -17z" />
    <glyph glyph-name="parenright" unicode=")" horiz-adv-x="264" 
d="M35 -123c-11 0 -18 6 -18 17v77c0 11 6 17 18 18c41 1 66 29 66 74v571c0 45 -25 73 -66 74c-12 1 -18 7 -18 18v77c0 11 7 17 18 17c115 -1 185 -75 185 -200v-542c0 -126 -70 -200 -185 -201z" />
    <glyph glyph-name="emdash" unicode="&#x2014;" horiz-adv-x="525" 
d="M13 290c0 11 6 18 17 18h465c11 0 18 -7 18 -18v-66c0 -11 -7 -17 -18 -17h-465c-11 0 -17 6 -17 17v66z" />
    <glyph glyph-name="endash" unicode="&#x2013;" horiz-adv-x="389" 
d="M29 207c-11 0 -17 6 -17 17v66c0 11 6 18 17 18h330c12 0 18 -7 18 -18v-66c0 -11 -6 -17 -18 -17h-330z" />
    <glyph glyph-name="hyphen" unicode="-" horiz-adv-x="274" 
d="M29 207c-11 0 -17 6 -17 17v66c0 11 6 18 17 18h215c12 0 18 -7 18 -18v-66c0 -11 -6 -17 -18 -17h-215z" />
    <glyph glyph-name="emdash.case" horiz-adv-x="524" 
d="M12 390c0 11 6 18 17 18h465c11 0 18 -7 18 -18v-66c0 -11 -7 -17 -18 -17h-465c-11 0 -17 6 -17 17v66z" />
    <glyph glyph-name="endash.case" horiz-adv-x="389" 
d="M29 307c-11 0 -17 6 -17 17v66c0 11 6 18 17 18h330c12 0 18 -7 18 -18v-66c0 -11 -6 -17 -18 -17h-330z" />
    <glyph glyph-name="hyphen.case" horiz-adv-x="274" 
d="M29 307c-11 0 -17 6 -17 17v66c0 11 6 18 17 18h215c12 0 18 -7 18 -18v-66c0 -11 -6 -17 -18 -17h-215z" />
    <glyph glyph-name="guillemotleft" unicode="&#xab;" horiz-adv-x="461" 
d="M140 83c-8 0 -16 3 -21 11l-95 126c-18 26 -18 49 0 74l95 127c5 8 13 10 21 10h84c14 0 19 -10 10 -21l-117 -153l117 -153c9 -11 4 -21 -10 -21h-84zM331 83c-8 0 -16 3 -21 11l-95 126c-18 26 -18 49 0 74l95 127c5 8 13 10 21 10h84c14 0 19 -10 10 -21l-117 -153
l117 -153c9 -11 4 -21 -10 -21h-84z" />
    <glyph glyph-name="guillemotright" unicode="&#xbb;" horiz-adv-x="461" 
d="M130 83h-84c-14 0 -19 10 -10 21l117 153l-117 153c-9 11 -4 21 10 21h84c8 0 16 -2 21 -10l95 -127c18 -25 18 -48 0 -74l-95 -126c-5 -8 -13 -11 -21 -11zM321 83h-84c-14 0 -19 10 -10 21l117 153l-117 153c-9 11 -4 21 10 21h84c8 0 16 -2 21 -10l95 -127
c18 -25 18 -48 0 -74l-95 -126c-5 -8 -13 -11 -21 -11z" />
    <glyph glyph-name="guilsinglleft" unicode="&#x2039;" horiz-adv-x="271" 
d="M148 83c-8 0 -16 3 -21 11l-95 126c-18 26 -18 49 0 74l95 127c5 8 13 10 21 10h84c14 0 19 -10 10 -21l-117 -153l117 -153c9 -11 4 -21 -10 -21h-84z" />
    <glyph glyph-name="guilsinglright" unicode="&#x203a;" horiz-adv-x="271" 
d="M123 83h-84c-14 0 -19 10 -10 21l117 153l-117 153c-9 11 -4 21 10 21h84c8 0 16 -2 21 -10l95 -127c18 -25 18 -48 0 -74l-95 -126c-5 -8 -13 -11 -21 -11z" />
    <glyph glyph-name="quotedblbase" unicode="&#x201e;" horiz-adv-x="145" 
d="M21 96c1 10 7 16 18 16h70c11 0 18 -8 16 -19l-37 -189c-2 -11 -8 -16 -19 -16h-40c-12 0 -18 6 -18 18z" />
    <glyph glyph-name="quotedblleft" unicode="&#x201c;" horiz-adv-x="258" 
d="M106 492c-1 -10 -7 -16 -18 -16h-70c-11 0 -18 8 -16 19l37 189c2 11 8 16 19 16h40c12 0 18 -6 18 -18zM236 492c-1 -10 -7 -16 -18 -16h-70c-11 0 -18 8 -16 19l37 189c2 11 8 16 19 16h40c12 0 18 -6 18 -18z" />
    <glyph glyph-name="quotedblright" unicode="&#x201d;" horiz-adv-x="261" 
d="M23 684c1 10 7 16 18 16h70c11 0 18 -8 16 -19l-37 -189c-2 -11 -8 -16 -19 -16h-40c-12 0 -18 6 -18 18zM153 684c1 10 7 16 18 16h70c11 0 18 -8 16 -19l-37 -189c-2 -11 -8 -16 -19 -16h-40c-12 0 -18 6 -18 18z" />
    <glyph glyph-name="quoteleft" unicode="&#x2018;" horiz-adv-x="129" 
d="M108 492c-1 -10 -7 -16 -18 -16h-70c-11 0 -18 8 -16 19l37 189c2 11 8 16 19 16h40c12 0 18 -6 18 -18z" />
    <glyph glyph-name="quoteright" unicode="&#x2019;" horiz-adv-x="129" 
d="M22 684c1 10 7 16 18 16h70c11 0 18 -8 16 -19l-37 -189c-2 -11 -8 -16 -19 -16h-40c-12 0 -18 6 -18 18z" />
    <glyph glyph-name="quotesinglbase" unicode="&#x201a;" horiz-adv-x="142" 
d="M21 96c1 10 7 16 18 16h70c11 0 18 -8 16 -19l-37 -189c-2 -11 -8 -16 -19 -16h-40c-12 0 -18 6 -18 18z" />
    <glyph glyph-name="guillemotleft.case" horiz-adv-x="478" 
d="M140 143c-8 0 -16 3 -21 11l-95 126c-18 26 -18 49 0 74l95 127c5 8 13 10 21 10h84c14 0 19 -10 10 -21l-117 -153l117 -153c9 -11 4 -21 -10 -21h-84zM331 143c-8 0 -16 3 -21 11l-95 126c-18 26 -18 49 0 74l95 127c5 8 13 10 21 10h84c14 0 19 -10 10 -21l-117 -153
l117 -153c9 -11 4 -21 -10 -21h-84z" />
    <glyph glyph-name="guillemotright.case" horiz-adv-x="478" 
d="M130 143h-84c-14 0 -19 10 -10 21l117 153l-117 153c-9 11 -4 21 10 21h84c8 0 16 -2 21 -10l95 -127c18 -25 18 -48 0 -74l-95 -126c-5 -8 -13 -11 -21 -11zM321 143h-84c-14 0 -19 10 -10 21l117 153l-117 153c-9 11 -4 21 10 21h84c8 0 16 -2 21 -10l95 -127
c18 -25 18 -48 0 -74l-95 -126c-5 -8 -13 -11 -21 -11z" />
    <glyph glyph-name="guilsinglleft.case" horiz-adv-x="265" 
d="M146 143c-8 0 -16 3 -21 11l-95 126c-18 26 -18 49 0 74l95 127c5 8 13 10 21 10h84c14 0 19 -10 10 -21l-117 -153l117 -153c9 -11 4 -21 -10 -21h-84z" />
    <glyph glyph-name="guilsinglright.case" horiz-adv-x="289" 
d="M123 143h-84c-14 0 -19 10 -10 21l117 153l-117 153c-9 11 -4 21 10 21h84c8 0 16 -2 21 -10l95 -127c18 -25 18 -48 0 -74l-95 -126c-5 -8 -13 -11 -21 -11z" />
    <glyph glyph-name="space" unicode=" " horiz-adv-x="207" 
 />
    <glyph glyph-name="cent" unicode="&#xa2;" horiz-adv-x="387" 
d="M170 -85c-11 0 -17 6 -17 17v62c-74 18 -120 80 -120 164v185c0 84 46 146 120 163v62c0 11 6 17 17 17h55c12 0 18 -6 18 -17v-62c70 -16 115 -72 121 -153c1 -12 -5 -18 -17 -18h-85c-10 0 -16 6 -17 18c-4 32 -21 47 -47 47c-29 0 -46 -20 -46 -51v-198
c0 -31 17 -51 46 -51c26 0 43 15 47 48c1 11 7 17 17 17h85c12 0 18 -7 17 -20c-6 -80 -52 -136 -121 -152v-61c0 -11 -6 -17 -18 -17h-55z" />
    <glyph glyph-name="currency" unicode="&#xa4;" horiz-adv-x="457" 
d="M229 84c-39 0 -73 10 -99 29l-35 -42c-7 -8 -16 -9 -25 -2l-40 35c-9 7 -9 15 -2 24l46 54c-9 22 -13 46 -13 72v88c0 26 4 50 13 71l-46 55c-7 8 -7 16 2 24l40 34c9 8 18 7 25 -2l35 -41c26 18 60 29 99 29s72 -11 99 -29l34 41c7 9 16 10 25 2l40 -34
c9 -8 9 -16 2 -24l-46 -54c9 -22 14 -46 14 -72v-88c0 -26 -5 -50 -13 -71l45 -55c7 -9 7 -17 -2 -24l-40 -35c-9 -7 -18 -6 -25 2l-35 42c-26 -19 -59 -29 -98 -29zM229 195c30 0 49 20 49 52v102c0 32 -19 52 -49 52c-31 0 -50 -20 -50 -52v-102c0 -32 19 -52 50 -52z" />
    <glyph glyph-name="dollar" unicode="$" horiz-adv-x="411" 
d="M387 163c0 -92 -52 -153 -134 -169v-62c0 -11 -6 -17 -17 -17h-67c-11 0 -17 6 -17 17v64c-77 20 -122 84 -128 180c-1 12 6 18 17 18h90c11 0 17 -6 18 -17c3 -47 25 -72 59 -72s53 23 53 58c0 138 -231 196 -231 384c0 86 48 142 122 159v62c0 11 6 17 17 17h67
c11 0 17 -6 17 -17v-63c74 -18 119 -80 124 -173c1 -12 -6 -18 -17 -18h-89c-11 0 -18 6 -18 18c-3 44 -19 64 -50 64c-30 0 -49 -17 -49 -49c0 -123 233 -182 233 -384z" />
    <glyph glyph-name="Euro" unicode="&#x20ac;" horiz-adv-x="477" 
d="M438 214c12 0 18 -7 17 -19c-4 -129 -71 -207 -178 -207c-108 0 -180 76 -180 188v84h-57c-12 0 -18 7 -18 18v33c0 11 6 17 18 17h57v50h-57c-12 0 -18 7 -18 18v33c0 11 6 17 18 17h57v78c0 113 72 188 180 188c102 0 170 -75 174 -199c0 -12 -6 -18 -17 -18h-91
c-10 0 -17 6 -17 17c-2 56 -22 82 -52 82c-32 0 -51 -23 -51 -61v-87h146c11 0 17 -6 17 -17v-33c0 -11 -6 -18 -17 -18h-146v-50h146c11 0 17 -6 17 -17v-33c0 -11 -6 -18 -17 -18h-146v-93c0 -38 19 -61 51 -61c33 0 54 31 56 91c1 11 7 17 17 17h91z" />
    <glyph glyph-name="sterling" unicode="&#xa3;" horiz-adv-x="457" 
d="M422 112c12 0 18 -6 18 -18v-76c0 -12 -6 -18 -18 -18h-392c-11 0 -18 7 -18 18v75c0 12 8 19 20 20c25 2 39 19 39 51v128h-41c-11 0 -17 6 -17 17v68c0 12 6 18 17 18h41v129c0 111 70 188 177 188c103 0 172 -75 178 -188c1 -12 -5 -18 -17 -18h-91
c-10 0 -16 6 -17 18c-4 45 -24 70 -56 70s-52 -24 -52 -61v-138h140c11 0 18 -6 18 -18v-68c0 -11 -7 -17 -18 -17h-140v-124c0 -21 -5 -40 -12 -56h241z" />
    <glyph glyph-name="yen" unicode="&#xa5;" horiz-adv-x="522" 
d="M467 222h-144v-53h144c11 0 18 -6 18 -18v-59c0 -11 -7 -18 -18 -18h-144v-56c0 -12 -6 -18 -17 -18h-90c-11 0 -17 6 -17 18v56h-144c-12 0 -18 7 -18 18v59c0 12 6 18 18 18h144v53h-144c-12 0 -18 6 -18 18v59c0 11 6 18 18 18h50c-14 25 -21 55 -21 87v279
c0 11 6 17 17 17h90c11 0 17 -6 17 -17v-288c0 -34 22 -57 53 -57s52 23 52 57v288c0 11 7 17 18 17h89c12 0 18 -6 18 -17v-279c0 -32 -8 -62 -21 -87h50c11 0 18 -7 18 -18v-59c0 -12 -7 -18 -18 -18z" />
    <glyph glyph-name="approxequal" unicode="&#x2248;" horiz-adv-x="475" 
d="M383 484c8 10 15 10 22 0l35 -55c6 -8 6 -17 -1 -25c-30 -38 -66 -51 -104 -51c-63 0 -136 43 -184 43c-24 0 -45 -12 -58 -26c-9 -10 -16 -10 -23 0l-35 55c-6 8 -6 17 1 25c31 37 66 51 105 51c62 0 135 -44 184 -44c23 0 44 12 58 27zM383 313c8 10 15 10 22 0l35 -55
c6 -8 6 -16 -1 -24c-30 -38 -66 -52 -104 -52c-63 0 -136 43 -184 43c-24 0 -45 -12 -58 -26c-9 -10 -16 -10 -23 0l-35 56c-6 8 -6 16 1 24c31 38 66 51 105 51c62 0 135 -43 184 -43c23 0 44 12 58 26z" />
    <glyph glyph-name="asciitilde" unicode="~" horiz-adv-x="459" 
d="M374 420c9 10 16 10 23 0l35 -55c6 -7 6 -16 -1 -24c-31 -38 -66 -52 -105 -52c-62 0 -135 44 -184 44c-23 0 -44 -12 -58 -27c-8 -10 -16 -10 -23 0l-34 56c-6 8 -6 16 1 24c31 38 66 51 104 51c63 0 136 -43 184 -43c24 0 45 12 58 26z" />
    <glyph glyph-name="divide" unicode="&#xf7;" horiz-adv-x="475" 
d="M239 448c-40 0 -68 27 -68 67c0 41 28 68 68 68s68 -27 68 -68c0 -40 -28 -67 -68 -67zM53 304c-12 0 -18 7 -18 18v72c0 11 6 18 18 18h370c11 0 17 -7 17 -18v-72c0 -11 -6 -18 -17 -18h-370zM239 127c-40 0 -68 28 -68 68s28 68 68 68s68 -28 68 -68s-28 -68 -68 -68z
" />
    <glyph glyph-name="emptyset" unicode="&#x2205;" horiz-adv-x="775" 
d="M724 745c13 0 23 -9 15 -19l-91 -120c58 -62 91 -150 91 -256c0 -217 -141 -361 -353 -361c-66 0 -126 14 -176 40l-45 -59c-7 -8 -14 -15 -23 -15h-91c-12 0 -22 9 -15 19l90 118c-59 63 -93 152 -93 258c0 218 141 361 353 361c68 0 128 -14 179 -41l46 60
c6 8 13 15 23 15h90zM142 350c0 -67 19 -125 52 -168l305 400c-33 16 -71 24 -113 24c-146 0 -244 -102 -244 -256zM630 350c0 66 -18 123 -50 166l-304 -399c33 -15 69 -23 110 -23c147 0 244 103 244 256z" />
    <glyph glyph-name="equal" unicode="=" horiz-adv-x="438" 
d="M34 373c-11 0 -18 6 -18 18v72c0 11 7 17 18 17h370c11 0 17 -6 17 -17v-72c0 -12 -6 -18 -17 -18h-370zM34 194c-11 0 -18 6 -18 17v73c0 11 7 17 18 17h370c11 0 17 -6 17 -17v-73c0 -11 -6 -17 -17 -17h-370z" />
    <glyph glyph-name="greater" unicode="&#x3e;" horiz-adv-x="338" 
d="M306 420c6 -3 9 -8 9 -14v-97c0 -6 -3 -12 -9 -14l-253 -129c-15 -7 -30 3 -30 20v71c0 6 3 12 8 15l181 86l-180 85c-5 2 -9 8 -9 14v72c0 17 15 26 30 19z" />
    <glyph glyph-name="greaterequal" unicode="&#x2265;" horiz-adv-x="400" 
d="M328 448c5 -3 8 -8 8 -14v-90c0 -6 -3 -12 -8 -14l-253 -118c-15 -8 -31 2 -31 19v68c0 6 3 13 9 14l183 76l-183 75c-5 2 -9 9 -9 15v68c0 16 16 26 31 19zM318 175c11 0 18 -6 18 -17v-69c0 -11 -7 -17 -18 -17h-257c-11 0 -17 6 -17 17v69c0 11 6 17 17 17h257z" />
    <glyph glyph-name="infinity" unicode="&#x221e;" horiz-adv-x="607" 
d="M424 414c88 0 150 -65 150 -162c0 -95 -58 -160 -146 -160c-60 0 -98 29 -124 69c-27 -40 -65 -69 -125 -69c-87 0 -146 65 -146 160c0 97 62 162 150 162c58 0 94 -26 121 -60c27 34 63 60 120 60zM192 198c27 0 40 24 53 56c-13 31 -26 54 -53 54
c-24 0 -47 -19 -47 -55s23 -55 47 -55zM415 198c25 0 47 19 47 55s-22 55 -47 55c-27 0 -40 -23 -53 -54c13 -32 26 -56 53 -56z" />
    <glyph glyph-name="integral" unicode="&#x222b;" horiz-adv-x="337" 
d="M313 705c11 0 18 -7 18 -18v-76c0 -11 -6 -18 -18 -18h-14c-47 0 -72 -28 -72 -74v-524c0 -126 -68 -200 -185 -200h-18c-11 0 -18 6 -18 17v77c0 11 6 17 18 17h14c47 1 72 28 72 74v525c0 126 68 199 185 200h18z" />
    <glyph glyph-name="less" unicode="&#x3c;" horiz-adv-x="455" 
d="M395 457c0 -6 -4 -12 -9 -14l-180 -85l181 -86c5 -3 8 -9 8 -15v-71c0 -17 -15 -27 -30 -20l-253 129c-6 2 -9 8 -9 14v97c0 6 3 11 9 14l253 128c15 7 30 -2 30 -19v-72z" />
    <glyph glyph-name="lessequal" unicode="&#x2264;" horiz-adv-x="455" 
d="M366 479c0 -6 -4 -13 -9 -15l-183 -75l183 -76c6 -1 9 -8 9 -14v-68c0 -17 -16 -27 -31 -19l-253 118c-5 2 -8 8 -8 14v90c0 6 3 11 8 14l253 118c15 7 31 -3 31 -19v-68zM349 175c11 0 17 -6 17 -17v-69c0 -11 -6 -17 -17 -17h-257c-11 0 -18 6 -18 17v69
c0 11 7 17 18 17h257z" />
    <glyph glyph-name="logicalnot" unicode="&#xac;" horiz-adv-x="475" 
d="M423 414c11 0 17 -6 17 -18v-149c0 -11 -6 -18 -17 -18h-71c-11 0 -17 7 -17 18v60h-282c-12 0 -18 6 -18 17v72c0 12 6 18 18 18h370z" />
    <glyph glyph-name="minus" unicode="&#x2212;" horiz-adv-x="475" 
d="M53 307c-12 0 -18 6 -18 17v72c0 12 6 18 18 18h370c11 0 17 -6 17 -18v-72c0 -11 -6 -17 -17 -17h-370z" />
    <glyph glyph-name="multiply" unicode="&#xd7;" horiz-adv-x="475" 
d="M93 154l-51 51c-8 9 -8 17 0 26l120 120l-120 119c-8 9 -8 17 0 26l51 51c8 8 16 8 24 0l121 -120l120 120c8 8 17 8 25 0l51 -51c7 -9 7 -17 0 -26l-120 -119l120 -120c7 -9 7 -17 0 -26l-51 -51c-8 -8 -17 -8 -25 0l-120 120l-121 -120c-8 -8 -16 -8 -24 0z" />
    <glyph glyph-name="notequal" unicode="&#x2260;" horiz-adv-x="475" 
d="M423 373h-114l-32 -72h146c11 0 17 -6 17 -17v-73c0 -11 -6 -17 -17 -17h-195l-29 -65c-4 -8 -12 -13 -21 -13h-72c-13 0 -20 8 -14 21l26 57h-65c-12 0 -18 6 -18 17v73c0 11 6 17 18 17h113l33 72h-146c-12 0 -18 6 -18 18v72c0 11 6 17 18 17h195l29 65
c3 9 11 13 21 13h72c13 0 19 -8 14 -20l-26 -58h65c11 0 17 -6 17 -17v-72c0 -12 -6 -18 -17 -18z" />
    <glyph glyph-name="partialdiff" unicode="&#x2202;" horiz-adv-x="403" 
d="M150 711c133 0 214 -79 215 -217v-336c0 -101 -66 -170 -166 -170s-166 69 -166 170v177c0 101 57 169 145 169c30 0 52 -8 69 -23v24c0 63 -37 103 -100 103h-27c-11 0 -18 6 -18 17v69c0 11 7 17 18 17h30zM247 152v190c0 31 -18 51 -48 51s-48 -20 -48 -51v-190
c0 -32 18 -52 48 -52s48 20 48 52z" />
    <glyph glyph-name="percent" unicode="%" horiz-adv-x="592" 
d="M111 388c-56 0 -94 38 -94 89v144c0 51 38 90 94 90s94 -39 94 -90v-144c0 -51 -38 -89 -94 -89zM32 -5c-12 0 -21 11 -15 20l476 675c6 8 10 15 20 15h47c12 0 22 -11 15 -20l-476 -675c-5 -8 -11 -15 -20 -15h-47zM111 450c15 0 22 12 22 26v146c0 16 -7 27 -22 27
c-14 0 -23 -11 -23 -27v-146c0 -14 9 -26 23 -26zM482 -10c-56 0 -94 38 -94 90v143c0 52 38 91 94 91s94 -39 94 -91v-143c0 -52 -38 -90 -94 -90zM482 52c14 0 22 12 22 26v147c0 15 -8 27 -22 27s-23 -12 -23 -27v-147c0 -14 9 -26 23 -26z" />
    <glyph glyph-name="perthousand" unicode="&#x2030;" horiz-adv-x="816" 
d="M119 388c-56 0 -94 38 -94 89v144c0 51 38 90 94 90s94 -39 94 -90v-144c0 -51 -38 -89 -94 -89zM32 -5c-12 0 -21 11 -15 20l483 675c7 8 11 15 21 15h46c13 0 22 -11 15 -20l-483 -675c-5 -8 -10 -15 -20 -15h-47zM119 450c14 0 22 12 22 26v146c0 16 -8 27 -22 27
s-23 -11 -23 -27v-146c0 -14 9 -26 23 -26zM482 -10c-56 0 -94 38 -94 90v143c0 52 38 91 94 91s94 -39 94 -91v-143c0 -52 -38 -90 -94 -90zM712 -10c-56 0 -94 38 -94 90v143c0 52 38 91 94 91s94 -39 94 -91v-143c0 -52 -38 -90 -94 -90zM482 52c15 0 22 12 22 26v147
c0 15 -7 27 -22 27c-14 0 -23 -12 -23 -27v-147c0 -14 9 -26 23 -26zM712 52c15 0 22 12 22 26v147c0 15 -7 27 -22 27c-14 0 -23 -12 -23 -27v-147c0 -14 9 -26 23 -26z" />
    <glyph glyph-name="plus" unicode="+" horiz-adv-x="475" 
d="M423 414c11 0 17 -6 17 -18v-72c0 -11 -6 -17 -17 -17h-131v-136c0 -10 -7 -17 -18 -17h-72c-11 0 -18 6 -18 17v136h-131c-12 0 -18 6 -18 17v72c0 12 6 18 18 18h131v135c0 12 6 17 18 18l71 -1c12 1 18 -5 18 -17v-135h132z" />
    <glyph glyph-name="plusminus" unicode="&#xb1;" horiz-adv-x="475" 
d="M423 459c11 0 17 -6 17 -17v-72c0 -12 -6 -18 -17 -18h-131v-120c0 -10 -7 -16 -18 -17h-72c-11 0 -18 6 -18 17v120h-131c-12 0 -18 6 -18 18v72c0 11 6 17 18 17h131v120c0 11 6 17 18 18l71 -1c12 1 18 -6 18 -18v-119h132zM423 179c11 0 17 -6 17 -17v-72
c0 -12 -6 -18 -17 -18h-370c-12 0 -18 6 -18 18v72c0 11 6 17 18 17h370z" />
    <glyph glyph-name="product" unicode="&#x220f;" horiz-adv-x="464" 
d="M67 -100c-12 0 -18 6 -18 17v726c0 37 20 57 58 57h251c37 0 57 -20 57 -57v-726c0 -11 -6 -17 -17 -17h-93c-11 0 -17 6 -17 17v668h-111v-668c0 -11 -7 -17 -18 -17h-92z" />
    <glyph glyph-name="radical" unicode="&#x221a;" horiz-adv-x="510" 
d="M494 800c12 0 17 -8 15 -19l-153 -739c-7 -31 -25 -47 -56 -47h-62c-32 0 -50 16 -57 47l-77 354h-77c-11 0 -17 7 -17 18v69c0 11 6 17 17 17h130c32 0 51 -16 56 -48l55 -340l119 672c1 12 8 16 19 16h88z" />
    <glyph glyph-name="summation" unicode="&#x2211;" horiz-adv-x="353" 
d="M56 -5c-23 0 -37 12 -37 35s-3 41 8 63l130 257l-130 258c-11 21 -8 39 -8 63c0 22 14 34 37 34h268c11 0 17 -7 17 -18v-81c0 -11 -6 -17 -17 -17h-173l101 -194c4 -7 6 -14 6 -22v-46c0 -8 -2 -15 -6 -22l-101 -193h173c11 0 17 -7 17 -18v-81c0 -11 -6 -18 -17 -18
h-268z" />
    <glyph glyph-name="lozenge" unicode="&#x25ca;" horiz-adv-x="462" 
d="M197 -5c-32 0 -46 18 -57 48l-101 274c-9 25 -9 43 0 68l101 272c11 30 25 48 57 48h68c32 0 46 -17 57 -48l100 -272c9 -25 9 -43 0 -68l-100 -274c-11 -30 -25 -48 -57 -48h-68zM231 117l76 234l-76 233l-77 -233z" />
    <glyph glyph-name="bar" unicode="|" horiz-adv-x="208" 
d="M44 783c0 11 6 17 18 17h85c11 0 17 -6 17 -17v-835c0 -11 -6 -17 -17 -17h-85c-12 0 -18 6 -18 17v835z" />
    <glyph glyph-name="brokenbar" unicode="&#xa6;" horiz-adv-x="188" 
d="M52 495c-12 0 -18 6 -18 17v271c0 11 6 17 18 17h85c11 0 17 -6 17 -17v-271c0 -11 -6 -17 -17 -17h-85zM52 -69c-12 0 -18 6 -18 17v270c0 11 6 18 18 18h85c11 0 17 -7 17 -18v-270c0 -11 -6 -17 -17 -17h-85z" />
    <glyph glyph-name="at" unicode="@" horiz-adv-x="663" 
d="M291 -100c-169 0 -258 99 -258 261v109c0 159 89 269 258 269h27c104 0 161 -61 161 -153v-200c0 -66 -54 -117 -146 -117c-98 0 -154 51 -154 143c1 97 55 151 142 151h56v23c0 38 -22 61 -59 61h-23c-119 0 -166 -64 -166 -178v-107c0 -117 47 -170 166 -170h75
c111 0 164 55 164 170v282c0 114 -53 169 -161 169h-210c-11 0 -17 6 -17 17v57c0 11 6 18 17 18h210c162 0 257 -100 257 -261v-283c0 -162 -95 -261 -256 -261h-83zM332 160c29 0 45 17 45 43v58h-46c-31 0 -48 -17 -49 -49c0 -32 19 -52 50 -52z" />
    <glyph glyph-name="ampersand" unicode="&#x26;" horiz-adv-x="451" 
d="M209 -5c-102 0 -172 74 -172 175v68c0 59 23 101 57 124c-37 33 -57 83 -57 131v29c0 111 66 190 172 190c105 0 168 -78 172 -199c0 -12 -6 -18 -17 -18h-86c-10 0 -17 6 -17 17c-2 54 -18 86 -55 86c-34 0 -50 -27 -50 -63v-62c0 -35 20 -61 54 -61h198
c11 0 17 -6 17 -17v-69c0 -12 -6 -18 -17 -18h-34v-260c0 -34 -18 -53 -52 -53h-113zM209 110l48 1v197h-47c-30 0 -51 -18 -51 -62v-72c0 -41 18 -64 50 -64z" />
    <glyph glyph-name="paragraph" unicode="&#xb6;" horiz-adv-x="526" 
d="M424 704c34 0 53 -19 53 -53v-733c0 -12 -6 -18 -18 -18h-83c-11 0 -18 6 -18 18v675h-67v-675c0 -12 -6 -18 -17 -18h-84c-11 0 -17 6 -17 18v461c-98 0 -165 62 -165 162c0 101 67 163 165 163h251z" />
    <glyph glyph-name="copyright" unicode="&#xa9;" horiz-adv-x="630" 
d="M259 -5c-133 0 -220 86 -220 212v285c0 127 87 213 220 213h113c133 0 220 -86 220 -213v-285c0 -126 -87 -212 -220 -212h-113zM259 67h113c90 0 143 53 143 140v285c0 88 -53 141 -143 141h-113c-90 0 -143 -53 -143 -141v-285c0 -87 53 -140 143 -140zM314 138
c-79 0 -131 53 -131 135v155c0 82 52 135 129 135c75 0 126 -48 131 -126c1 -10 -4 -16 -14 -16h-63c-9 0 -14 6 -16 15c-3 28 -18 41 -38 41c-23 0 -38 -17 -38 -42v-170c0 -23 15 -40 38 -40c21 0 35 13 39 42c1 9 7 14 15 14h65c10 0 15 -6 14 -16
c-5 -79 -57 -127 -131 -127z" />
    <glyph glyph-name="registered" unicode="&#xae;" horiz-adv-x="420" 
d="M150 258c-68 0 -116 48 -116 117v213c0 68 48 117 116 117h120c68 0 117 -49 117 -117v-213c0 -69 -49 -117 -117 -117h-120zM150 296h120c45 0 74 30 74 78v213c0 48 -29 78 -74 78h-120c-45 0 -74 -30 -74 -78v-213c0 -48 29 -78 74 -78zM141 341c-4 0 -7 3 -7 7v206
c0 48 30 79 75 79c46 0 77 -31 77 -79v-33c0 -29 -12 -52 -31 -65l40 -108c2 -4 -2 -7 -7 -7h-42c-4 0 -6 3 -7 7l-32 95h-19v-95c0 -4 -2 -7 -8 -7h-39zM188 490h19c17 0 25 10 25 28v38c0 16 -8 25 -22 25s-22 -9 -22 -25v-66z" />
    <glyph glyph-name="section" unicode="&#xa7;" horiz-adv-x="387" 
d="M309 247c30 -24 49 -59 49 -109c0 -88 -65 -147 -160 -147c-111 0 -168 81 -170 156c0 9 2 20 17 20h84c8 0 16 -4 19 -16c4 -26 16 -48 48 -48c29 0 42 17 42 37c0 79 -214 69 -214 220c0 45 21 78 56 98c-31 25 -52 59 -52 109c0 86 66 143 160 143
c115 0 159 -82 161 -141c0 -8 -2 -18 -17 -18h-83c-11 0 -16 7 -18 17c-4 19 -18 31 -43 31c-24 0 -41 -14 -41 -35c0 -73 216 -65 216 -216c0 -47 -20 -80 -54 -101zM209 302c19 5 35 24 35 45c0 26 -28 42 -59 53c-27 -3 -42 -20 -42 -41c0 -27 29 -45 66 -57z" />
    <glyph glyph-name="trademark" unicode="&#x2122;" horiz-adv-x="461" 
d="M363 705c49 0 81 -33 81 -85v-188c0 -5 -2 -8 -8 -8h-42c-5 0 -7 3 -7 8v188c0 20 -8 30 -24 30c-14 0 -22 -11 -22 -30v-188c0 -5 -3 -8 -7 -8h-43c-5 0 -8 3 -8 8v188c0 19 -7 30 -22 30s-23 -10 -23 -30v-188c0 -5 -3 -8 -8 -8h-43c-5 0 -7 3 -7 8v188
c0 52 32 85 81 85c20 0 38 -8 51 -21c13 13 31 21 51 21zM155 700c3 0 6 -2 6 -7v-35c0 -5 -3 -8 -6 -8h-41v-218c0 -5 -2 -8 -7 -8h-42c-5 0 -8 3 -8 8v218h-39c-4 0 -7 3 -7 8v35c0 4 3 7 7 7h137z" />
    <glyph glyph-name="degree" unicode="&#xb0;" horiz-adv-x="294" 
d="M13 575c0 82 53 137 134 137s134 -55 134 -137c0 -83 -53 -138 -134 -138s-134 55 -134 138zM92 575c0 -37 22 -61 55 -61s54 24 54 61c0 36 -21 60 -54 60s-55 -24 -55 -60z" />
    <glyph glyph-name="asciicircum" unicode="^" horiz-adv-x="345" 
d="M340 486c6 -13 1 -21 -12 -21h-73c-10 0 -16 3 -21 12l-60 124l-61 -124c-4 -9 -11 -12 -20 -12h-74c-13 0 -18 8 -12 21l108 202c4 8 11 12 21 12h76c9 0 16 -4 21 -12z" />
    <glyph glyph-name="dagger" unicode="&#x2020;" horiz-adv-x="363" 
d="M329 518c11 0 18 -7 18 -18v-69c0 -11 -7 -17 -18 -17h-93v-497c0 -11 -6 -17 -17 -17h-75c-11 0 -17 6 -17 17v497h-93c-11 0 -17 6 -17 17v69c0 11 6 18 17 18h93v165c0 11 6 17 17 17h75c11 0 17 -6 17 -17v-165h93z" />
    <glyph glyph-name="daggerdbl" unicode="&#x2021;" horiz-adv-x="369" 
d="M332 414h-93v-183h93c11 0 18 -6 18 -17v-69c0 -11 -7 -18 -18 -18h-93v-210c0 -11 -6 -17 -17 -17h-75c-11 0 -17 6 -17 17v210h-93c-11 0 -17 7 -17 18v69c0 11 6 17 17 17h93v183h-93c-11 0 -17 6 -17 17v69c0 11 6 18 17 18h93v165c0 11 6 17 17 17h75
c11 0 17 -6 17 -17v-165h93c11 0 18 -7 18 -18v-69c0 -11 -7 -17 -18 -17z" />
    <glyph glyph-name="uni0308" unicode="&#x308;" 
d="M-190 568c-32 0 -52 21 -52 52s20 52 52 52c30 0 51 -21 51 -52s-21 -52 -51 -52zM-52 568c-31 0 -52 21 -52 52s21 52 52 52s52 -21 52 -52s-21 -52 -52 -52z" />
    <glyph glyph-name="uni0307" unicode="&#x307;" 
d="M-67 560c-39 0 -66 29 -66 66c0 38 27 66 66 66c37 0 66 -28 66 -66c0 -35 -29 -66 -66 -66z" />
    <glyph glyph-name="gravecomb" unicode="&#x300;" 
d="M-149 682h70c9 0 16 -5 21 -12l54 -90c8 -12 3 -21 -11 -21h-51c-9 0 -16 3 -21 11l-72 91c-8 11 -5 21 10 21z" />
    <glyph glyph-name="acutecomb" unicode="&#x301;" 
d="M-14 682c15 0 18 -10 10 -21l-72 -91c-5 -8 -12 -11 -21 -11h-51c-14 0 -19 9 -11 21l54 90c5 7 12 12 21 12h70z" />
    <glyph glyph-name="uni030B" unicode="&#x30b;" 
d="M-145 682c15 0 19 -10 10 -21l-71 -91c-6 -8 -13 -11 -22 -11h-40c-14 0 -18 9 -11 21l54 90c5 7 12 12 21 12h59zM-15 682c14 0 18 -10 9 -21l-71 -91c-5 -8 -12 -11 -21 -11h-40c-14 0 -19 9 -12 21l55 90c4 7 11 12 21 12h59z" />
    <glyph glyph-name="uni0302" unicode="&#x302;" 
d="M-229 559c-14 0 -19 10 -12 21l60 91c6 8 13 11 21 11h74c9 0 16 -3 21 -11l60 -91c7 -11 2 -21 -12 -21h-48c-9 0 -16 3 -22 11l-35 47l-37 -47c-5 -8 -12 -11 -21 -11h-49z" />
    <glyph glyph-name="uni030C" unicode="&#x30c;" 
d="M-229 682h49c9 0 16 -3 21 -11l37 -47l35 47c6 8 13 11 22 11h48c14 0 19 -10 12 -21l-60 -91c-5 -8 -12 -11 -21 -11h-74c-8 0 -15 3 -21 11l-60 91c-7 11 -2 21 12 21z" />
    <glyph glyph-name="uni0306" unicode="&#x306;" 
d="M-122 560c-67 0 -113 40 -121 103c-1 12 6 18 17 18h46c11 0 15 -5 19 -16c5 -15 18 -25 39 -25c20 0 33 10 39 25c4 11 8 16 18 16h46c11 0 18 -7 17 -18c-8 -63 -53 -103 -120 -103z" />
    <glyph glyph-name="uni030A" unicode="&#x30a;" 
d="M-163 625c0 47 32 78 81 78s82 -31 82 -78c0 -48 -33 -80 -82 -80s-81 32 -81 80zM-106 624c0 -15 9 -24 24 -24s25 9 25 24s-10 25 -25 25s-24 -10 -24 -25z" />
    <glyph glyph-name="tildecomb" unicode="&#x303;" 
d="M-159 595c-7 0 -11 -3 -14 -10c-5 -10 -10 -15 -19 -15h-37c-11 0 -18 7 -17 18c2 26 23 77 79 77c41 0 60 -27 78 -27c7 0 12 4 15 10c3 7 6 16 18 16h37c11 0 18 -5 17 -19c-2 -32 -28 -76 -79 -76c-38 0 -59 26 -78 26z" />
    <glyph glyph-name="uni0304" unicode="&#x304;" 
d="M-184 638c0 11 6 17 18 17h149c11 0 17 -6 17 -17v-38c0 -11 -6 -18 -17 -18h-149c-12 0 -18 7 -18 18v38z" />
    <glyph glyph-name="uni0312" unicode="&#x312;" 
d="M-111 579l-10 190c0 12 6 18 18 18h40c11 0 17 -5 19 -16l37 -189c2 -11 -5 -19 -16 -19h-70c-11 0 -17 6 -18 16z" />
    <glyph glyph-name="uni0326" unicode="&#x326;" 
d="M-111 -70c1 10 7 16 18 16h70c11 0 18 -8 16 -19l-37 -189c-2 -11 -8 -16 -19 -16h-40c-12 0 -18 6 -18 18z" />
    <glyph glyph-name="uni0327" unicode="&#x327;" 
d="M-99 -209c-49 0 -87 27 -94 75c-3 11 5 18 16 18h27c10 0 13 -5 19 -14c5 -11 18 -17 32 -17c19 0 34 10 34 28c0 16 -14 27 -34 27c-13 0 -24 -1 -35 -3c-4 -1 -8 0 -11 3l-5 4c-3 3 -4 6 -3 11l15 77h69l-8 -44h5c40 -3 72 -33 72 -75c0 -57 -43 -90 -99 -90z" />
    <glyph glyph-name="uni0328" unicode="&#x328;" 
d="M0 -190c0 -10 -6 -17 -17 -17c-8 -1 -16 -1 -23 -1c-91 0 -136 24 -136 90c0 45 20 84 51 118h108c-32 -25 -52 -58 -52 -83c0 -22 16 -36 43 -36h8c12 0 18 -5 18 -17v-54z" />
    <glyph glyph-name="uni0335" unicode="&#x335;" 
d="M-210 372v61h200v-61h-200z" />
    <glyph glyph-name="uni0336" unicode="&#x336;" 
d="M-330 433h320v-61h-320v61z" />
    <glyph glyph-name="uni0337" unicode="&#x337;" 
d="M-269 -45c-12 0 -18 8 -15 19l155 556c2 11 10 15 20 15h99c12 0 18 -8 15 -19l-155 -556c-2 -11 -10 -15 -20 -15h-99z" />
    <glyph glyph-name="uni0338" unicode="&#x338;" 
d="M-345 -45c-12 0 -18 8 -15 19l211 756c2 11 10 15 20 15h99c12 0 18 -8 15 -19l-211 -756c-2 -11 -10 -15 -20 -15h-99z" />
    <glyph glyph-name="uni0308.case" 
d="M-190 771c-32 0 -52 21 -52 52s20 52 52 52c30 0 51 -21 51 -52s-21 -52 -51 -52zM-52 771c-31 0 -52 21 -52 52s21 52 52 52s52 -21 52 -52s-21 -52 -52 -52z" />
    <glyph glyph-name="uni0307.case" 
d="M-67 767c-39 0 -66 29 -66 66c0 38 27 66 66 66c37 0 66 -28 66 -66c0 -35 -29 -66 -66 -66z" />
    <glyph glyph-name="gravecomb.case" 
d="M-17 769h-50c-9 0 -16 3 -22 10l-77 90c-10 11 -5 22 9 22h70c8 0 16 -3 21 -11l61 -90c8 -11 2 -21 -12 -21z" />
    <glyph glyph-name="acutecomb.case" 
d="M-156 769c-14 0 -20 10 -12 21l61 90c5 8 13 11 21 11h70c14 0 19 -11 9 -22l-77 -90c-6 -7 -13 -10 -22 -10h-50z" />
    <glyph glyph-name="uni030B.case" 
d="M-300 769c-14 0 -20 10 -11 21l60 90c6 8 13 11 22 11h69c15 0 19 -11 9 -22l-77 -90c-6 -7 -13 -10 -22 -10h-50zM-155 769c-14 0 -19 10 -11 21l60 90c6 8 13 11 22 11h69c15 0 19 -11 9 -22l-77 -90c-6 -7 -13 -10 -22 -10h-50z" />
    <glyph glyph-name="uni0302.case" 
d="M-5 790c8 -11 3 -21 -11 -21h-49c-9 0 -16 3 -21 10l-40 49l-41 -49c-6 -7 -13 -10 -21 -10h-49c-14 0 -20 10 -11 21l62 90c5 7 13 11 22 11h75c9 0 16 -4 22 -11z" />
    <glyph glyph-name="uni030C.case" 
d="M-6 870l-62 -90c-6 -7 -13 -11 -22 -11h-75c-9 0 -17 4 -22 11l-62 90c-9 11 -3 21 11 21h49c8 0 15 -3 21 -10l41 -49l40 49c5 7 12 10 21 10h49c14 0 19 -10 11 -21z" />
    <glyph glyph-name="uni0306.case" 
d="M-122 767c-67 0 -113 41 -121 103c-1 12 6 19 18 19h45c11 0 15 -6 19 -16c5 -16 19 -25 39 -25s34 9 39 25c4 10 8 16 18 16h46c11 0 18 -7 18 -19c-8 -62 -54 -103 -121 -103z" />
    <glyph glyph-name="uni030A.case" 
d="M-163 830c0 47 32 78 81 78s82 -31 82 -78c0 -48 -33 -80 -82 -80s-81 32 -81 80zM-106 829c0 -15 9 -24 24 -24s25 9 25 24s-10 25 -25 25s-24 -10 -24 -25z" />
    <glyph glyph-name="tildecomb.case" 
d="M-159 795c-7 0 -11 -3 -14 -10c-5 -10 -10 -15 -19 -15h-37c-11 0 -18 7 -17 18c2 26 23 77 79 77c41 0 60 -27 78 -27c7 0 12 4 15 10c3 7 6 16 18 16h37c11 0 18 -5 17 -19c-2 -32 -28 -76 -79 -76c-38 0 -59 26 -78 26z" />
    <glyph glyph-name="uni0304.case" 
d="M-186 840c0 11 6 17 18 17h149c11 0 17 -6 17 -17v-38c0 -11 -6 -18 -17 -18h-149c-12 0 -18 7 -18 18v38z" />
    <glyph glyph-name="uni0312.case" 
d="M-121 774l-10 190c0 12 6 18 18 18h40c11 0 17 -5 19 -16l37 -189c2 -11 -5 -19 -16 -19h-70c-11 0 -17 6 -18 16z" />
    <glyph glyph-name="uni0326.case" 
d="M-111 -70c1 10 7 16 18 16h70c11 0 18 -8 16 -19l-37 -189c-2 -11 -8 -16 -19 -16h-40c-12 0 -18 6 -18 18z" />
    <glyph glyph-name="uni0327.case" 
d="M-99 -209c-49 0 -87 27 -94 75c-3 11 5 18 16 18h27c10 0 13 -5 19 -14c5 -11 18 -17 32 -17c19 0 34 10 34 28c0 16 -14 27 -34 27c-13 0 -24 -1 -35 -3c-4 -1 -8 0 -11 3l-5 4c-3 3 -4 6 -3 11l15 77h69l-8 -44h5c40 -3 72 -33 72 -75c0 -57 -43 -90 -99 -90z" />
    <glyph glyph-name="uni0328.case" 
d="M-17 -190c0 -10 -6 -17 -17 -17c-8 -1 -16 -1 -23 -1c-91 0 -136 24 -136 90c0 45 20 84 51 118h108c-32 -25 -52 -58 -52 -83c0 -22 16 -36 43 -36h8c12 0 18 -5 18 -17v-54z" />
    <glyph glyph-name="uni0337.case" 
d="M-275 -45c-12 0 -18 8 -15 19l155 556c2 11 10 15 20 15h99c12 0 18 -8 15 -19l-155 -556c-2 -11 -10 -15 -20 -15h-99z" />
    <glyph glyph-name="uni0338.case" 
d="M-515 -45c-12 0 -18 8 -15 19l211 756c2 11 10 15 20 15h99c12 0 18 -8 15 -19l-211 -756c-2 -11 -10 -15 -20 -15h-99z" />
    <glyph glyph-name="brevecombcy" 
d="M-122 560c-67 0 -113 40 -121 103c-1 12 6 18 17 18h46c11 0 15 -5 19 -16c5 -15 18 -25 39 -25c20 0 33 10 39 25c4 11 8 16 18 16h46c11 0 18 -7 17 -18c-8 -63 -53 -103 -120 -103z" />
    <glyph glyph-name="brevecombcy.case" 
d="M-122 767c-67 0 -113 41 -121 103c-1 12 6 19 18 19h45c11 0 15 -6 19 -16c5 -16 19 -25 39 -25s34 9 39 25c4 10 8 16 18 16h46c11 0 18 -7 18 -19c-8 -62 -54 -103 -121 -103z" />
    </font>
</defs>
</svg>
